<mxfile host="app.diagrams.net" modified="2023-11-11T21:14:40.278Z" agent="Mozilla/5.0 (Windows NT 10.0; Win64; x64) AppleWebKit/537.36 (KHTML, like Gecko) Chrome/119.0.0.0 Safari/537.36" etag="_lBwgfJPun_gVVzFOeMB" version="22.1.0" type="device" pages="3">
  <diagram name="Page-1" id="PPpdYgOk2pmz6mb1dnyO">
    <mxGraphModel dx="1262" dy="545" grid="1" gridSize="7" guides="1" tooltips="1" connect="1" arrows="1" fold="1" page="1" pageScale="1" pageWidth="2339" pageHeight="3300" math="0" shadow="0">
      <root>
        <mxCell id="0" />
        <mxCell id="1" parent="0" />
        <mxCell id="NQJd4CwdsoFblGqydjk5-3" value="0" style="shape=ext;double=1;rounded=0;whiteSpace=wrap;html=1;" parent="1" vertex="1">
          <mxGeometry x="210" y="165" width="50" height="50" as="geometry" />
        </mxCell>
        <mxCell id="NQJd4CwdsoFblGqydjk5-4" value="Posicionamiento inicial" style="rounded=0;whiteSpace=wrap;html=1;fillColor=#dae8fc;strokeColor=#6c8ebf;" parent="1" vertex="1">
          <mxGeometry x="420" y="160" width="120" height="60" as="geometry" />
        </mxCell>
        <mxCell id="NQJd4CwdsoFblGqydjk5-9" value="" style="endArrow=none;html=1;rounded=0;exitX=1;exitY=0.5;exitDx=0;exitDy=0;entryX=0;entryY=0.5;entryDx=0;entryDy=0;" parent="1" source="NQJd4CwdsoFblGqydjk5-3" target="NQJd4CwdsoFblGqydjk5-4" edge="1">
          <mxGeometry width="50" height="50" relative="1" as="geometry">
            <mxPoint x="530" y="280" as="sourcePoint" />
            <mxPoint x="580" y="230" as="targetPoint" />
          </mxGeometry>
        </mxCell>
        <mxCell id="NQJd4CwdsoFblGqydjk5-11" value="1a" style="rounded=0;whiteSpace=wrap;html=1;" parent="1" vertex="1">
          <mxGeometry x="210" y="345" width="50" height="50" as="geometry" />
        </mxCell>
        <mxCell id="NQJd4CwdsoFblGqydjk5-12" value="" style="endArrow=none;html=1;rounded=0;exitX=0.5;exitY=0;exitDx=0;exitDy=0;entryX=0.5;entryY=1;entryDx=0;entryDy=0;" parent="1" source="NQJd4CwdsoFblGqydjk5-11" target="NQJd4CwdsoFblGqydjk5-3" edge="1">
          <mxGeometry width="50" height="50" relative="1" as="geometry">
            <mxPoint x="530" y="305" as="sourcePoint" />
            <mxPoint x="580" y="255" as="targetPoint" />
          </mxGeometry>
        </mxCell>
        <mxCell id="NQJd4CwdsoFblGqydjk5-13" value="" style="endArrow=none;html=1;rounded=0;" parent="1" edge="1">
          <mxGeometry width="50" height="50" relative="1" as="geometry">
            <mxPoint x="220" y="315" as="sourcePoint" />
            <mxPoint x="250" y="315" as="targetPoint" />
          </mxGeometry>
        </mxCell>
        <mxCell id="NQJd4CwdsoFblGqydjk5-15" value="Laminas en Almacen" style="text;strokeColor=none;align=center;fillColor=#e1d5e7;html=1;verticalAlign=middle;whiteSpace=wrap;rounded=0;" parent="1" vertex="1">
          <mxGeometry x="260" y="295" width="70" height="30" as="geometry" />
        </mxCell>
        <mxCell id="NQJd4CwdsoFblGqydjk5-18" value="" style="endArrow=none;html=1;rounded=0;exitX=0.5;exitY=0;exitDx=0;exitDy=0;entryX=0.5;entryY=1;entryDx=0;entryDy=0;" parent="1" edge="1">
          <mxGeometry width="50" height="50" relative="1" as="geometry">
            <mxPoint x="235" y="455" as="sourcePoint" />
            <mxPoint x="235" y="395" as="targetPoint" />
          </mxGeometry>
        </mxCell>
        <mxCell id="NQJd4CwdsoFblGqydjk5-19" value="" style="endArrow=none;html=1;rounded=0;" parent="1" edge="1">
          <mxGeometry width="50" height="50" relative="1" as="geometry">
            <mxPoint x="220" y="425" as="sourcePoint" />
            <mxPoint x="250" y="425" as="targetPoint" />
          </mxGeometry>
        </mxCell>
        <mxCell id="NQJd4CwdsoFblGqydjk5-20" value="Laminas en Zona de Lavado" style="text;strokeColor=none;align=center;fillColor=#fff2cc;html=1;verticalAlign=middle;whiteSpace=wrap;rounded=0;" parent="1" vertex="1">
          <mxGeometry x="270" y="405" width="90" height="30" as="geometry" />
        </mxCell>
        <mxCell id="NQJd4CwdsoFblGqydjk5-21" value="Laminas a Zona de Lavado" style="rounded=0;whiteSpace=wrap;html=1;fillColor=#fff2cc;strokeColor=#d6b656;" parent="1" vertex="1">
          <mxGeometry x="420" y="340" width="130" height="60" as="geometry" />
        </mxCell>
        <mxCell id="NQJd4CwdsoFblGqydjk5-22" value="" style="endArrow=none;html=1;rounded=0;exitX=1;exitY=0.5;exitDx=0;exitDy=0;entryX=0;entryY=0.5;entryDx=0;entryDy=0;" parent="1" target="NQJd4CwdsoFblGqydjk5-21" edge="1">
          <mxGeometry width="50" height="50" relative="1" as="geometry">
            <mxPoint x="260" y="370" as="sourcePoint" />
            <mxPoint x="580" y="365" as="targetPoint" />
          </mxGeometry>
        </mxCell>
        <mxCell id="NQJd4CwdsoFblGqydjk5-25" value="2" style="rounded=0;whiteSpace=wrap;html=1;" parent="1" vertex="1">
          <mxGeometry x="210" y="455" width="50" height="50" as="geometry" />
        </mxCell>
        <mxCell id="NQJd4CwdsoFblGqydjk5-26" value="" style="endArrow=none;html=1;rounded=0;exitX=0.5;exitY=0;exitDx=0;exitDy=0;entryX=0.5;entryY=1;entryDx=0;entryDy=0;" parent="1" edge="1">
          <mxGeometry width="50" height="50" relative="1" as="geometry">
            <mxPoint x="235" y="565" as="sourcePoint" />
            <mxPoint x="235" y="505" as="targetPoint" />
          </mxGeometry>
        </mxCell>
        <mxCell id="NQJd4CwdsoFblGqydjk5-27" value="" style="endArrow=none;html=1;rounded=0;" parent="1" edge="1">
          <mxGeometry width="50" height="50" relative="1" as="geometry">
            <mxPoint x="220" y="535" as="sourcePoint" />
            <mxPoint x="250" y="535" as="targetPoint" />
          </mxGeometry>
        </mxCell>
        <mxCell id="NQJd4CwdsoFblGqydjk5-28" value="Inicio proceso de Lavado" style="rounded=0;whiteSpace=wrap;html=1;fillColor=#f8cecc;strokeColor=#b85450;" parent="1" vertex="1">
          <mxGeometry x="420" y="450" width="130" height="60" as="geometry" />
        </mxCell>
        <mxCell id="NQJd4CwdsoFblGqydjk5-29" value="" style="endArrow=none;html=1;rounded=0;exitX=1;exitY=0.5;exitDx=0;exitDy=0;entryX=0;entryY=0.5;entryDx=0;entryDy=0;" parent="1" target="NQJd4CwdsoFblGqydjk5-28" edge="1">
          <mxGeometry width="50" height="50" relative="1" as="geometry">
            <mxPoint x="260" y="480" as="sourcePoint" />
            <mxPoint x="580" y="475" as="targetPoint" />
          </mxGeometry>
        </mxCell>
        <mxCell id="NQJd4CwdsoFblGqydjk5-33" value="Proceso de lavado finalizado" style="text;strokeColor=none;align=center;fillColor=#f8cecc;html=1;verticalAlign=middle;whiteSpace=wrap;rounded=0;" parent="1" vertex="1">
          <mxGeometry x="270" y="520" width="110" height="30" as="geometry" />
        </mxCell>
        <mxCell id="NQJd4CwdsoFblGqydjk5-34" value="3" style="rounded=0;whiteSpace=wrap;html=1;" parent="1" vertex="1">
          <mxGeometry x="210" y="565" width="50" height="50" as="geometry" />
        </mxCell>
        <mxCell id="NQJd4CwdsoFblGqydjk5-35" value="" style="endArrow=none;html=1;rounded=0;exitX=0.5;exitY=0;exitDx=0;exitDy=0;entryX=0.5;entryY=1;entryDx=0;entryDy=0;" parent="1" edge="1">
          <mxGeometry width="50" height="50" relative="1" as="geometry">
            <mxPoint x="235" y="675" as="sourcePoint" />
            <mxPoint x="235" y="615" as="targetPoint" />
          </mxGeometry>
        </mxCell>
        <mxCell id="NQJd4CwdsoFblGqydjk5-36" value="" style="endArrow=none;html=1;rounded=0;" parent="1" edge="1">
          <mxGeometry width="50" height="50" relative="1" as="geometry">
            <mxPoint x="220" y="645" as="sourcePoint" />
            <mxPoint x="250" y="645" as="targetPoint" />
          </mxGeometry>
        </mxCell>
        <mxCell id="NQJd4CwdsoFblGqydjk5-37" value="Laminas a Zona de Corte" style="rounded=0;whiteSpace=wrap;html=1;fillColor=#fff2cc;strokeColor=#d6b656;" parent="1" vertex="1">
          <mxGeometry x="420" y="560" width="130" height="60" as="geometry" />
        </mxCell>
        <mxCell id="NQJd4CwdsoFblGqydjk5-38" value="" style="endArrow=none;html=1;rounded=0;exitX=1;exitY=0.5;exitDx=0;exitDy=0;entryX=0;entryY=0.5;entryDx=0;entryDy=0;" parent="1" target="NQJd4CwdsoFblGqydjk5-37" edge="1">
          <mxGeometry width="50" height="50" relative="1" as="geometry">
            <mxPoint x="260" y="590" as="sourcePoint" />
            <mxPoint x="580" y="585" as="targetPoint" />
          </mxGeometry>
        </mxCell>
        <mxCell id="NQJd4CwdsoFblGqydjk5-39" value="Laminas en Zona de Corte" style="text;strokeColor=none;align=center;fillColor=#fff2cc;html=1;verticalAlign=middle;whiteSpace=wrap;rounded=0;" parent="1" vertex="1">
          <mxGeometry x="270" y="630" width="110" height="30" as="geometry" />
        </mxCell>
        <mxCell id="NQJd4CwdsoFblGqydjk5-40" value="4" style="rounded=0;whiteSpace=wrap;html=1;" parent="1" vertex="1">
          <mxGeometry x="210" y="675" width="50" height="50" as="geometry" />
        </mxCell>
        <mxCell id="NQJd4CwdsoFblGqydjk5-41" value="" style="endArrow=none;html=1;rounded=0;exitX=0.5;exitY=0;exitDx=0;exitDy=0;entryX=0.5;entryY=1;entryDx=0;entryDy=0;" parent="1" edge="1">
          <mxGeometry width="50" height="50" relative="1" as="geometry">
            <mxPoint x="235" y="785" as="sourcePoint" />
            <mxPoint x="235" y="725" as="targetPoint" />
          </mxGeometry>
        </mxCell>
        <mxCell id="NQJd4CwdsoFblGqydjk5-42" value="" style="endArrow=none;html=1;rounded=0;" parent="1" edge="1">
          <mxGeometry width="50" height="50" relative="1" as="geometry">
            <mxPoint x="220" y="755" as="sourcePoint" />
            <mxPoint x="250" y="755" as="targetPoint" />
          </mxGeometry>
        </mxCell>
        <mxCell id="NQJd4CwdsoFblGqydjk5-43" value="Posicionamiento de la Lamina" style="rounded=0;whiteSpace=wrap;html=1;fillColor=#dae8fc;strokeColor=none;" parent="1" vertex="1">
          <mxGeometry x="420" y="670" width="130" height="60" as="geometry" />
        </mxCell>
        <mxCell id="NQJd4CwdsoFblGqydjk5-44" value="" style="endArrow=none;html=1;rounded=0;exitX=1;exitY=0.5;exitDx=0;exitDy=0;entryX=0;entryY=0.5;entryDx=0;entryDy=0;" parent="1" target="NQJd4CwdsoFblGqydjk5-43" edge="1">
          <mxGeometry width="50" height="50" relative="1" as="geometry">
            <mxPoint x="260" y="700" as="sourcePoint" />
            <mxPoint x="580" y="695" as="targetPoint" />
          </mxGeometry>
        </mxCell>
        <mxCell id="NQJd4CwdsoFblGqydjk5-45" value="Lamina OK" style="text;strokeColor=none;align=center;fillColor=#dae8fc;html=1;verticalAlign=middle;whiteSpace=wrap;rounded=0;" parent="1" vertex="1">
          <mxGeometry x="270" y="740" width="110" height="30" as="geometry" />
        </mxCell>
        <mxCell id="NQJd4CwdsoFblGqydjk5-46" value="5" style="rounded=0;whiteSpace=wrap;html=1;" parent="1" vertex="1">
          <mxGeometry x="210" y="785" width="50" height="50" as="geometry" />
        </mxCell>
        <mxCell id="NQJd4CwdsoFblGqydjk5-47" value="" style="endArrow=none;html=1;rounded=0;exitX=0.5;exitY=0;exitDx=0;exitDy=0;entryX=0.5;entryY=1;entryDx=0;entryDy=0;" parent="1" edge="1">
          <mxGeometry width="50" height="50" relative="1" as="geometry">
            <mxPoint x="235" y="895" as="sourcePoint" />
            <mxPoint x="235" y="835" as="targetPoint" />
          </mxGeometry>
        </mxCell>
        <mxCell id="NQJd4CwdsoFblGqydjk5-48" value="" style="endArrow=none;html=1;rounded=0;" parent="1" edge="1">
          <mxGeometry width="50" height="50" relative="1" as="geometry">
            <mxPoint x="220" y="865" as="sourcePoint" />
            <mxPoint x="250" y="865" as="targetPoint" />
          </mxGeometry>
        </mxCell>
        <mxCell id="NQJd4CwdsoFblGqydjk5-49" value="Corte de la lamina" style="rounded=0;whiteSpace=wrap;html=1;fillColor=#f8cecc;strokeColor=#b85450;" parent="1" vertex="1">
          <mxGeometry x="420" y="780" width="130" height="60" as="geometry" />
        </mxCell>
        <mxCell id="NQJd4CwdsoFblGqydjk5-50" value="" style="endArrow=none;html=1;rounded=0;exitX=1;exitY=0.5;exitDx=0;exitDy=0;entryX=0;entryY=0.5;entryDx=0;entryDy=0;" parent="1" target="NQJd4CwdsoFblGqydjk5-49" edge="1">
          <mxGeometry width="50" height="50" relative="1" as="geometry">
            <mxPoint x="260" y="810" as="sourcePoint" />
            <mxPoint x="580" y="805" as="targetPoint" />
          </mxGeometry>
        </mxCell>
        <mxCell id="NQJd4CwdsoFblGqydjk5-51" value="Corte Finalizado" style="text;strokeColor=none;align=center;fillColor=#f8cecc;html=1;verticalAlign=middle;whiteSpace=wrap;rounded=0;" parent="1" vertex="1">
          <mxGeometry x="270" y="850" width="110" height="30" as="geometry" />
        </mxCell>
        <mxCell id="NQJd4CwdsoFblGqydjk5-52" value="6" style="rounded=0;whiteSpace=wrap;html=1;" parent="1" vertex="1">
          <mxGeometry x="210" y="895" width="50" height="50" as="geometry" />
        </mxCell>
        <mxCell id="NQJd4CwdsoFblGqydjk5-53" value="" style="endArrow=none;html=1;rounded=0;exitX=0.5;exitY=0;exitDx=0;exitDy=0;entryX=0.5;entryY=1;entryDx=0;entryDy=0;" parent="1" edge="1">
          <mxGeometry width="50" height="50" relative="1" as="geometry">
            <mxPoint x="235" y="1005" as="sourcePoint" />
            <mxPoint x="235" y="945" as="targetPoint" />
          </mxGeometry>
        </mxCell>
        <mxCell id="NQJd4CwdsoFblGqydjk5-54" value="" style="endArrow=none;html=1;rounded=0;" parent="1" edge="1">
          <mxGeometry width="50" height="50" relative="1" as="geometry">
            <mxPoint x="220" y="975" as="sourcePoint" />
            <mxPoint x="250" y="975" as="targetPoint" />
          </mxGeometry>
        </mxCell>
        <mxCell id="NQJd4CwdsoFblGqydjk5-55" value="Lamina a Zona de Doblado" style="rounded=0;whiteSpace=wrap;html=1;fillColor=#fff2cc;strokeColor=#d6b656;" parent="1" vertex="1">
          <mxGeometry x="420" y="890" width="130" height="60" as="geometry" />
        </mxCell>
        <mxCell id="NQJd4CwdsoFblGqydjk5-56" value="" style="endArrow=none;html=1;rounded=0;exitX=1;exitY=0.5;exitDx=0;exitDy=0;entryX=0;entryY=0.5;entryDx=0;entryDy=0;" parent="1" target="NQJd4CwdsoFblGqydjk5-55" edge="1">
          <mxGeometry width="50" height="50" relative="1" as="geometry">
            <mxPoint x="260" y="920" as="sourcePoint" />
            <mxPoint x="580" y="915" as="targetPoint" />
          </mxGeometry>
        </mxCell>
        <mxCell id="NQJd4CwdsoFblGqydjk5-57" value="Lamina en Zona de Doblado" style="text;strokeColor=none;align=center;fillColor=#fff2cc;html=1;verticalAlign=middle;whiteSpace=wrap;rounded=0;" parent="1" vertex="1">
          <mxGeometry x="270" y="960" width="110" height="30" as="geometry" />
        </mxCell>
        <mxCell id="NQJd4CwdsoFblGqydjk5-58" value="7" style="rounded=0;whiteSpace=wrap;html=1;" parent="1" vertex="1">
          <mxGeometry x="210" y="1005" width="50" height="50" as="geometry" />
        </mxCell>
        <mxCell id="NQJd4CwdsoFblGqydjk5-59" value="" style="endArrow=none;html=1;rounded=0;exitX=0.5;exitY=0;exitDx=0;exitDy=0;entryX=0.5;entryY=1;entryDx=0;entryDy=0;" parent="1" edge="1">
          <mxGeometry width="50" height="50" relative="1" as="geometry">
            <mxPoint x="235" y="1115" as="sourcePoint" />
            <mxPoint x="235" y="1055" as="targetPoint" />
          </mxGeometry>
        </mxCell>
        <mxCell id="NQJd4CwdsoFblGqydjk5-60" value="" style="endArrow=none;html=1;rounded=0;" parent="1" edge="1">
          <mxGeometry width="50" height="50" relative="1" as="geometry">
            <mxPoint x="220" y="1085" as="sourcePoint" />
            <mxPoint x="250" y="1085" as="targetPoint" />
          </mxGeometry>
        </mxCell>
        <mxCell id="NQJd4CwdsoFblGqydjk5-61" value="Posicionamiento de la Lamina" style="rounded=0;whiteSpace=wrap;html=1;fillColor=#dae8fc;strokeColor=#6c8ebf;" parent="1" vertex="1">
          <mxGeometry x="420" y="1000" width="130" height="60" as="geometry" />
        </mxCell>
        <mxCell id="NQJd4CwdsoFblGqydjk5-62" value="" style="endArrow=none;html=1;rounded=0;exitX=1;exitY=0.5;exitDx=0;exitDy=0;entryX=0;entryY=0.5;entryDx=0;entryDy=0;" parent="1" target="NQJd4CwdsoFblGqydjk5-61" edge="1">
          <mxGeometry width="50" height="50" relative="1" as="geometry">
            <mxPoint x="260" y="1030" as="sourcePoint" />
            <mxPoint x="580" y="1025" as="targetPoint" />
          </mxGeometry>
        </mxCell>
        <mxCell id="NQJd4CwdsoFblGqydjk5-64" value="Lamina OK" style="text;strokeColor=none;align=center;fillColor=#dae8fc;html=1;verticalAlign=middle;whiteSpace=wrap;rounded=0;" parent="1" vertex="1">
          <mxGeometry x="270" y="1070" width="110" height="30" as="geometry" />
        </mxCell>
        <mxCell id="NQJd4CwdsoFblGqydjk5-65" value="8" style="rounded=0;whiteSpace=wrap;html=1;" parent="1" vertex="1">
          <mxGeometry x="210" y="1115" width="50" height="50" as="geometry" />
        </mxCell>
        <mxCell id="NQJd4CwdsoFblGqydjk5-66" value="" style="endArrow=none;html=1;rounded=0;exitX=0.5;exitY=0;exitDx=0;exitDy=0;entryX=0.5;entryY=1;entryDx=0;entryDy=0;" parent="1" edge="1">
          <mxGeometry width="50" height="50" relative="1" as="geometry">
            <mxPoint x="235" y="1225" as="sourcePoint" />
            <mxPoint x="235" y="1165" as="targetPoint" />
          </mxGeometry>
        </mxCell>
        <mxCell id="NQJd4CwdsoFblGqydjk5-67" value="" style="endArrow=none;html=1;rounded=0;" parent="1" edge="1">
          <mxGeometry width="50" height="50" relative="1" as="geometry">
            <mxPoint x="220" y="1195" as="sourcePoint" />
            <mxPoint x="250" y="1195" as="targetPoint" />
          </mxGeometry>
        </mxCell>
        <mxCell id="NQJd4CwdsoFblGqydjk5-68" value="Doblado de la lamina" style="rounded=0;whiteSpace=wrap;html=1;fillColor=#f8cecc;strokeColor=#b85450;" parent="1" vertex="1">
          <mxGeometry x="420" y="1110" width="130" height="60" as="geometry" />
        </mxCell>
        <mxCell id="NQJd4CwdsoFblGqydjk5-69" value="" style="endArrow=none;html=1;rounded=0;exitX=1;exitY=0.5;exitDx=0;exitDy=0;entryX=0;entryY=0.5;entryDx=0;entryDy=0;" parent="1" target="NQJd4CwdsoFblGqydjk5-68" edge="1">
          <mxGeometry width="50" height="50" relative="1" as="geometry">
            <mxPoint x="260" y="1140" as="sourcePoint" />
            <mxPoint x="580" y="1135" as="targetPoint" />
          </mxGeometry>
        </mxCell>
        <mxCell id="NQJd4CwdsoFblGqydjk5-70" value="Doblado Finalizado" style="text;strokeColor=none;align=center;fillColor=#f8cecc;html=1;verticalAlign=middle;whiteSpace=wrap;rounded=0;" parent="1" vertex="1">
          <mxGeometry x="270" y="1180" width="110" height="30" as="geometry" />
        </mxCell>
        <mxCell id="NQJd4CwdsoFblGqydjk5-71" value="9" style="rounded=0;whiteSpace=wrap;html=1;" parent="1" vertex="1">
          <mxGeometry x="210" y="1225" width="50" height="50" as="geometry" />
        </mxCell>
        <mxCell id="NQJd4CwdsoFblGqydjk5-72" value="" style="endArrow=none;html=1;rounded=0;exitX=0.5;exitY=0;exitDx=0;exitDy=0;entryX=0.5;entryY=1;entryDx=0;entryDy=0;" parent="1" edge="1">
          <mxGeometry width="50" height="50" relative="1" as="geometry">
            <mxPoint x="235" y="1335" as="sourcePoint" />
            <mxPoint x="235" y="1275" as="targetPoint" />
          </mxGeometry>
        </mxCell>
        <mxCell id="NQJd4CwdsoFblGqydjk5-73" value="" style="endArrow=none;html=1;rounded=0;" parent="1" edge="1">
          <mxGeometry width="50" height="50" relative="1" as="geometry">
            <mxPoint x="220" y="1305" as="sourcePoint" />
            <mxPoint x="250" y="1305" as="targetPoint" />
          </mxGeometry>
        </mxCell>
        <mxCell id="NQJd4CwdsoFblGqydjk5-74" value="Pieza a Zona de Pulido" style="rounded=0;whiteSpace=wrap;html=1;fillColor=#fff2cc;strokeColor=#d6b656;" parent="1" vertex="1">
          <mxGeometry x="420" y="1220" width="130" height="60" as="geometry" />
        </mxCell>
        <mxCell id="NQJd4CwdsoFblGqydjk5-75" value="" style="endArrow=none;html=1;rounded=0;exitX=1;exitY=0.5;exitDx=0;exitDy=0;entryX=0;entryY=0.5;entryDx=0;entryDy=0;" parent="1" target="NQJd4CwdsoFblGqydjk5-74" edge="1">
          <mxGeometry width="50" height="50" relative="1" as="geometry">
            <mxPoint x="260" y="1250" as="sourcePoint" />
            <mxPoint x="580" y="1245" as="targetPoint" />
          </mxGeometry>
        </mxCell>
        <mxCell id="NQJd4CwdsoFblGqydjk5-76" value="Pieza en Zona de Pulido" style="text;strokeColor=none;align=center;fillColor=#fff2cc;html=1;verticalAlign=middle;whiteSpace=wrap;rounded=0;" parent="1" vertex="1">
          <mxGeometry x="270" y="1290" width="110" height="30" as="geometry" />
        </mxCell>
        <mxCell id="NQJd4CwdsoFblGqydjk5-77" value="10" style="rounded=0;whiteSpace=wrap;html=1;" parent="1" vertex="1">
          <mxGeometry x="210" y="1335" width="50" height="50" as="geometry" />
        </mxCell>
        <mxCell id="NQJd4CwdsoFblGqydjk5-78" value="" style="endArrow=none;html=1;rounded=0;exitX=0.5;exitY=0;exitDx=0;exitDy=0;entryX=0.5;entryY=1;entryDx=0;entryDy=0;" parent="1" edge="1">
          <mxGeometry width="50" height="50" relative="1" as="geometry">
            <mxPoint x="235" y="1445" as="sourcePoint" />
            <mxPoint x="235" y="1385" as="targetPoint" />
          </mxGeometry>
        </mxCell>
        <mxCell id="NQJd4CwdsoFblGqydjk5-79" value="" style="endArrow=none;html=1;rounded=0;" parent="1" edge="1">
          <mxGeometry width="50" height="50" relative="1" as="geometry">
            <mxPoint x="220" y="1415" as="sourcePoint" />
            <mxPoint x="250" y="1415" as="targetPoint" />
          </mxGeometry>
        </mxCell>
        <mxCell id="NQJd4CwdsoFblGqydjk5-80" value="Pulido de la pieza" style="rounded=0;whiteSpace=wrap;html=1;fillColor=#f8cecc;strokeColor=#b85450;" parent="1" vertex="1">
          <mxGeometry x="420" y="1330" width="130" height="60" as="geometry" />
        </mxCell>
        <mxCell id="NQJd4CwdsoFblGqydjk5-81" value="" style="endArrow=none;html=1;rounded=0;exitX=1;exitY=0.5;exitDx=0;exitDy=0;entryX=0;entryY=0.5;entryDx=0;entryDy=0;" parent="1" target="NQJd4CwdsoFblGqydjk5-80" edge="1">
          <mxGeometry width="50" height="50" relative="1" as="geometry">
            <mxPoint x="260" y="1360" as="sourcePoint" />
            <mxPoint x="580" y="1355" as="targetPoint" />
          </mxGeometry>
        </mxCell>
        <mxCell id="NQJd4CwdsoFblGqydjk5-82" value="Pulido Finalizado" style="text;strokeColor=none;align=center;fillColor=#f8cecc;html=1;verticalAlign=middle;whiteSpace=wrap;rounded=0;" parent="1" vertex="1">
          <mxGeometry x="270" y="1400" width="110" height="30" as="geometry" />
        </mxCell>
        <mxCell id="NQJd4CwdsoFblGqydjk5-83" value="11" style="rounded=0;whiteSpace=wrap;html=1;" parent="1" vertex="1">
          <mxGeometry x="210" y="1445" width="50" height="50" as="geometry" />
        </mxCell>
        <mxCell id="NQJd4CwdsoFblGqydjk5-84" value="" style="endArrow=none;html=1;rounded=0;exitX=0.5;exitY=0;exitDx=0;exitDy=0;entryX=0.5;entryY=1;entryDx=0;entryDy=0;" parent="1" edge="1">
          <mxGeometry width="50" height="50" relative="1" as="geometry">
            <mxPoint x="235" y="1555" as="sourcePoint" />
            <mxPoint x="235" y="1495" as="targetPoint" />
          </mxGeometry>
        </mxCell>
        <mxCell id="NQJd4CwdsoFblGqydjk5-85" value="" style="endArrow=none;html=1;rounded=0;" parent="1" edge="1">
          <mxGeometry width="50" height="50" relative="1" as="geometry">
            <mxPoint x="220" y="1525" as="sourcePoint" />
            <mxPoint x="250" y="1525" as="targetPoint" />
          </mxGeometry>
        </mxCell>
        <mxCell id="NQJd4CwdsoFblGqydjk5-86" value="Piezas a Zona de Pintado" style="rounded=0;whiteSpace=wrap;html=1;fillColor=#fff2cc;strokeColor=#d6b656;" parent="1" vertex="1">
          <mxGeometry x="420" y="1440" width="130" height="60" as="geometry" />
        </mxCell>
        <mxCell id="NQJd4CwdsoFblGqydjk5-87" value="" style="endArrow=none;html=1;rounded=0;exitX=1;exitY=0.5;exitDx=0;exitDy=0;entryX=0;entryY=0.5;entryDx=0;entryDy=0;" parent="1" target="NQJd4CwdsoFblGqydjk5-86" edge="1">
          <mxGeometry width="50" height="50" relative="1" as="geometry">
            <mxPoint x="260" y="1470" as="sourcePoint" />
            <mxPoint x="580" y="1465" as="targetPoint" />
          </mxGeometry>
        </mxCell>
        <mxCell id="NQJd4CwdsoFblGqydjk5-88" value="Pieza en Zona de Pintado" style="text;strokeColor=none;align=center;fillColor=#fff2cc;html=1;verticalAlign=middle;whiteSpace=wrap;rounded=0;" parent="1" vertex="1">
          <mxGeometry x="270" y="1510" width="110" height="30" as="geometry" />
        </mxCell>
        <mxCell id="NQJd4CwdsoFblGqydjk5-89" value="12" style="rounded=0;whiteSpace=wrap;html=1;" parent="1" vertex="1">
          <mxGeometry x="210" y="1555" width="50" height="50" as="geometry" />
        </mxCell>
        <mxCell id="NQJd4CwdsoFblGqydjk5-90" value="" style="endArrow=none;html=1;rounded=0;exitX=0.5;exitY=0;exitDx=0;exitDy=0;entryX=0.5;entryY=1;entryDx=0;entryDy=0;" parent="1" edge="1">
          <mxGeometry width="50" height="50" relative="1" as="geometry">
            <mxPoint x="235" y="1665" as="sourcePoint" />
            <mxPoint x="235" y="1605" as="targetPoint" />
          </mxGeometry>
        </mxCell>
        <mxCell id="NQJd4CwdsoFblGqydjk5-91" value="" style="endArrow=none;html=1;rounded=0;" parent="1" edge="1">
          <mxGeometry width="50" height="50" relative="1" as="geometry">
            <mxPoint x="220" y="1635" as="sourcePoint" />
            <mxPoint x="250" y="1635" as="targetPoint" />
          </mxGeometry>
        </mxCell>
        <mxCell id="NQJd4CwdsoFblGqydjk5-92" value="Posicionamiento piezas en Deslizador" style="rounded=0;whiteSpace=wrap;html=1;fillColor=#dae8fc;strokeColor=#6c8ebf;" parent="1" vertex="1">
          <mxGeometry x="420" y="1550" width="130" height="60" as="geometry" />
        </mxCell>
        <mxCell id="NQJd4CwdsoFblGqydjk5-93" value="" style="endArrow=none;html=1;rounded=0;exitX=1;exitY=0.5;exitDx=0;exitDy=0;entryX=0;entryY=0.5;entryDx=0;entryDy=0;" parent="1" target="NQJd4CwdsoFblGqydjk5-92" edge="1">
          <mxGeometry width="50" height="50" relative="1" as="geometry">
            <mxPoint x="260" y="1580" as="sourcePoint" />
            <mxPoint x="580" y="1575" as="targetPoint" />
          </mxGeometry>
        </mxCell>
        <mxCell id="NQJd4CwdsoFblGqydjk5-94" value="Piezas OK" style="text;strokeColor=none;align=center;fillColor=#dae8fc;html=1;verticalAlign=middle;whiteSpace=wrap;rounded=0;" parent="1" vertex="1">
          <mxGeometry x="270" y="1620" width="110" height="30" as="geometry" />
        </mxCell>
        <mxCell id="NQJd4CwdsoFblGqydjk5-107" value="13" style="rounded=0;whiteSpace=wrap;html=1;" parent="1" vertex="1">
          <mxGeometry x="210" y="1665" width="50" height="50" as="geometry" />
        </mxCell>
        <mxCell id="NQJd4CwdsoFblGqydjk5-108" value="" style="endArrow=none;html=1;rounded=0;exitX=0.5;exitY=0;exitDx=0;exitDy=0;entryX=0.5;entryY=1;entryDx=0;entryDy=0;" parent="1" edge="1">
          <mxGeometry width="50" height="50" relative="1" as="geometry">
            <mxPoint x="235" y="1775" as="sourcePoint" />
            <mxPoint x="235" y="1715" as="targetPoint" />
          </mxGeometry>
        </mxCell>
        <mxCell id="NQJd4CwdsoFblGqydjk5-109" value="" style="endArrow=none;html=1;rounded=0;" parent="1" edge="1">
          <mxGeometry width="50" height="50" relative="1" as="geometry">
            <mxPoint x="220" y="1745" as="sourcePoint" />
            <mxPoint x="250" y="1745" as="targetPoint" />
          </mxGeometry>
        </mxCell>
        <mxCell id="NQJd4CwdsoFblGqydjk5-110" value="Pintado de la Pieza" style="rounded=0;whiteSpace=wrap;html=1;fillColor=#f8cecc;strokeColor=#b85450;" parent="1" vertex="1">
          <mxGeometry x="420" y="1660" width="130" height="60" as="geometry" />
        </mxCell>
        <mxCell id="NQJd4CwdsoFblGqydjk5-111" value="" style="endArrow=none;html=1;rounded=0;exitX=1;exitY=0.5;exitDx=0;exitDy=0;entryX=0;entryY=0.5;entryDx=0;entryDy=0;" parent="1" target="NQJd4CwdsoFblGqydjk5-110" edge="1">
          <mxGeometry width="50" height="50" relative="1" as="geometry">
            <mxPoint x="260" y="1690" as="sourcePoint" />
            <mxPoint x="580" y="1685" as="targetPoint" />
          </mxGeometry>
        </mxCell>
        <mxCell id="NQJd4CwdsoFblGqydjk5-112" value="Pintado Finalizado" style="text;strokeColor=none;align=center;fillColor=#f8cecc;html=1;verticalAlign=middle;whiteSpace=wrap;rounded=0;" parent="1" vertex="1">
          <mxGeometry x="270" y="1730" width="110" height="30" as="geometry" />
        </mxCell>
        <mxCell id="NQJd4CwdsoFblGqydjk5-113" value="14" style="rounded=0;whiteSpace=wrap;html=1;" parent="1" vertex="1">
          <mxGeometry x="210" y="1775" width="50" height="50" as="geometry" />
        </mxCell>
        <mxCell id="NQJd4CwdsoFblGqydjk5-114" value="" style="endArrow=none;html=1;rounded=0;exitX=0.5;exitY=0;exitDx=0;exitDy=0;entryX=0.5;entryY=1;entryDx=0;entryDy=0;" parent="1" edge="1">
          <mxGeometry width="50" height="50" relative="1" as="geometry">
            <mxPoint x="235" y="1885" as="sourcePoint" />
            <mxPoint x="235" y="1825" as="targetPoint" />
          </mxGeometry>
        </mxCell>
        <mxCell id="NQJd4CwdsoFblGqydjk5-115" value="" style="endArrow=none;html=1;rounded=0;" parent="1" edge="1">
          <mxGeometry width="50" height="50" relative="1" as="geometry">
            <mxPoint x="220" y="1855" as="sourcePoint" />
            <mxPoint x="250" y="1855" as="targetPoint" />
          </mxGeometry>
        </mxCell>
        <mxCell id="NQJd4CwdsoFblGqydjk5-116" value="Piezas a Zona de Horneado" style="rounded=0;whiteSpace=wrap;html=1;fillColor=#fff2cc;strokeColor=#d6b656;" parent="1" vertex="1">
          <mxGeometry x="420" y="1770" width="130" height="60" as="geometry" />
        </mxCell>
        <mxCell id="NQJd4CwdsoFblGqydjk5-117" value="" style="endArrow=none;html=1;rounded=0;exitX=1;exitY=0.5;exitDx=0;exitDy=0;entryX=0;entryY=0.5;entryDx=0;entryDy=0;" parent="1" target="NQJd4CwdsoFblGqydjk5-116" edge="1">
          <mxGeometry width="50" height="50" relative="1" as="geometry">
            <mxPoint x="260" y="1800" as="sourcePoint" />
            <mxPoint x="580" y="1795" as="targetPoint" />
          </mxGeometry>
        </mxCell>
        <mxCell id="NQJd4CwdsoFblGqydjk5-118" value="Piezas en Zona de Horneado" style="text;strokeColor=none;align=center;fillColor=#fff2cc;html=1;verticalAlign=middle;whiteSpace=wrap;rounded=0;" parent="1" vertex="1">
          <mxGeometry x="270" y="1840" width="110" height="30" as="geometry" />
        </mxCell>
        <mxCell id="NQJd4CwdsoFblGqydjk5-119" value="15" style="rounded=0;whiteSpace=wrap;html=1;" parent="1" vertex="1">
          <mxGeometry x="210" y="1885" width="50" height="50" as="geometry" />
        </mxCell>
        <mxCell id="NQJd4CwdsoFblGqydjk5-120" value="" style="endArrow=none;html=1;rounded=0;exitX=0.5;exitY=0;exitDx=0;exitDy=0;entryX=0.5;entryY=1;entryDx=0;entryDy=0;" parent="1" edge="1">
          <mxGeometry width="50" height="50" relative="1" as="geometry">
            <mxPoint x="235" y="1995" as="sourcePoint" />
            <mxPoint x="235" y="1935" as="targetPoint" />
          </mxGeometry>
        </mxCell>
        <mxCell id="NQJd4CwdsoFblGqydjk5-121" value="" style="endArrow=none;html=1;rounded=0;" parent="1" edge="1">
          <mxGeometry width="50" height="50" relative="1" as="geometry">
            <mxPoint x="220" y="1965" as="sourcePoint" />
            <mxPoint x="250" y="1965" as="targetPoint" />
          </mxGeometry>
        </mxCell>
        <mxCell id="NQJd4CwdsoFblGqydjk5-122" value="Posicionamiento piezas en Horno" style="rounded=0;whiteSpace=wrap;html=1;fillColor=#dae8fc;strokeColor=#6c8ebf;" parent="1" vertex="1">
          <mxGeometry x="420" y="1880" width="130" height="60" as="geometry" />
        </mxCell>
        <mxCell id="NQJd4CwdsoFblGqydjk5-123" value="" style="endArrow=none;html=1;rounded=0;exitX=1;exitY=0.5;exitDx=0;exitDy=0;entryX=0;entryY=0.5;entryDx=0;entryDy=0;" parent="1" target="NQJd4CwdsoFblGqydjk5-122" edge="1">
          <mxGeometry width="50" height="50" relative="1" as="geometry">
            <mxPoint x="260" y="1910" as="sourcePoint" />
            <mxPoint x="580" y="1905" as="targetPoint" />
          </mxGeometry>
        </mxCell>
        <mxCell id="NQJd4CwdsoFblGqydjk5-124" value="Piezas OK" style="text;strokeColor=none;align=center;fillColor=#dae8fc;html=1;verticalAlign=middle;whiteSpace=wrap;rounded=0;" parent="1" vertex="1">
          <mxGeometry x="270" y="1950" width="110" height="30" as="geometry" />
        </mxCell>
        <mxCell id="NQJd4CwdsoFblGqydjk5-125" value="16" style="rounded=0;whiteSpace=wrap;html=1;" parent="1" vertex="1">
          <mxGeometry x="210" y="1995" width="50" height="50" as="geometry" />
        </mxCell>
        <mxCell id="NQJd4CwdsoFblGqydjk5-126" value="" style="endArrow=none;html=1;rounded=0;exitX=0.5;exitY=0;exitDx=0;exitDy=0;entryX=0.5;entryY=1;entryDx=0;entryDy=0;" parent="1" edge="1">
          <mxGeometry width="50" height="50" relative="1" as="geometry">
            <mxPoint x="235" y="2105" as="sourcePoint" />
            <mxPoint x="235" y="2045" as="targetPoint" />
          </mxGeometry>
        </mxCell>
        <mxCell id="NQJd4CwdsoFblGqydjk5-127" value="" style="endArrow=none;html=1;rounded=0;" parent="1" edge="1">
          <mxGeometry width="50" height="50" relative="1" as="geometry">
            <mxPoint x="220" y="2075" as="sourcePoint" />
            <mxPoint x="250" y="2075" as="targetPoint" />
          </mxGeometry>
        </mxCell>
        <mxCell id="NQJd4CwdsoFblGqydjk5-128" value="Horneado de Piezas" style="rounded=0;whiteSpace=wrap;html=1;fillColor=#f8cecc;strokeColor=default;" parent="1" vertex="1">
          <mxGeometry x="420" y="1990" width="130" height="60" as="geometry" />
        </mxCell>
        <mxCell id="NQJd4CwdsoFblGqydjk5-129" value="" style="endArrow=none;html=1;rounded=0;exitX=1;exitY=0.5;exitDx=0;exitDy=0;entryX=0;entryY=0.5;entryDx=0;entryDy=0;" parent="1" target="NQJd4CwdsoFblGqydjk5-128" edge="1">
          <mxGeometry width="50" height="50" relative="1" as="geometry">
            <mxPoint x="260" y="2020" as="sourcePoint" />
            <mxPoint x="580" y="2015" as="targetPoint" />
          </mxGeometry>
        </mxCell>
        <mxCell id="NQJd4CwdsoFblGqydjk5-130" value="Horneado Finalizado" style="text;strokeColor=none;align=center;fillColor=#f8cecc;html=1;verticalAlign=middle;whiteSpace=wrap;rounded=0;" parent="1" vertex="1">
          <mxGeometry x="270" y="2060" width="110" height="30" as="geometry" />
        </mxCell>
        <mxCell id="NQJd4CwdsoFblGqydjk5-131" value="17" style="rounded=0;whiteSpace=wrap;html=1;" parent="1" vertex="1">
          <mxGeometry x="210" y="2105" width="50" height="50" as="geometry" />
        </mxCell>
        <mxCell id="NQJd4CwdsoFblGqydjk5-132" value="" style="endArrow=none;html=1;rounded=0;exitX=0.5;exitY=0;exitDx=0;exitDy=0;entryX=0.5;entryY=1;entryDx=0;entryDy=0;" parent="1" edge="1">
          <mxGeometry width="50" height="50" relative="1" as="geometry">
            <mxPoint x="235" y="2215" as="sourcePoint" />
            <mxPoint x="235" y="2155" as="targetPoint" />
          </mxGeometry>
        </mxCell>
        <mxCell id="NQJd4CwdsoFblGqydjk5-133" value="" style="endArrow=none;html=1;rounded=0;" parent="1" edge="1">
          <mxGeometry width="50" height="50" relative="1" as="geometry">
            <mxPoint x="220" y="2185" as="sourcePoint" />
            <mxPoint x="250" y="2185" as="targetPoint" />
          </mxGeometry>
        </mxCell>
        <mxCell id="NQJd4CwdsoFblGqydjk5-134" value="Piezas a Zona de Antideslizantes" style="rounded=0;whiteSpace=wrap;html=1;fillColor=#fff2cc;strokeColor=#d6b656;" parent="1" vertex="1">
          <mxGeometry x="420" y="2100" width="130" height="60" as="geometry" />
        </mxCell>
        <mxCell id="NQJd4CwdsoFblGqydjk5-135" value="" style="endArrow=none;html=1;rounded=0;exitX=1;exitY=0.5;exitDx=0;exitDy=0;entryX=0;entryY=0.5;entryDx=0;entryDy=0;" parent="1" target="NQJd4CwdsoFblGqydjk5-134" edge="1">
          <mxGeometry width="50" height="50" relative="1" as="geometry">
            <mxPoint x="260" y="2130" as="sourcePoint" />
            <mxPoint x="580" y="2125" as="targetPoint" />
          </mxGeometry>
        </mxCell>
        <mxCell id="NQJd4CwdsoFblGqydjk5-136" value="Piezas en Zona de Antideslizantes" style="text;strokeColor=none;align=center;fillColor=#fff2cc;html=1;verticalAlign=middle;whiteSpace=wrap;rounded=0;" parent="1" vertex="1">
          <mxGeometry x="270" y="2170" width="110" height="30" as="geometry" />
        </mxCell>
        <mxCell id="NQJd4CwdsoFblGqydjk5-137" value="18" style="rounded=0;whiteSpace=wrap;html=1;" parent="1" vertex="1">
          <mxGeometry x="210" y="2215" width="50" height="50" as="geometry" />
        </mxCell>
        <mxCell id="NQJd4CwdsoFblGqydjk5-138" value="" style="endArrow=none;html=1;rounded=0;exitX=0.5;exitY=0;exitDx=0;exitDy=0;entryX=0.5;entryY=1;entryDx=0;entryDy=0;" parent="1" edge="1">
          <mxGeometry width="50" height="50" relative="1" as="geometry">
            <mxPoint x="235" y="2325" as="sourcePoint" />
            <mxPoint x="235" y="2265" as="targetPoint" />
          </mxGeometry>
        </mxCell>
        <mxCell id="NQJd4CwdsoFblGqydjk5-139" value="" style="endArrow=none;html=1;rounded=0;" parent="1" edge="1">
          <mxGeometry width="50" height="50" relative="1" as="geometry">
            <mxPoint x="220" y="2295" as="sourcePoint" />
            <mxPoint x="250" y="2295" as="targetPoint" />
          </mxGeometry>
        </mxCell>
        <mxCell id="NQJd4CwdsoFblGqydjk5-140" value="Puesta de Antideslizantes" style="rounded=0;whiteSpace=wrap;html=1;fillColor=#f8cecc;strokeColor=#b85450;" parent="1" vertex="1">
          <mxGeometry x="420" y="2210" width="130" height="60" as="geometry" />
        </mxCell>
        <mxCell id="NQJd4CwdsoFblGqydjk5-141" value="" style="endArrow=none;html=1;rounded=0;exitX=1;exitY=0.5;exitDx=0;exitDy=0;entryX=0;entryY=0.5;entryDx=0;entryDy=0;" parent="1" target="NQJd4CwdsoFblGqydjk5-140" edge="1">
          <mxGeometry width="50" height="50" relative="1" as="geometry">
            <mxPoint x="260" y="2240" as="sourcePoint" />
            <mxPoint x="580" y="2235" as="targetPoint" />
          </mxGeometry>
        </mxCell>
        <mxCell id="NQJd4CwdsoFblGqydjk5-142" value="Ahesivos en Pieza" style="text;strokeColor=none;align=center;fillColor=#f8cecc;html=1;verticalAlign=middle;whiteSpace=wrap;rounded=0;" parent="1" vertex="1">
          <mxGeometry x="270" y="2280" width="110" height="30" as="geometry" />
        </mxCell>
        <mxCell id="NQJd4CwdsoFblGqydjk5-143" value="19" style="rounded=0;whiteSpace=wrap;html=1;" parent="1" vertex="1">
          <mxGeometry x="210" y="2325" width="50" height="50" as="geometry" />
        </mxCell>
        <mxCell id="NQJd4CwdsoFblGqydjk5-144" value="" style="endArrow=none;html=1;rounded=0;exitX=0.5;exitY=0;exitDx=0;exitDy=0;entryX=0.5;entryY=1;entryDx=0;entryDy=0;" parent="1" edge="1">
          <mxGeometry width="50" height="50" relative="1" as="geometry">
            <mxPoint x="235" y="2435" as="sourcePoint" />
            <mxPoint x="235" y="2375" as="targetPoint" />
          </mxGeometry>
        </mxCell>
        <mxCell id="NQJd4CwdsoFblGqydjk5-145" value="" style="endArrow=none;html=1;rounded=0;" parent="1" edge="1">
          <mxGeometry width="50" height="50" relative="1" as="geometry">
            <mxPoint x="220" y="2405" as="sourcePoint" />
            <mxPoint x="250" y="2405" as="targetPoint" />
          </mxGeometry>
        </mxCell>
        <mxCell id="NQJd4CwdsoFblGqydjk5-146" value="Pieza a Zona de Embalaje" style="rounded=0;whiteSpace=wrap;html=1;fillColor=#fff2cc;strokeColor=#d6b656;" parent="1" vertex="1">
          <mxGeometry x="420" y="2320" width="130" height="60" as="geometry" />
        </mxCell>
        <mxCell id="NQJd4CwdsoFblGqydjk5-147" value="" style="endArrow=none;html=1;rounded=0;exitX=1;exitY=0.5;exitDx=0;exitDy=0;entryX=0;entryY=0.5;entryDx=0;entryDy=0;" parent="1" target="NQJd4CwdsoFblGqydjk5-146" edge="1">
          <mxGeometry width="50" height="50" relative="1" as="geometry">
            <mxPoint x="260" y="2350" as="sourcePoint" />
            <mxPoint x="580" y="2345" as="targetPoint" />
          </mxGeometry>
        </mxCell>
        <mxCell id="NQJd4CwdsoFblGqydjk5-148" value="Piezas en Zona de Embalaje" style="text;strokeColor=none;align=center;fillColor=#fff2cc;html=1;verticalAlign=middle;whiteSpace=wrap;rounded=0;" parent="1" vertex="1">
          <mxGeometry x="270" y="2390" width="110" height="30" as="geometry" />
        </mxCell>
        <mxCell id="NQJd4CwdsoFblGqydjk5-149" value="20" style="rounded=0;whiteSpace=wrap;html=1;" parent="1" vertex="1">
          <mxGeometry x="210" y="2435" width="50" height="50" as="geometry" />
        </mxCell>
        <mxCell id="NQJd4CwdsoFblGqydjk5-150" value="" style="endArrow=none;html=1;rounded=0;exitX=0.5;exitY=0;exitDx=0;exitDy=0;entryX=0.5;entryY=1;entryDx=0;entryDy=0;" parent="1" edge="1">
          <mxGeometry width="50" height="50" relative="1" as="geometry">
            <mxPoint x="235" y="2545" as="sourcePoint" />
            <mxPoint x="235" y="2485" as="targetPoint" />
          </mxGeometry>
        </mxCell>
        <mxCell id="NQJd4CwdsoFblGqydjk5-151" value="" style="endArrow=none;html=1;rounded=0;" parent="1" edge="1">
          <mxGeometry width="50" height="50" relative="1" as="geometry">
            <mxPoint x="220" y="2515" as="sourcePoint" />
            <mxPoint x="250" y="2515" as="targetPoint" />
          </mxGeometry>
        </mxCell>
        <mxCell id="NQJd4CwdsoFblGqydjk5-152" value="Posicionamiento de pieza en Vinipeladora" style="rounded=0;whiteSpace=wrap;html=1;fillColor=#dae8fc;strokeColor=#6c8ebf;" parent="1" vertex="1">
          <mxGeometry x="420" y="2430" width="130" height="60" as="geometry" />
        </mxCell>
        <mxCell id="NQJd4CwdsoFblGqydjk5-153" value="" style="endArrow=none;html=1;rounded=0;exitX=1;exitY=0.5;exitDx=0;exitDy=0;entryX=0;entryY=0.5;entryDx=0;entryDy=0;" parent="1" target="NQJd4CwdsoFblGqydjk5-152" edge="1">
          <mxGeometry width="50" height="50" relative="1" as="geometry">
            <mxPoint x="260" y="2460" as="sourcePoint" />
            <mxPoint x="580" y="2455" as="targetPoint" />
          </mxGeometry>
        </mxCell>
        <mxCell id="NQJd4CwdsoFblGqydjk5-154" value="Pieza OK" style="text;strokeColor=none;align=center;fillColor=#dae8fc;html=1;verticalAlign=middle;whiteSpace=wrap;rounded=0;" parent="1" vertex="1">
          <mxGeometry x="270" y="2500" width="110" height="30" as="geometry" />
        </mxCell>
        <mxCell id="NQJd4CwdsoFblGqydjk5-155" value="21" style="rounded=0;whiteSpace=wrap;html=1;" parent="1" vertex="1">
          <mxGeometry x="210" y="2545" width="50" height="50" as="geometry" />
        </mxCell>
        <mxCell id="NQJd4CwdsoFblGqydjk5-156" value="" style="endArrow=none;html=1;rounded=0;exitX=0.5;exitY=0;exitDx=0;exitDy=0;entryX=0.5;entryY=1;entryDx=0;entryDy=0;" parent="1" edge="1">
          <mxGeometry width="50" height="50" relative="1" as="geometry">
            <mxPoint x="235" y="2655" as="sourcePoint" />
            <mxPoint x="235" y="2595" as="targetPoint" />
          </mxGeometry>
        </mxCell>
        <mxCell id="NQJd4CwdsoFblGqydjk5-157" value="" style="endArrow=none;html=1;rounded=0;" parent="1" edge="1">
          <mxGeometry width="50" height="50" relative="1" as="geometry">
            <mxPoint x="220" y="2625" as="sourcePoint" />
            <mxPoint x="250" y="2625" as="targetPoint" />
          </mxGeometry>
        </mxCell>
        <mxCell id="NQJd4CwdsoFblGqydjk5-158" value="Embalaje de Pieza" style="rounded=0;whiteSpace=wrap;html=1;fillColor=#f8cecc;strokeColor=#b85450;" parent="1" vertex="1">
          <mxGeometry x="420" y="2540" width="130" height="60" as="geometry" />
        </mxCell>
        <mxCell id="NQJd4CwdsoFblGqydjk5-159" value="" style="endArrow=none;html=1;rounded=0;exitX=1;exitY=0.5;exitDx=0;exitDy=0;entryX=0;entryY=0.5;entryDx=0;entryDy=0;" parent="1" target="NQJd4CwdsoFblGqydjk5-158" edge="1">
          <mxGeometry width="50" height="50" relative="1" as="geometry">
            <mxPoint x="260" y="2570" as="sourcePoint" />
            <mxPoint x="580" y="2565" as="targetPoint" />
          </mxGeometry>
        </mxCell>
        <mxCell id="NQJd4CwdsoFblGqydjk5-160" value="Embalaje finalizado" style="text;strokeColor=none;align=center;fillColor=#f8cecc;html=1;verticalAlign=middle;whiteSpace=wrap;rounded=0;" parent="1" vertex="1">
          <mxGeometry x="270" y="2610" width="110" height="30" as="geometry" />
        </mxCell>
        <mxCell id="NQJd4CwdsoFblGqydjk5-173" value="22" style="rounded=0;whiteSpace=wrap;html=1;" parent="1" vertex="1">
          <mxGeometry x="210" y="2655" width="50" height="50" as="geometry" />
        </mxCell>
        <mxCell id="NQJd4CwdsoFblGqydjk5-174" value="" style="endArrow=none;html=1;rounded=0;exitX=0.5;exitY=0;exitDx=0;exitDy=0;entryX=0.5;entryY=1;entryDx=0;entryDy=0;" parent="1" edge="1">
          <mxGeometry width="50" height="50" relative="1" as="geometry">
            <mxPoint x="235" y="2765" as="sourcePoint" />
            <mxPoint x="235" y="2705" as="targetPoint" />
          </mxGeometry>
        </mxCell>
        <mxCell id="NQJd4CwdsoFblGqydjk5-175" value="" style="endArrow=none;html=1;rounded=0;" parent="1" edge="1">
          <mxGeometry width="50" height="50" relative="1" as="geometry">
            <mxPoint x="220" y="2735" as="sourcePoint" />
            <mxPoint x="250" y="2735" as="targetPoint" />
          </mxGeometry>
        </mxCell>
        <mxCell id="NQJd4CwdsoFblGqydjk5-176" value="Piezas a Almacen" style="rounded=0;whiteSpace=wrap;html=1;fillColor=#fff2cc;strokeColor=#d6b656;" parent="1" vertex="1">
          <mxGeometry x="420" y="2650" width="130" height="60" as="geometry" />
        </mxCell>
        <mxCell id="NQJd4CwdsoFblGqydjk5-177" value="" style="endArrow=none;html=1;rounded=0;exitX=1;exitY=0.5;exitDx=0;exitDy=0;entryX=0;entryY=0.5;entryDx=0;entryDy=0;" parent="1" target="NQJd4CwdsoFblGqydjk5-176" edge="1">
          <mxGeometry width="50" height="50" relative="1" as="geometry">
            <mxPoint x="260" y="2680" as="sourcePoint" />
            <mxPoint x="580" y="2675" as="targetPoint" />
          </mxGeometry>
        </mxCell>
        <mxCell id="NQJd4CwdsoFblGqydjk5-178" value="Piezas en Almacen" style="text;strokeColor=none;align=center;fillColor=#fff2cc;html=1;verticalAlign=middle;whiteSpace=wrap;rounded=0;" parent="1" vertex="1">
          <mxGeometry x="270" y="2720" width="110" height="30" as="geometry" />
        </mxCell>
        <mxCell id="NQJd4CwdsoFblGqydjk5-179" value="23" style="rounded=0;whiteSpace=wrap;html=1;" parent="1" vertex="1">
          <mxGeometry x="210" y="2765" width="50" height="50" as="geometry" />
        </mxCell>
        <mxCell id="NQJd4CwdsoFblGqydjk5-180" value="" style="endArrow=none;html=1;rounded=0;exitX=0.5;exitY=0;exitDx=0;exitDy=0;entryX=0.5;entryY=1;entryDx=0;entryDy=0;" parent="1" edge="1">
          <mxGeometry width="50" height="50" relative="1" as="geometry">
            <mxPoint x="235" y="2875" as="sourcePoint" />
            <mxPoint x="235" y="2815" as="targetPoint" />
          </mxGeometry>
        </mxCell>
        <mxCell id="NQJd4CwdsoFblGqydjk5-181" value="" style="endArrow=none;html=1;rounded=0;" parent="1" edge="1">
          <mxGeometry width="50" height="50" relative="1" as="geometry">
            <mxPoint x="220" y="2845" as="sourcePoint" />
            <mxPoint x="250" y="2845" as="targetPoint" />
          </mxGeometry>
        </mxCell>
        <mxCell id="NQJd4CwdsoFblGqydjk5-182" value="Revisión de Calidad / Clasificación" style="rounded=0;whiteSpace=wrap;html=1;fillColor=#f8cecc;strokeColor=#b85450;" parent="1" vertex="1">
          <mxGeometry x="420" y="2760" width="130" height="60" as="geometry" />
        </mxCell>
        <mxCell id="NQJd4CwdsoFblGqydjk5-183" value="" style="endArrow=none;html=1;rounded=0;exitX=1;exitY=0.5;exitDx=0;exitDy=0;entryX=0;entryY=0.5;entryDx=0;entryDy=0;" parent="1" target="NQJd4CwdsoFblGqydjk5-182" edge="1">
          <mxGeometry width="50" height="50" relative="1" as="geometry">
            <mxPoint x="260" y="2790" as="sourcePoint" />
            <mxPoint x="580" y="2785" as="targetPoint" />
          </mxGeometry>
        </mxCell>
        <mxCell id="NQJd4CwdsoFblGqydjk5-184" value="Número de piezas en almacen &amp;gt;= Lote de piezas" style="text;strokeColor=none;align=center;fillColor=#e1d5e7;html=1;verticalAlign=middle;whiteSpace=wrap;rounded=0;" parent="1" vertex="1">
          <mxGeometry x="280" y="2970" width="110" height="50" as="geometry" />
        </mxCell>
        <mxCell id="NQJd4CwdsoFblGqydjk5-186" value="24" style="rounded=0;whiteSpace=wrap;html=1;" parent="1" vertex="1">
          <mxGeometry x="210" y="2875" width="50" height="50" as="geometry" />
        </mxCell>
        <mxCell id="NQJd4CwdsoFblGqydjk5-187" value="" style="endArrow=none;html=1;rounded=0;edgeStyle=orthogonalEdgeStyle;" parent="1" edge="1">
          <mxGeometry width="50" height="50" relative="1" as="geometry">
            <mxPoint x="250" y="3035" as="sourcePoint" />
            <mxPoint x="250" y="2950" as="targetPoint" />
          </mxGeometry>
        </mxCell>
        <mxCell id="NQJd4CwdsoFblGqydjk5-188" value="" style="endArrow=none;html=1;rounded=0;" parent="1" edge="1">
          <mxGeometry width="50" height="50" relative="1" as="geometry">
            <mxPoint x="240" y="2995" as="sourcePoint" />
            <mxPoint x="260" y="2995" as="targetPoint" />
          </mxGeometry>
        </mxCell>
        <mxCell id="NQJd4CwdsoFblGqydjk5-189" value="Desechado de Piezas que no cumplen" style="rounded=0;whiteSpace=wrap;html=1;fillColor=#fff2cc;strokeColor=#d6b656;" parent="1" vertex="1">
          <mxGeometry x="420" y="2870" width="130" height="60" as="geometry" />
        </mxCell>
        <mxCell id="NQJd4CwdsoFblGqydjk5-190" value="" style="endArrow=none;html=1;rounded=0;exitX=1;exitY=0.5;exitDx=0;exitDy=0;entryX=0;entryY=0.5;entryDx=0;entryDy=0;" parent="1" target="NQJd4CwdsoFblGqydjk5-189" edge="1">
          <mxGeometry width="50" height="50" relative="1" as="geometry">
            <mxPoint x="260" y="2900" as="sourcePoint" />
            <mxPoint x="580" y="2895" as="targetPoint" />
          </mxGeometry>
        </mxCell>
        <mxCell id="NQJd4CwdsoFblGqydjk5-200" value="" style="endArrow=none;html=1;rounded=0;" parent="1" edge="1">
          <mxGeometry width="50" height="50" relative="1" as="geometry">
            <mxPoint x="110" y="270" as="sourcePoint" />
            <mxPoint x="240" y="3150" as="targetPoint" />
            <Array as="points">
              <mxPoint x="110" y="3150" />
            </Array>
          </mxGeometry>
        </mxCell>
        <mxCell id="NQJd4CwdsoFblGqydjk5-201" value="" style="endArrow=none;html=1;rounded=0;" parent="1" edge="1">
          <mxGeometry width="50" height="50" relative="1" as="geometry">
            <mxPoint x="110" y="270" as="sourcePoint" />
            <mxPoint x="238" y="270" as="targetPoint" />
          </mxGeometry>
        </mxCell>
        <mxCell id="NQJd4CwdsoFblGqydjk5-202" value="Transporte" style="rounded=0;whiteSpace=wrap;html=1;fillColor=#fff2cc;strokeColor=none;" parent="1" vertex="1">
          <mxGeometry x="810" y="265" width="90" height="60" as="geometry" />
        </mxCell>
        <mxCell id="NQJd4CwdsoFblGqydjk5-206" value="24" style="rounded=0;whiteSpace=wrap;html=1;" parent="1" vertex="1">
          <mxGeometry x="210" y="3035" width="50" height="50" as="geometry" />
        </mxCell>
        <mxCell id="NQJd4CwdsoFblGqydjk5-207" value="" style="endArrow=none;html=1;rounded=0;entryX=0.5;entryY=1;entryDx=0;entryDy=0;edgeStyle=orthogonalEdgeStyle;" parent="1" edge="1">
          <mxGeometry width="50" height="50" relative="1" as="geometry">
            <mxPoint x="235" y="3150" as="sourcePoint" />
            <mxPoint x="235" y="3085" as="targetPoint" />
          </mxGeometry>
        </mxCell>
        <mxCell id="NQJd4CwdsoFblGqydjk5-208" value="" style="endArrow=none;html=1;rounded=0;" parent="1" edge="1">
          <mxGeometry width="50" height="50" relative="1" as="geometry">
            <mxPoint x="220" y="3115" as="sourcePoint" />
            <mxPoint x="250" y="3115" as="targetPoint" />
          </mxGeometry>
        </mxCell>
        <mxCell id="NQJd4CwdsoFblGqydjk5-209" value="Despacho de 1 Lote" style="rounded=0;whiteSpace=wrap;html=1;fillColor=#fff2cc;strokeColor=#d6b656;" parent="1" vertex="1">
          <mxGeometry x="380" y="3030" width="130" height="60" as="geometry" />
        </mxCell>
        <mxCell id="NQJd4CwdsoFblGqydjk5-210" value="" style="endArrow=none;html=1;rounded=0;exitX=1;exitY=0.5;exitDx=0;exitDy=0;entryX=0;entryY=0.5;entryDx=0;entryDy=0;" parent="1" target="NQJd4CwdsoFblGqydjk5-209" edge="1">
          <mxGeometry width="50" height="50" relative="1" as="geometry">
            <mxPoint x="260" y="3060" as="sourcePoint" />
            <mxPoint x="580" y="3055" as="targetPoint" />
          </mxGeometry>
        </mxCell>
        <mxCell id="NQJd4CwdsoFblGqydjk5-211" value="Piezas despachadas" style="text;strokeColor=#d6b656;align=center;fillColor=#fff2cc;html=1;verticalAlign=middle;whiteSpace=wrap;rounded=0;" parent="1" vertex="1">
          <mxGeometry x="270" y="3100" width="110" height="30" as="geometry" />
        </mxCell>
        <mxCell id="NQJd4CwdsoFblGqydjk5-214" value="Revisión Finalizada" style="text;strokeColor=none;align=center;fillColor=#f8cecc;html=1;verticalAlign=middle;whiteSpace=wrap;rounded=0;" parent="1" vertex="1">
          <mxGeometry x="270" y="2840" width="110" height="30" as="geometry" />
        </mxCell>
        <mxCell id="NQJd4CwdsoFblGqydjk5-215" value="Proceso" style="rounded=0;whiteSpace=wrap;html=1;fillColor=#f8cecc;strokeColor=none;" parent="1" vertex="1">
          <mxGeometry x="810" y="345" width="90" height="60" as="geometry" />
        </mxCell>
        <mxCell id="NQJd4CwdsoFblGqydjk5-216" value="Posición" style="rounded=0;whiteSpace=wrap;html=1;fillColor=#dae8fc;strokeColor=none;" parent="1" vertex="1">
          <mxGeometry x="810" y="430" width="90" height="60" as="geometry" />
        </mxCell>
        <mxCell id="NQJd4CwdsoFblGqydjk5-218" value="IN/OUT&lt;br&gt;Laminas" style="text;strokeColor=none;align=center;fillColor=#e1d5e7;html=1;verticalAlign=middle;whiteSpace=wrap;rounded=0;" parent="1" vertex="1">
          <mxGeometry x="810" y="515" width="90" height="50" as="geometry" />
        </mxCell>
        <mxCell id="NQJd4CwdsoFblGqydjk5-219" value="Condición: Sensor/Banderas&lt;br&gt;Acción: (Timer más cambio de posición)" style="text;html=1;align=center;verticalAlign=middle;resizable=0;points=[];autosize=1;strokeColor=none;fillColor=none;" parent="1" vertex="1">
          <mxGeometry x="900" y="275" width="240" height="40" as="geometry" />
        </mxCell>
        <mxCell id="NQJd4CwdsoFblGqydjk5-220" value="Condición: Timer/Contador/Banderas&lt;br&gt;Acción: (Timer más cambio de posición/movimiento)" style="text;html=1;align=center;verticalAlign=middle;resizable=0;points=[];autosize=1;strokeColor=none;fillColor=none;" parent="1" vertex="1">
          <mxGeometry x="900" y="350" width="300" height="40" as="geometry" />
        </mxCell>
        <mxCell id="NQJd4CwdsoFblGqydjk5-221" value="Condición: Sensor/Banderas&lt;br&gt;Acción: Cambio de Bandera/Sensor" style="text;html=1;align=center;verticalAlign=middle;resizable=0;points=[];autosize=1;strokeColor=none;fillColor=none;" parent="1" vertex="1">
          <mxGeometry x="900" y="440" width="210" height="40" as="geometry" />
        </mxCell>
        <mxCell id="NQJd4CwdsoFblGqydjk5-222" value="Condición: Comparación Contador" style="text;html=1;align=center;verticalAlign=middle;resizable=0;points=[];autosize=1;strokeColor=none;fillColor=none;" parent="1" vertex="1">
          <mxGeometry x="900" y="520" width="210" height="30" as="geometry" />
        </mxCell>
        <mxCell id="ignYIB6CBLze_0joUSlG-1" value="" style="endArrow=none;html=1;rounded=0;" parent="1" edge="1">
          <mxGeometry width="50" height="50" relative="1" as="geometry">
            <mxPoint x="200" y="2940" as="sourcePoint" />
            <mxPoint x="270" y="2940" as="targetPoint" />
          </mxGeometry>
        </mxCell>
        <mxCell id="ignYIB6CBLze_0joUSlG-2" value="" style="endArrow=none;html=1;rounded=0;" parent="1" edge="1">
          <mxGeometry width="50" height="50" relative="1" as="geometry">
            <mxPoint x="200" y="2950" as="sourcePoint" />
            <mxPoint x="270" y="2950" as="targetPoint" />
          </mxGeometry>
        </mxCell>
        <mxCell id="ignYIB6CBLze_0joUSlG-3" value="" style="endArrow=none;html=1;rounded=0;edgeStyle=orthogonalEdgeStyle;" parent="1" edge="1">
          <mxGeometry width="50" height="50" relative="1" as="geometry">
            <mxPoint x="140" y="280" as="sourcePoint" />
            <mxPoint x="221" y="2950" as="targetPoint" />
            <Array as="points">
              <mxPoint x="150" y="2991" />
              <mxPoint x="221" y="2991" />
              <mxPoint x="221" y="2950" />
            </Array>
          </mxGeometry>
        </mxCell>
        <mxCell id="ignYIB6CBLze_0joUSlG-4" value="" style="endArrow=none;html=1;rounded=0;entryX=0.5;entryY=1;entryDx=0;entryDy=0;" parent="1" target="NQJd4CwdsoFblGqydjk5-186" edge="1">
          <mxGeometry width="50" height="50" relative="1" as="geometry">
            <mxPoint x="235" y="2940" as="sourcePoint" />
            <mxPoint x="300" y="2910" as="targetPoint" />
          </mxGeometry>
        </mxCell>
        <mxCell id="ignYIB6CBLze_0joUSlG-5" value="" style="endArrow=none;html=1;rounded=0;" parent="1" edge="1">
          <mxGeometry width="50" height="50" relative="1" as="geometry">
            <mxPoint x="140" y="280" as="sourcePoint" />
            <mxPoint x="238" y="280" as="targetPoint" />
          </mxGeometry>
        </mxCell>
        <mxCell id="QPZ9oDiuC27oQFy0TpY4-1" value="&lt;b&gt;&lt;font style=&quot;font-size: 18px;&quot;&gt;GRAFCET de Nivel 1 Descripción Funcional&lt;/font&gt;&lt;/b&gt;" style="rounded=1;whiteSpace=wrap;html=1;" parent="1" vertex="1">
          <mxGeometry x="640" y="30" width="190" height="110" as="geometry" />
        </mxCell>
      </root>
    </mxGraphModel>
  </diagram>
  <diagram id="9ur2YNQXcU-jc5uIdrsL" name="Page-2">
    <mxGraphModel dx="1640" dy="708" grid="1" gridSize="7" guides="1" tooltips="1" connect="1" arrows="1" fold="1" page="1" pageScale="1" pageWidth="2339" pageHeight="3300" background="none" math="0" shadow="0">
      <root>
        <mxCell id="0" />
        <mxCell id="1" parent="0" />
        <mxCell id="RFZ5rJwRLSDNyrsrcom5-164" value="0" style="shape=ext;double=1;rounded=0;whiteSpace=wrap;html=1;shadow=0;" parent="1" vertex="1">
          <mxGeometry x="290" y="264" width="50" height="50" as="geometry" />
        </mxCell>
        <mxCell id="RFZ5rJwRLSDNyrsrcom5-165" value="Reinicio de Banderas&lt;br&gt;Actuadores a Posición inicial e Ingresar Contador de Laminas" style="rounded=0;whiteSpace=wrap;html=1;shadow=0;" parent="1" vertex="1">
          <mxGeometry x="518" y="259" width="172" height="60" as="geometry" />
        </mxCell>
        <mxCell id="RFZ5rJwRLSDNyrsrcom5-166" value="" style="endArrow=none;html=1;rounded=0;exitX=1;exitY=0.5;exitDx=0;exitDy=0;entryX=0;entryY=0.5;entryDx=0;entryDy=0;shadow=0;" parent="1" source="RFZ5rJwRLSDNyrsrcom5-164" target="RFZ5rJwRLSDNyrsrcom5-165" edge="1">
          <mxGeometry width="50" height="50" relative="1" as="geometry">
            <mxPoint x="610" y="379" as="sourcePoint" />
            <mxPoint x="660" y="329" as="targetPoint" />
          </mxGeometry>
        </mxCell>
        <mxCell id="RFZ5rJwRLSDNyrsrcom5-167" value="1" style="rounded=0;whiteSpace=wrap;html=1;shadow=0;" parent="1" vertex="1">
          <mxGeometry x="290" y="415" width="50" height="50" as="geometry" />
        </mxCell>
        <mxCell id="RFZ5rJwRLSDNyrsrcom5-168" value="" style="endArrow=none;html=1;rounded=0;exitX=0.5;exitY=0;exitDx=0;exitDy=0;entryX=0.5;entryY=1;entryDx=0;entryDy=0;shadow=0;" parent="1" source="RFZ5rJwRLSDNyrsrcom5-167" target="RFZ5rJwRLSDNyrsrcom5-164" edge="1">
          <mxGeometry width="50" height="50" relative="1" as="geometry">
            <mxPoint x="610" y="375" as="sourcePoint" />
            <mxPoint x="660" y="325" as="targetPoint" />
          </mxGeometry>
        </mxCell>
        <mxCell id="RFZ5rJwRLSDNyrsrcom5-170" value="Confirmación número de láminas y la bandera de Inicio" style="text;align=center;html=1;verticalAlign=middle;whiteSpace=wrap;rounded=0;shadow=0;" parent="1" vertex="1">
          <mxGeometry x="333" y="323" width="164" height="30" as="geometry" />
        </mxCell>
        <mxCell id="RFZ5rJwRLSDNyrsrcom5-171" value="" style="endArrow=none;html=1;rounded=0;exitX=0.5;exitY=0;exitDx=0;exitDy=0;entryX=0.5;entryY=1;entryDx=0;entryDy=0;shadow=0;" parent="1" edge="1">
          <mxGeometry width="50" height="50" relative="1" as="geometry">
            <mxPoint x="315" y="525" as="sourcePoint" />
            <mxPoint x="315" y="465" as="targetPoint" />
          </mxGeometry>
        </mxCell>
        <mxCell id="RFZ5rJwRLSDNyrsrcom5-172" value="" style="endArrow=none;html=1;rounded=0;shadow=0;" parent="1" edge="1">
          <mxGeometry width="50" height="50" relative="1" as="geometry">
            <mxPoint x="300" y="495" as="sourcePoint" />
            <mxPoint x="330" y="495" as="targetPoint" />
          </mxGeometry>
        </mxCell>
        <mxCell id="RFZ5rJwRLSDNyrsrcom5-174" value="Timer (Tiempo de transporte Laminas de Almacen a Lavado) y Contador de Laminas --" style="rounded=0;whiteSpace=wrap;html=1;shadow=0;" parent="1" vertex="1">
          <mxGeometry x="500" y="410" width="179" height="60" as="geometry" />
        </mxCell>
        <mxCell id="RFZ5rJwRLSDNyrsrcom5-175" value="" style="endArrow=none;html=1;rounded=0;exitX=1;exitY=0.5;exitDx=0;exitDy=0;entryX=0;entryY=0.5;entryDx=0;entryDy=0;shadow=0;" parent="1" target="RFZ5rJwRLSDNyrsrcom5-174" edge="1">
          <mxGeometry width="50" height="50" relative="1" as="geometry">
            <mxPoint x="340" y="440" as="sourcePoint" />
            <mxPoint x="660" y="435" as="targetPoint" />
          </mxGeometry>
        </mxCell>
        <mxCell id="RFZ5rJwRLSDNyrsrcom5-176" value="2" style="rounded=0;whiteSpace=wrap;html=1;shadow=0;" parent="1" vertex="1">
          <mxGeometry x="290" y="525" width="50" height="50" as="geometry" />
        </mxCell>
        <mxCell id="RFZ5rJwRLSDNyrsrcom5-177" value="" style="endArrow=none;html=1;rounded=0;exitX=0.5;exitY=0;exitDx=0;exitDy=0;entryX=0.5;entryY=1;entryDx=0;entryDy=0;shadow=0;" parent="1" edge="1">
          <mxGeometry width="50" height="50" relative="1" as="geometry">
            <mxPoint x="315" y="635" as="sourcePoint" />
            <mxPoint x="315" y="575" as="targetPoint" />
          </mxGeometry>
        </mxCell>
        <mxCell id="RFZ5rJwRLSDNyrsrcom5-178" value="" style="endArrow=none;html=1;rounded=0;shadow=0;" parent="1" edge="1">
          <mxGeometry width="50" height="50" relative="1" as="geometry">
            <mxPoint x="300" y="595" as="sourcePoint" />
            <mxPoint x="330" y="595" as="targetPoint" />
          </mxGeometry>
        </mxCell>
        <mxCell id="RFZ5rJwRLSDNyrsrcom5-179" value="Timer (Rutina de lavado)" style="rounded=0;whiteSpace=wrap;html=1;shadow=0;" parent="1" vertex="1">
          <mxGeometry x="500" y="520" width="109" height="60" as="geometry" />
        </mxCell>
        <mxCell id="RFZ5rJwRLSDNyrsrcom5-180" value="" style="endArrow=none;html=1;rounded=0;exitX=1;exitY=0.5;exitDx=0;exitDy=0;entryX=0;entryY=0.5;entryDx=0;entryDy=0;shadow=0;" parent="1" target="RFZ5rJwRLSDNyrsrcom5-179" edge="1">
          <mxGeometry width="50" height="50" relative="1" as="geometry">
            <mxPoint x="340" y="550" as="sourcePoint" />
            <mxPoint x="660" y="545" as="targetPoint" />
          </mxGeometry>
        </mxCell>
        <mxCell id="RFZ5rJwRLSDNyrsrcom5-181" value="Bandera de Fin de Lavado Arriba" style="text;align=center;html=1;verticalAlign=middle;whiteSpace=wrap;rounded=0;shadow=0;" parent="1" vertex="1">
          <mxGeometry x="349" y="580" width="110" height="30" as="geometry" />
        </mxCell>
        <mxCell id="RFZ5rJwRLSDNyrsrcom5-182" value="3" style="rounded=0;whiteSpace=wrap;html=1;shadow=0;" parent="1" vertex="1">
          <mxGeometry x="290" y="635" width="50" height="50" as="geometry" />
        </mxCell>
        <mxCell id="RFZ5rJwRLSDNyrsrcom5-183" value="" style="endArrow=none;html=1;rounded=0;exitX=0.5;exitY=0;exitDx=0;exitDy=0;entryX=0.5;entryY=1;entryDx=0;entryDy=0;shadow=0;" parent="1" edge="1">
          <mxGeometry width="50" height="50" relative="1" as="geometry">
            <mxPoint x="315" y="745" as="sourcePoint" />
            <mxPoint x="315" y="685" as="targetPoint" />
          </mxGeometry>
        </mxCell>
        <mxCell id="RFZ5rJwRLSDNyrsrcom5-184" value="" style="endArrow=none;html=1;rounded=0;shadow=0;" parent="1" edge="1">
          <mxGeometry width="50" height="50" relative="1" as="geometry">
            <mxPoint x="300" y="715" as="sourcePoint" />
            <mxPoint x="330" y="715" as="targetPoint" />
          </mxGeometry>
        </mxCell>
        <mxCell id="RFZ5rJwRLSDNyrsrcom5-186" value="" style="endArrow=none;html=1;rounded=0;exitX=1;exitY=0.5;exitDx=0;exitDy=0;entryX=0;entryY=0.5;entryDx=0;entryDy=0;shadow=0;" parent="1" edge="1">
          <mxGeometry width="50" height="50" relative="1" as="geometry">
            <mxPoint x="340" y="660" as="sourcePoint" />
            <mxPoint x="500" y="660" as="targetPoint" />
          </mxGeometry>
        </mxCell>
        <mxCell id="RFZ5rJwRLSDNyrsrcom5-188" value="4" style="rounded=0;whiteSpace=wrap;html=1;shadow=0;" parent="1" vertex="1">
          <mxGeometry x="290" y="745" width="50" height="50" as="geometry" />
        </mxCell>
        <mxCell id="RFZ5rJwRLSDNyrsrcom5-189" value="" style="endArrow=none;html=1;rounded=0;exitX=0.5;exitY=0;exitDx=0;exitDy=0;entryX=0.5;entryY=1;entryDx=0;entryDy=0;shadow=0;" parent="1" edge="1">
          <mxGeometry width="50" height="50" relative="1" as="geometry">
            <mxPoint x="315" y="855" as="sourcePoint" />
            <mxPoint x="315" y="795" as="targetPoint" />
          </mxGeometry>
        </mxCell>
        <mxCell id="RFZ5rJwRLSDNyrsrcom5-190" value="" style="endArrow=none;html=1;rounded=0;shadow=0;" parent="1" edge="1">
          <mxGeometry width="50" height="50" relative="1" as="geometry">
            <mxPoint x="300" y="825" as="sourcePoint" />
            <mxPoint x="330" y="825" as="targetPoint" />
          </mxGeometry>
        </mxCell>
        <mxCell id="RFZ5rJwRLSDNyrsrcom5-191" value="Timer (Tiempo de posicionamiento - alistamiento)" style="rounded=0;whiteSpace=wrap;html=1;shadow=0;" parent="1" vertex="1">
          <mxGeometry x="500" y="740" width="130" height="60" as="geometry" />
        </mxCell>
        <mxCell id="RFZ5rJwRLSDNyrsrcom5-192" value="" style="endArrow=none;html=1;rounded=0;exitX=1;exitY=0.5;exitDx=0;exitDy=0;entryX=0;entryY=0.5;entryDx=0;entryDy=0;shadow=0;" parent="1" target="RFZ5rJwRLSDNyrsrcom5-191" edge="1">
          <mxGeometry width="50" height="50" relative="1" as="geometry">
            <mxPoint x="340" y="770" as="sourcePoint" />
            <mxPoint x="660" y="765" as="targetPoint" />
          </mxGeometry>
        </mxCell>
        <mxCell id="RFZ5rJwRLSDNyrsrcom5-193" value="Bandera de timer" style="text;align=center;html=1;verticalAlign=middle;whiteSpace=wrap;rounded=0;shadow=0;" parent="1" vertex="1">
          <mxGeometry x="350" y="810" width="110" height="30" as="geometry" />
        </mxCell>
        <mxCell id="RFZ5rJwRLSDNyrsrcom5-194" value="5" style="rounded=0;whiteSpace=wrap;html=1;shadow=0;" parent="1" vertex="1">
          <mxGeometry x="290" y="855" width="50" height="50" as="geometry" />
        </mxCell>
        <mxCell id="RFZ5rJwRLSDNyrsrcom5-195" value="" style="endArrow=none;html=1;rounded=0;exitX=0.5;exitY=0;exitDx=0;exitDy=0;entryX=0.5;entryY=1;entryDx=0;entryDy=0;shadow=0;" parent="1" edge="1">
          <mxGeometry width="50" height="50" relative="1" as="geometry">
            <mxPoint x="315" y="965" as="sourcePoint" />
            <mxPoint x="315" y="905" as="targetPoint" />
          </mxGeometry>
        </mxCell>
        <mxCell id="RFZ5rJwRLSDNyrsrcom5-196" value="" style="endArrow=none;html=1;rounded=0;shadow=0;" parent="1" edge="1">
          <mxGeometry width="50" height="50" relative="1" as="geometry">
            <mxPoint x="300" y="935" as="sourcePoint" />
            <mxPoint x="330" y="935" as="targetPoint" />
          </mxGeometry>
        </mxCell>
        <mxCell id="RFZ5rJwRLSDNyrsrcom5-197" value="Timer Rutina de corte&lt;br style=&quot;border-color: var(--border-color);&quot;&gt;(Bandera al finalizar)" style="rounded=0;whiteSpace=wrap;html=1;shadow=0;" parent="1" vertex="1">
          <mxGeometry x="500" y="850" width="130" height="60" as="geometry" />
        </mxCell>
        <mxCell id="RFZ5rJwRLSDNyrsrcom5-198" value="" style="endArrow=none;html=1;rounded=0;exitX=1;exitY=0.5;exitDx=0;exitDy=0;entryX=0;entryY=0.5;entryDx=0;entryDy=0;shadow=0;" parent="1" target="RFZ5rJwRLSDNyrsrcom5-197" edge="1">
          <mxGeometry width="50" height="50" relative="1" as="geometry">
            <mxPoint x="340" y="880" as="sourcePoint" />
            <mxPoint x="660" y="875" as="targetPoint" />
          </mxGeometry>
        </mxCell>
        <mxCell id="RFZ5rJwRLSDNyrsrcom5-199" value="Bandera de Fin de Corte Arriba" style="text;align=center;html=1;verticalAlign=middle;whiteSpace=wrap;rounded=0;shadow=0;" parent="1" vertex="1">
          <mxGeometry x="350" y="920" width="110" height="30" as="geometry" />
        </mxCell>
        <mxCell id="RFZ5rJwRLSDNyrsrcom5-200" value="6" style="rounded=0;whiteSpace=wrap;html=1;shadow=0;" parent="1" vertex="1">
          <mxGeometry x="290" y="965" width="50" height="50" as="geometry" />
        </mxCell>
        <mxCell id="RFZ5rJwRLSDNyrsrcom5-201" value="" style="endArrow=none;html=1;rounded=0;exitX=0.5;exitY=0;exitDx=0;exitDy=0;entryX=0.5;entryY=1;entryDx=0;entryDy=0;shadow=0;" parent="1" edge="1">
          <mxGeometry width="50" height="50" relative="1" as="geometry">
            <mxPoint x="315" y="1075" as="sourcePoint" />
            <mxPoint x="315" y="1015" as="targetPoint" />
          </mxGeometry>
        </mxCell>
        <mxCell id="RFZ5rJwRLSDNyrsrcom5-202" value="" style="endArrow=none;html=1;rounded=0;shadow=0;" parent="1" edge="1">
          <mxGeometry width="50" height="50" relative="1" as="geometry">
            <mxPoint x="300" y="1045" as="sourcePoint" />
            <mxPoint x="330" y="1045" as="targetPoint" />
          </mxGeometry>
        </mxCell>
        <mxCell id="RFZ5rJwRLSDNyrsrcom5-203" value="Timer (Tiempo de transporte Laminas de Corte a Doblado)" style="rounded=0;whiteSpace=wrap;html=1;shadow=0;" parent="1" vertex="1">
          <mxGeometry x="500" y="960" width="130" height="60" as="geometry" />
        </mxCell>
        <mxCell id="RFZ5rJwRLSDNyrsrcom5-204" value="" style="endArrow=none;html=1;rounded=0;exitX=1;exitY=0.5;exitDx=0;exitDy=0;entryX=0;entryY=0.5;entryDx=0;entryDy=0;shadow=0;" parent="1" target="RFZ5rJwRLSDNyrsrcom5-203" edge="1">
          <mxGeometry width="50" height="50" relative="1" as="geometry">
            <mxPoint x="340" y="990" as="sourcePoint" />
            <mxPoint x="660" y="985" as="targetPoint" />
          </mxGeometry>
        </mxCell>
        <mxCell id="RFZ5rJwRLSDNyrsrcom5-206" value="7" style="rounded=0;whiteSpace=wrap;html=1;shadow=0;" parent="1" vertex="1">
          <mxGeometry x="290" y="1075" width="50" height="50" as="geometry" />
        </mxCell>
        <mxCell id="RFZ5rJwRLSDNyrsrcom5-207" value="" style="endArrow=none;html=1;rounded=0;exitX=0.5;exitY=0;exitDx=0;exitDy=0;entryX=0.5;entryY=1;entryDx=0;entryDy=0;shadow=0;" parent="1" edge="1">
          <mxGeometry width="50" height="50" relative="1" as="geometry">
            <mxPoint x="315" y="1185" as="sourcePoint" />
            <mxPoint x="315" y="1125" as="targetPoint" />
          </mxGeometry>
        </mxCell>
        <mxCell id="RFZ5rJwRLSDNyrsrcom5-208" value="" style="endArrow=none;html=1;rounded=0;shadow=0;" parent="1" edge="1">
          <mxGeometry width="50" height="50" relative="1" as="geometry">
            <mxPoint x="300" y="1155" as="sourcePoint" />
            <mxPoint x="330" y="1155" as="targetPoint" />
          </mxGeometry>
        </mxCell>
        <mxCell id="RFZ5rJwRLSDNyrsrcom5-210" value="" style="endArrow=none;html=1;rounded=0;exitX=1;exitY=0.5;exitDx=0;exitDy=0;entryX=0;entryY=0.5;entryDx=0;entryDy=0;shadow=0;" parent="1" edge="1">
          <mxGeometry width="50" height="50" relative="1" as="geometry">
            <mxPoint x="340" y="1100" as="sourcePoint" />
            <mxPoint x="500" y="1100" as="targetPoint" />
          </mxGeometry>
        </mxCell>
        <mxCell id="RFZ5rJwRLSDNyrsrcom5-212" value="8" style="rounded=0;whiteSpace=wrap;html=1;shadow=0;" parent="1" vertex="1">
          <mxGeometry x="290" y="1185" width="50" height="50" as="geometry" />
        </mxCell>
        <mxCell id="RFZ5rJwRLSDNyrsrcom5-213" value="" style="endArrow=none;html=1;rounded=0;exitX=0.5;exitY=0;exitDx=0;exitDy=0;entryX=0.5;entryY=1;entryDx=0;entryDy=0;shadow=0;" parent="1" edge="1">
          <mxGeometry width="50" height="50" relative="1" as="geometry">
            <mxPoint x="315" y="1295" as="sourcePoint" />
            <mxPoint x="315" y="1235" as="targetPoint" />
          </mxGeometry>
        </mxCell>
        <mxCell id="RFZ5rJwRLSDNyrsrcom5-214" value="" style="endArrow=none;html=1;rounded=0;shadow=0;" parent="1" edge="1">
          <mxGeometry width="50" height="50" relative="1" as="geometry">
            <mxPoint x="300" y="1265" as="sourcePoint" />
            <mxPoint x="330" y="1265" as="targetPoint" />
          </mxGeometry>
        </mxCell>
        <mxCell id="RFZ5rJwRLSDNyrsrcom5-216" value="" style="endArrow=none;html=1;rounded=0;exitX=1;exitY=0.5;exitDx=0;exitDy=0;entryX=0;entryY=0.5;entryDx=0;entryDy=0;shadow=0;" parent="1" edge="1">
          <mxGeometry width="50" height="50" relative="1" as="geometry">
            <mxPoint x="340" y="1210" as="sourcePoint" />
            <mxPoint x="500" y="1210" as="targetPoint" />
          </mxGeometry>
        </mxCell>
        <mxCell id="RFZ5rJwRLSDNyrsrcom5-218" value="9" style="rounded=0;whiteSpace=wrap;html=1;shadow=0;" parent="1" vertex="1">
          <mxGeometry x="290" y="1295" width="50" height="50" as="geometry" />
        </mxCell>
        <mxCell id="RFZ5rJwRLSDNyrsrcom5-219" value="" style="endArrow=none;html=1;rounded=0;exitX=0.5;exitY=0;exitDx=0;exitDy=0;entryX=0.5;entryY=1;entryDx=0;entryDy=0;shadow=0;" parent="1" edge="1">
          <mxGeometry width="50" height="50" relative="1" as="geometry">
            <mxPoint x="315" y="1405" as="sourcePoint" />
            <mxPoint x="315" y="1345" as="targetPoint" />
          </mxGeometry>
        </mxCell>
        <mxCell id="RFZ5rJwRLSDNyrsrcom5-220" value="" style="endArrow=none;html=1;rounded=0;shadow=0;" parent="1" edge="1">
          <mxGeometry width="50" height="50" relative="1" as="geometry">
            <mxPoint x="300" y="1375" as="sourcePoint" />
            <mxPoint x="330" y="1375" as="targetPoint" />
          </mxGeometry>
        </mxCell>
        <mxCell id="RFZ5rJwRLSDNyrsrcom5-222" value="" style="endArrow=none;html=1;rounded=0;exitX=1;exitY=0.5;exitDx=0;exitDy=0;entryX=0;entryY=0.5;entryDx=0;entryDy=0;shadow=0;" parent="1" edge="1">
          <mxGeometry width="50" height="50" relative="1" as="geometry">
            <mxPoint x="340" y="1320" as="sourcePoint" />
            <mxPoint x="500" y="1320" as="targetPoint" />
          </mxGeometry>
        </mxCell>
        <mxCell id="RFZ5rJwRLSDNyrsrcom5-224" value="10" style="rounded=0;whiteSpace=wrap;html=1;shadow=0;" parent="1" vertex="1">
          <mxGeometry x="290" y="1405" width="50" height="50" as="geometry" />
        </mxCell>
        <mxCell id="RFZ5rJwRLSDNyrsrcom5-225" value="" style="endArrow=none;html=1;rounded=0;exitX=0.5;exitY=0;exitDx=0;exitDy=0;entryX=0.5;entryY=1;entryDx=0;entryDy=0;shadow=0;" parent="1" edge="1">
          <mxGeometry width="50" height="50" relative="1" as="geometry">
            <mxPoint x="315" y="1515" as="sourcePoint" />
            <mxPoint x="315" y="1455" as="targetPoint" />
          </mxGeometry>
        </mxCell>
        <mxCell id="RFZ5rJwRLSDNyrsrcom5-226" value="" style="endArrow=none;html=1;rounded=0;shadow=0;" parent="1" edge="1">
          <mxGeometry width="50" height="50" relative="1" as="geometry">
            <mxPoint x="300" y="1485" as="sourcePoint" />
            <mxPoint x="330" y="1485" as="targetPoint" />
          </mxGeometry>
        </mxCell>
        <mxCell id="RFZ5rJwRLSDNyrsrcom5-228" value="" style="endArrow=none;html=1;rounded=0;exitX=1;exitY=0.5;exitDx=0;exitDy=0;entryX=0;entryY=0.5;entryDx=0;entryDy=0;shadow=0;" parent="1" edge="1">
          <mxGeometry width="50" height="50" relative="1" as="geometry">
            <mxPoint x="340" y="1430" as="sourcePoint" />
            <mxPoint x="500" y="1430" as="targetPoint" />
          </mxGeometry>
        </mxCell>
        <mxCell id="RFZ5rJwRLSDNyrsrcom5-230" value="11" style="rounded=0;whiteSpace=wrap;html=1;shadow=0;" parent="1" vertex="1">
          <mxGeometry x="290" y="1515" width="50" height="50" as="geometry" />
        </mxCell>
        <mxCell id="RFZ5rJwRLSDNyrsrcom5-231" value="" style="endArrow=none;html=1;rounded=0;exitX=0.5;exitY=0;exitDx=0;exitDy=0;entryX=0.5;entryY=1;entryDx=0;entryDy=0;shadow=0;" parent="1" edge="1">
          <mxGeometry width="50" height="50" relative="1" as="geometry">
            <mxPoint x="315" y="1625" as="sourcePoint" />
            <mxPoint x="315" y="1565" as="targetPoint" />
          </mxGeometry>
        </mxCell>
        <mxCell id="RFZ5rJwRLSDNyrsrcom5-232" value="" style="endArrow=none;html=1;rounded=0;shadow=0;" parent="1" edge="1">
          <mxGeometry width="50" height="50" relative="1" as="geometry">
            <mxPoint x="300" y="1595" as="sourcePoint" />
            <mxPoint x="330" y="1595" as="targetPoint" />
          </mxGeometry>
        </mxCell>
        <mxCell id="RFZ5rJwRLSDNyrsrcom5-234" value="" style="endArrow=none;html=1;rounded=0;exitX=1;exitY=0.5;exitDx=0;exitDy=0;entryX=0;entryY=0.5;entryDx=0;entryDy=0;shadow=0;" parent="1" edge="1">
          <mxGeometry width="50" height="50" relative="1" as="geometry">
            <mxPoint x="340" y="1540" as="sourcePoint" />
            <mxPoint x="500" y="1540" as="targetPoint" />
          </mxGeometry>
        </mxCell>
        <mxCell id="RFZ5rJwRLSDNyrsrcom5-236" value="12" style="rounded=0;whiteSpace=wrap;html=1;shadow=0;" parent="1" vertex="1">
          <mxGeometry x="290" y="1625" width="50" height="50" as="geometry" />
        </mxCell>
        <mxCell id="RFZ5rJwRLSDNyrsrcom5-237" value="" style="endArrow=none;html=1;rounded=0;exitX=0.5;exitY=0;exitDx=0;exitDy=0;entryX=0.5;entryY=1;entryDx=0;entryDy=0;shadow=0;" parent="1" edge="1">
          <mxGeometry width="50" height="50" relative="1" as="geometry">
            <mxPoint x="315" y="1735" as="sourcePoint" />
            <mxPoint x="315" y="1675" as="targetPoint" />
          </mxGeometry>
        </mxCell>
        <mxCell id="RFZ5rJwRLSDNyrsrcom5-238" value="" style="endArrow=none;html=1;rounded=0;shadow=0;" parent="1" edge="1">
          <mxGeometry width="50" height="50" relative="1" as="geometry">
            <mxPoint x="300" y="1705" as="sourcePoint" />
            <mxPoint x="330" y="1705" as="targetPoint" />
          </mxGeometry>
        </mxCell>
        <mxCell id="RFZ5rJwRLSDNyrsrcom5-240" value="" style="endArrow=none;html=1;rounded=0;exitX=1;exitY=0.5;exitDx=0;exitDy=0;entryX=0;entryY=0.5;entryDx=0;entryDy=0;shadow=0;" parent="1" edge="1">
          <mxGeometry width="50" height="50" relative="1" as="geometry">
            <mxPoint x="340" y="1650" as="sourcePoint" />
            <mxPoint x="500" y="1650" as="targetPoint" />
          </mxGeometry>
        </mxCell>
        <mxCell id="RFZ5rJwRLSDNyrsrcom5-242" value="13" style="rounded=0;whiteSpace=wrap;html=1;shadow=0;fillColor=#dae8fc;strokeColor=#6c8ebf;" parent="1" vertex="1">
          <mxGeometry x="290" y="1735" width="50" height="50" as="geometry" />
        </mxCell>
        <mxCell id="RFZ5rJwRLSDNyrsrcom5-243" value="" style="endArrow=none;html=1;rounded=0;exitX=0.5;exitY=0;exitDx=0;exitDy=0;entryX=0.5;entryY=1;entryDx=0;entryDy=0;shadow=0;" parent="1" edge="1">
          <mxGeometry width="50" height="50" relative="1" as="geometry">
            <mxPoint x="315" y="1845" as="sourcePoint" />
            <mxPoint x="315" y="1785" as="targetPoint" />
          </mxGeometry>
        </mxCell>
        <mxCell id="RFZ5rJwRLSDNyrsrcom5-244" value="" style="endArrow=none;html=1;rounded=0;shadow=0;" parent="1" edge="1">
          <mxGeometry width="50" height="50" relative="1" as="geometry">
            <mxPoint x="300" y="1815" as="sourcePoint" />
            <mxPoint x="330" y="1815" as="targetPoint" />
          </mxGeometry>
        </mxCell>
        <mxCell id="RFZ5rJwRLSDNyrsrcom5-246" value="" style="endArrow=none;html=1;rounded=0;exitX=1;exitY=0.5;exitDx=0;exitDy=0;entryX=0;entryY=0.5;entryDx=0;entryDy=0;shadow=0;" parent="1" edge="1">
          <mxGeometry width="50" height="50" relative="1" as="geometry">
            <mxPoint x="340" y="1760" as="sourcePoint" />
            <mxPoint x="500" y="1760" as="targetPoint" />
          </mxGeometry>
        </mxCell>
        <mxCell id="RFZ5rJwRLSDNyrsrcom5-248" value="14" style="rounded=0;whiteSpace=wrap;html=1;shadow=0;" parent="1" vertex="1">
          <mxGeometry x="290" y="1845" width="50" height="50" as="geometry" />
        </mxCell>
        <mxCell id="RFZ5rJwRLSDNyrsrcom5-249" value="" style="endArrow=none;html=1;rounded=0;exitX=0.5;exitY=0;exitDx=0;exitDy=0;entryX=0.5;entryY=1;entryDx=0;entryDy=0;shadow=0;" parent="1" edge="1">
          <mxGeometry width="50" height="50" relative="1" as="geometry">
            <mxPoint x="315" y="1955" as="sourcePoint" />
            <mxPoint x="315" y="1895" as="targetPoint" />
          </mxGeometry>
        </mxCell>
        <mxCell id="RFZ5rJwRLSDNyrsrcom5-250" value="" style="endArrow=none;html=1;rounded=0;shadow=0;" parent="1" edge="1">
          <mxGeometry width="50" height="50" relative="1" as="geometry">
            <mxPoint x="300" y="1925" as="sourcePoint" />
            <mxPoint x="330" y="1925" as="targetPoint" />
          </mxGeometry>
        </mxCell>
        <mxCell id="RFZ5rJwRLSDNyrsrcom5-252" value="" style="endArrow=none;html=1;rounded=0;exitX=1;exitY=0.5;exitDx=0;exitDy=0;entryX=0;entryY=0.5;entryDx=0;entryDy=0;shadow=0;" parent="1" edge="1">
          <mxGeometry width="50" height="50" relative="1" as="geometry">
            <mxPoint x="340" y="1870" as="sourcePoint" />
            <mxPoint x="500" y="1870" as="targetPoint" />
          </mxGeometry>
        </mxCell>
        <mxCell id="RFZ5rJwRLSDNyrsrcom5-254" value="15" style="rounded=0;whiteSpace=wrap;html=1;shadow=0;" parent="1" vertex="1">
          <mxGeometry x="290" y="1955" width="50" height="50" as="geometry" />
        </mxCell>
        <mxCell id="RFZ5rJwRLSDNyrsrcom5-255" value="" style="endArrow=none;html=1;rounded=0;exitX=0.5;exitY=0;exitDx=0;exitDy=0;entryX=0.5;entryY=1;entryDx=0;entryDy=0;shadow=0;" parent="1" edge="1">
          <mxGeometry width="50" height="50" relative="1" as="geometry">
            <mxPoint x="315" y="2065" as="sourcePoint" />
            <mxPoint x="315" y="2005" as="targetPoint" />
          </mxGeometry>
        </mxCell>
        <mxCell id="RFZ5rJwRLSDNyrsrcom5-256" value="" style="endArrow=none;html=1;rounded=0;shadow=0;" parent="1" edge="1">
          <mxGeometry width="50" height="50" relative="1" as="geometry">
            <mxPoint x="300" y="2035" as="sourcePoint" />
            <mxPoint x="330" y="2035" as="targetPoint" />
          </mxGeometry>
        </mxCell>
        <mxCell id="RFZ5rJwRLSDNyrsrcom5-258" value="" style="endArrow=none;html=1;rounded=0;exitX=1;exitY=0.5;exitDx=0;exitDy=0;entryX=0;entryY=0.5;entryDx=0;entryDy=0;shadow=0;" parent="1" edge="1">
          <mxGeometry width="50" height="50" relative="1" as="geometry">
            <mxPoint x="340" y="1980" as="sourcePoint" />
            <mxPoint x="500" y="1980" as="targetPoint" />
          </mxGeometry>
        </mxCell>
        <mxCell id="RFZ5rJwRLSDNyrsrcom5-260" value="16" style="rounded=0;whiteSpace=wrap;html=1;shadow=0;" parent="1" vertex="1">
          <mxGeometry x="290" y="2065" width="50" height="50" as="geometry" />
        </mxCell>
        <mxCell id="RFZ5rJwRLSDNyrsrcom5-261" value="" style="endArrow=none;html=1;rounded=0;exitX=0.5;exitY=0;exitDx=0;exitDy=0;entryX=0.5;entryY=1;entryDx=0;entryDy=0;shadow=0;" parent="1" edge="1">
          <mxGeometry width="50" height="50" relative="1" as="geometry">
            <mxPoint x="315" y="2175" as="sourcePoint" />
            <mxPoint x="315" y="2115" as="targetPoint" />
          </mxGeometry>
        </mxCell>
        <mxCell id="RFZ5rJwRLSDNyrsrcom5-262" value="" style="endArrow=none;html=1;rounded=0;shadow=0;" parent="1" edge="1">
          <mxGeometry width="50" height="50" relative="1" as="geometry">
            <mxPoint x="300" y="2145" as="sourcePoint" />
            <mxPoint x="330" y="2145" as="targetPoint" />
          </mxGeometry>
        </mxCell>
        <mxCell id="RFZ5rJwRLSDNyrsrcom5-264" value="" style="endArrow=none;html=1;rounded=0;exitX=1;exitY=0.5;exitDx=0;exitDy=0;entryX=0;entryY=0.5;entryDx=0;entryDy=0;shadow=0;" parent="1" edge="1">
          <mxGeometry width="50" height="50" relative="1" as="geometry">
            <mxPoint x="340" y="2090" as="sourcePoint" />
            <mxPoint x="500" y="2090" as="targetPoint" />
          </mxGeometry>
        </mxCell>
        <mxCell id="RFZ5rJwRLSDNyrsrcom5-266" value="17" style="rounded=0;whiteSpace=wrap;html=1;shadow=0;" parent="1" vertex="1">
          <mxGeometry x="290" y="2175" width="50" height="50" as="geometry" />
        </mxCell>
        <mxCell id="RFZ5rJwRLSDNyrsrcom5-267" value="" style="endArrow=none;html=1;rounded=0;exitX=0.5;exitY=0;exitDx=0;exitDy=0;entryX=0.5;entryY=1;entryDx=0;entryDy=0;shadow=0;" parent="1" edge="1">
          <mxGeometry width="50" height="50" relative="1" as="geometry">
            <mxPoint x="315" y="2285" as="sourcePoint" />
            <mxPoint x="315" y="2225" as="targetPoint" />
          </mxGeometry>
        </mxCell>
        <mxCell id="RFZ5rJwRLSDNyrsrcom5-268" value="" style="endArrow=none;html=1;rounded=0;shadow=0;" parent="1" edge="1">
          <mxGeometry width="50" height="50" relative="1" as="geometry">
            <mxPoint x="300" y="2255" as="sourcePoint" />
            <mxPoint x="330" y="2255" as="targetPoint" />
          </mxGeometry>
        </mxCell>
        <mxCell id="RFZ5rJwRLSDNyrsrcom5-270" value="" style="endArrow=none;html=1;rounded=0;exitX=1;exitY=0.5;exitDx=0;exitDy=0;entryX=0;entryY=0.5;entryDx=0;entryDy=0;shadow=0;" parent="1" edge="1">
          <mxGeometry width="50" height="50" relative="1" as="geometry">
            <mxPoint x="340" y="2200" as="sourcePoint" />
            <mxPoint x="500" y="2200" as="targetPoint" />
          </mxGeometry>
        </mxCell>
        <mxCell id="RFZ5rJwRLSDNyrsrcom5-272" value="18" style="rounded=0;whiteSpace=wrap;html=1;shadow=0;" parent="1" vertex="1">
          <mxGeometry x="290" y="2285" width="50" height="50" as="geometry" />
        </mxCell>
        <mxCell id="RFZ5rJwRLSDNyrsrcom5-273" value="" style="endArrow=none;html=1;rounded=0;exitX=0.5;exitY=0;exitDx=0;exitDy=0;entryX=0.5;entryY=1;entryDx=0;entryDy=0;shadow=0;" parent="1" edge="1">
          <mxGeometry width="50" height="50" relative="1" as="geometry">
            <mxPoint x="315" y="2395" as="sourcePoint" />
            <mxPoint x="315" y="2335" as="targetPoint" />
          </mxGeometry>
        </mxCell>
        <mxCell id="RFZ5rJwRLSDNyrsrcom5-274" value="" style="endArrow=none;html=1;rounded=0;shadow=0;" parent="1" edge="1">
          <mxGeometry width="50" height="50" relative="1" as="geometry">
            <mxPoint x="300" y="2365" as="sourcePoint" />
            <mxPoint x="330" y="2365" as="targetPoint" />
          </mxGeometry>
        </mxCell>
        <mxCell id="RFZ5rJwRLSDNyrsrcom5-276" value="" style="endArrow=none;html=1;rounded=0;exitX=1;exitY=0.5;exitDx=0;exitDy=0;entryX=0;entryY=0.5;entryDx=0;entryDy=0;shadow=0;" parent="1" edge="1">
          <mxGeometry width="50" height="50" relative="1" as="geometry">
            <mxPoint x="340" y="2310" as="sourcePoint" />
            <mxPoint x="500" y="2310" as="targetPoint" />
          </mxGeometry>
        </mxCell>
        <mxCell id="RFZ5rJwRLSDNyrsrcom5-278" value="19" style="rounded=0;whiteSpace=wrap;html=1;shadow=0;" parent="1" vertex="1">
          <mxGeometry x="290" y="2395" width="50" height="50" as="geometry" />
        </mxCell>
        <mxCell id="RFZ5rJwRLSDNyrsrcom5-279" value="" style="endArrow=none;html=1;rounded=0;exitX=0.5;exitY=0;exitDx=0;exitDy=0;entryX=0.5;entryY=1;entryDx=0;entryDy=0;shadow=0;" parent="1" edge="1">
          <mxGeometry width="50" height="50" relative="1" as="geometry">
            <mxPoint x="315" y="2505" as="sourcePoint" />
            <mxPoint x="315" y="2445" as="targetPoint" />
          </mxGeometry>
        </mxCell>
        <mxCell id="RFZ5rJwRLSDNyrsrcom5-280" value="" style="endArrow=none;html=1;rounded=0;shadow=0;" parent="1" edge="1">
          <mxGeometry width="50" height="50" relative="1" as="geometry">
            <mxPoint x="300" y="2475" as="sourcePoint" />
            <mxPoint x="330" y="2475" as="targetPoint" />
          </mxGeometry>
        </mxCell>
        <mxCell id="RFZ5rJwRLSDNyrsrcom5-282" value="" style="endArrow=none;html=1;rounded=0;exitX=1;exitY=0.5;exitDx=0;exitDy=0;entryX=0;entryY=0.5;entryDx=0;entryDy=0;shadow=0;" parent="1" edge="1">
          <mxGeometry width="50" height="50" relative="1" as="geometry">
            <mxPoint x="340" y="2420" as="sourcePoint" />
            <mxPoint x="500" y="2420" as="targetPoint" />
          </mxGeometry>
        </mxCell>
        <mxCell id="RFZ5rJwRLSDNyrsrcom5-284" value="20" style="rounded=0;whiteSpace=wrap;html=1;shadow=0;" parent="1" vertex="1">
          <mxGeometry x="290" y="2505" width="50" height="50" as="geometry" />
        </mxCell>
        <mxCell id="RFZ5rJwRLSDNyrsrcom5-285" value="" style="endArrow=none;html=1;rounded=0;exitX=0.5;exitY=0;exitDx=0;exitDy=0;entryX=0.5;entryY=1;entryDx=0;entryDy=0;shadow=0;" parent="1" edge="1">
          <mxGeometry width="50" height="50" relative="1" as="geometry">
            <mxPoint x="315" y="2615" as="sourcePoint" />
            <mxPoint x="315" y="2555" as="targetPoint" />
          </mxGeometry>
        </mxCell>
        <mxCell id="RFZ5rJwRLSDNyrsrcom5-286" value="" style="endArrow=none;html=1;rounded=0;shadow=0;" parent="1" edge="1">
          <mxGeometry width="50" height="50" relative="1" as="geometry">
            <mxPoint x="300" y="2585" as="sourcePoint" />
            <mxPoint x="330" y="2585" as="targetPoint" />
          </mxGeometry>
        </mxCell>
        <mxCell id="RFZ5rJwRLSDNyrsrcom5-288" value="" style="endArrow=none;html=1;rounded=0;exitX=1;exitY=0.5;exitDx=0;exitDy=0;entryX=0;entryY=0.5;entryDx=0;entryDy=0;shadow=0;" parent="1" edge="1">
          <mxGeometry width="50" height="50" relative="1" as="geometry">
            <mxPoint x="340" y="2530" as="sourcePoint" />
            <mxPoint x="500" y="2530" as="targetPoint" />
          </mxGeometry>
        </mxCell>
        <mxCell id="RFZ5rJwRLSDNyrsrcom5-290" value="21" style="rounded=0;whiteSpace=wrap;html=1;shadow=0;" parent="1" vertex="1">
          <mxGeometry x="290" y="2615" width="50" height="50" as="geometry" />
        </mxCell>
        <mxCell id="RFZ5rJwRLSDNyrsrcom5-291" value="" style="endArrow=none;html=1;rounded=0;exitX=0.5;exitY=0;exitDx=0;exitDy=0;entryX=0.5;entryY=1;entryDx=0;entryDy=0;shadow=0;" parent="1" edge="1">
          <mxGeometry width="50" height="50" relative="1" as="geometry">
            <mxPoint x="315" y="2725" as="sourcePoint" />
            <mxPoint x="315" y="2665" as="targetPoint" />
          </mxGeometry>
        </mxCell>
        <mxCell id="RFZ5rJwRLSDNyrsrcom5-292" value="" style="endArrow=none;html=1;rounded=0;shadow=0;" parent="1" edge="1">
          <mxGeometry width="50" height="50" relative="1" as="geometry">
            <mxPoint x="300" y="2695" as="sourcePoint" />
            <mxPoint x="330" y="2695" as="targetPoint" />
          </mxGeometry>
        </mxCell>
        <mxCell id="RFZ5rJwRLSDNyrsrcom5-294" value="" style="endArrow=none;html=1;rounded=0;exitX=1;exitY=0.5;exitDx=0;exitDy=0;entryX=0;entryY=0.5;entryDx=0;entryDy=0;shadow=0;" parent="1" edge="1">
          <mxGeometry width="50" height="50" relative="1" as="geometry">
            <mxPoint x="340" y="2640" as="sourcePoint" />
            <mxPoint x="500" y="2640" as="targetPoint" />
          </mxGeometry>
        </mxCell>
        <mxCell id="RFZ5rJwRLSDNyrsrcom5-296" value="22" style="rounded=0;whiteSpace=wrap;html=1;shadow=0;" parent="1" vertex="1">
          <mxGeometry x="290" y="2725" width="50" height="50" as="geometry" />
        </mxCell>
        <mxCell id="RFZ5rJwRLSDNyrsrcom5-297" value="" style="endArrow=none;html=1;rounded=0;exitX=0.5;exitY=0;exitDx=0;exitDy=0;entryX=0.5;entryY=1;entryDx=0;entryDy=0;shadow=0;" parent="1" edge="1">
          <mxGeometry width="50" height="50" relative="1" as="geometry">
            <mxPoint x="315" y="2835" as="sourcePoint" />
            <mxPoint x="315" y="2775" as="targetPoint" />
          </mxGeometry>
        </mxCell>
        <mxCell id="RFZ5rJwRLSDNyrsrcom5-298" value="" style="endArrow=none;html=1;rounded=0;shadow=0;" parent="1" edge="1">
          <mxGeometry width="50" height="50" relative="1" as="geometry">
            <mxPoint x="300" y="2805" as="sourcePoint" />
            <mxPoint x="330" y="2805" as="targetPoint" />
          </mxGeometry>
        </mxCell>
        <mxCell id="RFZ5rJwRLSDNyrsrcom5-300" value="" style="endArrow=none;html=1;rounded=0;exitX=1;exitY=0.5;exitDx=0;exitDy=0;entryX=0;entryY=0.5;entryDx=0;entryDy=0;shadow=0;" parent="1" edge="1">
          <mxGeometry width="50" height="50" relative="1" as="geometry">
            <mxPoint x="340" y="2750" as="sourcePoint" />
            <mxPoint x="500" y="2750" as="targetPoint" />
          </mxGeometry>
        </mxCell>
        <mxCell id="RFZ5rJwRLSDNyrsrcom5-302" value="23" style="rounded=0;whiteSpace=wrap;html=1;shadow=0;" parent="1" vertex="1">
          <mxGeometry x="290" y="2835" width="50" height="50" as="geometry" />
        </mxCell>
        <mxCell id="RFZ5rJwRLSDNyrsrcom5-303" value="" style="endArrow=none;html=1;rounded=0;exitX=0.5;exitY=0;exitDx=0;exitDy=0;entryX=0.5;entryY=1;entryDx=0;entryDy=0;shadow=0;" parent="1" edge="1">
          <mxGeometry width="50" height="50" relative="1" as="geometry">
            <mxPoint x="315" y="2945" as="sourcePoint" />
            <mxPoint x="315" y="2885" as="targetPoint" />
          </mxGeometry>
        </mxCell>
        <mxCell id="RFZ5rJwRLSDNyrsrcom5-304" value="" style="endArrow=none;html=1;rounded=0;shadow=0;" parent="1" edge="1">
          <mxGeometry width="50" height="50" relative="1" as="geometry">
            <mxPoint x="300" y="2926" as="sourcePoint" />
            <mxPoint x="330" y="2926" as="targetPoint" />
          </mxGeometry>
        </mxCell>
        <mxCell id="RFZ5rJwRLSDNyrsrcom5-306" value="" style="endArrow=none;html=1;rounded=0;exitX=1;exitY=0.5;exitDx=0;exitDy=0;entryX=0;entryY=0.5;entryDx=0;entryDy=0;shadow=0;" parent="1" edge="1">
          <mxGeometry width="50" height="50" relative="1" as="geometry">
            <mxPoint x="340" y="2860" as="sourcePoint" />
            <mxPoint x="500" y="2860" as="targetPoint" />
          </mxGeometry>
        </mxCell>
        <mxCell id="RFZ5rJwRLSDNyrsrcom5-307" value="Número de piezas en almacen &amp;gt;= Lote de piezas" style="text;align=center;html=1;verticalAlign=middle;whiteSpace=wrap;rounded=0;shadow=0;" parent="1" vertex="1">
          <mxGeometry x="501" y="3045" width="110" height="50" as="geometry" />
        </mxCell>
        <mxCell id="RFZ5rJwRLSDNyrsrcom5-308" value="24" style="rounded=0;whiteSpace=wrap;html=1;shadow=0;" parent="1" vertex="1">
          <mxGeometry x="290" y="2945" width="50" height="50" as="geometry" />
        </mxCell>
        <mxCell id="RFZ5rJwRLSDNyrsrcom5-309" value="" style="endArrow=none;html=1;rounded=0;edgeStyle=orthogonalEdgeStyle;shadow=0;" parent="1" edge="1">
          <mxGeometry width="50" height="50" relative="1" as="geometry">
            <mxPoint x="483" y="3102" as="sourcePoint" />
            <mxPoint x="483" y="3017" as="targetPoint" />
          </mxGeometry>
        </mxCell>
        <mxCell id="RFZ5rJwRLSDNyrsrcom5-310" value="" style="endArrow=none;html=1;rounded=0;shadow=0;" parent="1" edge="1">
          <mxGeometry width="50" height="50" relative="1" as="geometry">
            <mxPoint x="469" y="3068" as="sourcePoint" />
            <mxPoint x="497" y="3068" as="targetPoint" />
          </mxGeometry>
        </mxCell>
        <mxCell id="RFZ5rJwRLSDNyrsrcom5-311" value="Contador de piezas ++" style="rounded=0;whiteSpace=wrap;html=1;shadow=0;" parent="1" vertex="1">
          <mxGeometry x="609" y="2945.5" width="137" height="49" as="geometry" />
        </mxCell>
        <mxCell id="RFZ5rJwRLSDNyrsrcom5-312" value="" style="endArrow=none;html=1;rounded=0;exitX=1;exitY=0.5;exitDx=0;exitDy=0;entryX=0;entryY=0.5;entryDx=0;entryDy=0;shadow=0;" parent="1" target="RFZ5rJwRLSDNyrsrcom5-311" edge="1" source="qLsSR2d72pTHVW6ahbT--14">
          <mxGeometry width="50" height="50" relative="1" as="geometry">
            <mxPoint x="340" y="2970" as="sourcePoint" />
            <mxPoint x="660" y="2965" as="targetPoint" />
          </mxGeometry>
        </mxCell>
        <mxCell id="RFZ5rJwRLSDNyrsrcom5-313" value="" style="endArrow=none;html=1;rounded=0;shadow=0;" parent="1" edge="1">
          <mxGeometry width="50" height="50" relative="1" as="geometry">
            <mxPoint x="190" y="364" as="sourcePoint" />
            <mxPoint x="490" y="3220" as="targetPoint" />
            <Array as="points">
              <mxPoint x="190" y="3220" />
            </Array>
          </mxGeometry>
        </mxCell>
        <mxCell id="RFZ5rJwRLSDNyrsrcom5-314" value="" style="endArrow=none;html=1;rounded=0;shadow=0;" parent="1" edge="1">
          <mxGeometry width="50" height="50" relative="1" as="geometry">
            <mxPoint x="190" y="369" as="sourcePoint" />
            <mxPoint x="315" y="369" as="targetPoint" />
          </mxGeometry>
        </mxCell>
        <mxCell id="RFZ5rJwRLSDNyrsrcom5-315" value="26" style="rounded=0;whiteSpace=wrap;html=1;shadow=0;" parent="1" vertex="1">
          <mxGeometry x="462" y="3101" width="50" height="50" as="geometry" />
        </mxCell>
        <mxCell id="RFZ5rJwRLSDNyrsrcom5-316" value="" style="endArrow=none;html=1;rounded=0;entryX=0.5;entryY=1;entryDx=0;entryDy=0;edgeStyle=orthogonalEdgeStyle;shadow=0;" parent="1" edge="1">
          <mxGeometry width="50" height="50" relative="1" as="geometry">
            <mxPoint x="487" y="3220" as="sourcePoint" />
            <mxPoint x="487" y="3151" as="targetPoint" />
          </mxGeometry>
        </mxCell>
        <mxCell id="RFZ5rJwRLSDNyrsrcom5-317" value="" style="endArrow=none;html=1;rounded=0;shadow=0;" parent="1" edge="1">
          <mxGeometry width="50" height="50" relative="1" as="geometry">
            <mxPoint x="472" y="3181" as="sourcePoint" />
            <mxPoint x="502" y="3181" as="targetPoint" />
          </mxGeometry>
        </mxCell>
        <mxCell id="RFZ5rJwRLSDNyrsrcom5-319" value="" style="endArrow=none;html=1;rounded=0;exitX=1;exitY=0.5;exitDx=0;exitDy=0;entryX=0;entryY=0.5;entryDx=0;entryDy=0;shadow=0;" parent="1" edge="1">
          <mxGeometry width="50" height="50" relative="1" as="geometry">
            <mxPoint x="512" y="3126" as="sourcePoint" />
            <mxPoint x="632" y="3126" as="targetPoint" />
          </mxGeometry>
        </mxCell>
        <mxCell id="RFZ5rJwRLSDNyrsrcom5-322" value="" style="endArrow=none;html=1;rounded=0;shadow=0;" parent="1" edge="1">
          <mxGeometry width="50" height="50" relative="1" as="geometry">
            <mxPoint x="294" y="3017" as="sourcePoint" />
            <mxPoint x="574.3809901646206" y="3017" as="targetPoint" />
          </mxGeometry>
        </mxCell>
        <mxCell id="RFZ5rJwRLSDNyrsrcom5-324" value="" style="endArrow=none;html=1;rounded=0;edgeStyle=orthogonalEdgeStyle;shadow=0;" parent="1" edge="1">
          <mxGeometry width="50" height="50" relative="1" as="geometry">
            <mxPoint x="220" y="378" as="sourcePoint" />
            <mxPoint x="434" y="3017" as="targetPoint" />
            <Array as="points">
              <mxPoint x="220" y="3101" />
              <mxPoint x="434" y="3101" />
            </Array>
          </mxGeometry>
        </mxCell>
        <mxCell id="RFZ5rJwRLSDNyrsrcom5-325" value="" style="endArrow=none;html=1;rounded=0;entryX=0.5;entryY=1;entryDx=0;entryDy=0;shadow=0;" parent="1" target="RFZ5rJwRLSDNyrsrcom5-308" edge="1">
          <mxGeometry width="50" height="50" relative="1" as="geometry">
            <mxPoint x="315" y="3017" as="sourcePoint" />
            <mxPoint x="380" y="2980" as="targetPoint" />
          </mxGeometry>
        </mxCell>
        <mxCell id="RFZ5rJwRLSDNyrsrcom5-326" value="" style="endArrow=none;html=1;rounded=0;shadow=0;" parent="1" edge="1">
          <mxGeometry width="50" height="50" relative="1" as="geometry">
            <mxPoint x="220" y="379" as="sourcePoint" />
            <mxPoint x="315" y="379" as="targetPoint" />
          </mxGeometry>
        </mxCell>
        <mxCell id="jxDak5o3oXSJzzIyuTsw-1" value="&lt;font style=&quot;font-size: 18px;&quot;&gt;GRAFCET de Nivel 2 Descripción Tecnológica&lt;/font&gt;" style="rounded=0;whiteSpace=wrap;html=1;" parent="1" vertex="1">
          <mxGeometry x="640" y="30" width="190" height="110" as="geometry" />
        </mxCell>
        <mxCell id="RlRDm4Yb0Nge2F0mDg9Z-6" value="Timer (Tiempo de transporte Laminas de Lavado a Corte)" style="rounded=0;whiteSpace=wrap;html=1;shadow=0;" vertex="1" parent="1">
          <mxGeometry x="500" y="635" width="151" height="60" as="geometry" />
        </mxCell>
        <mxCell id="K1hHsAeWZ1y9AyDmWPHm-4" value="Bandera Timer" style="text;align=center;html=1;verticalAlign=middle;whiteSpace=wrap;rounded=0;shadow=0;" vertex="1" parent="1">
          <mxGeometry x="350" y="700" width="112" height="30" as="geometry" />
        </mxCell>
        <mxCell id="Zz2G_J2tfOpAdxq7hqYS-2" value="Bandera Timer" style="text;align=center;html=1;verticalAlign=middle;whiteSpace=wrap;rounded=0;shadow=0;" vertex="1" parent="1">
          <mxGeometry x="358" y="1030" width="118" height="30" as="geometry" />
        </mxCell>
        <mxCell id="Zz2G_J2tfOpAdxq7hqYS-3" value="Timer (Tiempo de posicionamiento - alistamiento)" style="rounded=0;whiteSpace=wrap;html=1;shadow=0;" vertex="1" parent="1">
          <mxGeometry x="500" y="1065" width="130" height="60" as="geometry" />
        </mxCell>
        <mxCell id="Zz2G_J2tfOpAdxq7hqYS-4" value="Bandera de timer" style="text;align=center;html=1;verticalAlign=middle;whiteSpace=wrap;rounded=0;shadow=0;" vertex="1" parent="1">
          <mxGeometry x="358" y="1141" width="110" height="30" as="geometry" />
        </mxCell>
        <mxCell id="Zz2G_J2tfOpAdxq7hqYS-13" value="Timer Rutina de doblado&lt;br style=&quot;border-color: var(--border-color);&quot;&gt;(Bandera al finalizar)" style="rounded=0;whiteSpace=wrap;html=1;shadow=0;" vertex="1" parent="1">
          <mxGeometry x="500" y="1185" width="137" height="60" as="geometry" />
        </mxCell>
        <mxCell id="Zz2G_J2tfOpAdxq7hqYS-14" value="Bandera de Fin de Doblado Arriba" style="text;align=center;html=1;verticalAlign=middle;whiteSpace=wrap;rounded=0;shadow=0;" vertex="1" parent="1">
          <mxGeometry x="350" y="1255" width="110" height="30" as="geometry" />
        </mxCell>
        <mxCell id="Zz2G_J2tfOpAdxq7hqYS-15" value="Timer (Tiempo de transporte Piezas de Doblado a Pulido)" style="rounded=0;whiteSpace=wrap;html=1;shadow=0;" vertex="1" parent="1">
          <mxGeometry x="500" y="1295" width="130" height="60" as="geometry" />
        </mxCell>
        <mxCell id="Zz2G_J2tfOpAdxq7hqYS-19" value="Bandera Timer &amp;amp; Boton Inicio Pulido" style="text;align=center;html=1;verticalAlign=middle;whiteSpace=wrap;rounded=0;shadow=0;" vertex="1" parent="1">
          <mxGeometry x="358" y="1365" width="118" height="30" as="geometry" />
        </mxCell>
        <mxCell id="Zz2G_J2tfOpAdxq7hqYS-20" value="Timer Rutina de pulido&lt;br style=&quot;border-color: var(--border-color);&quot;&gt;(Bandera al finalizar)" style="rounded=0;whiteSpace=wrap;html=1;shadow=0;" vertex="1" parent="1">
          <mxGeometry x="500" y="1400" width="130" height="60" as="geometry" />
        </mxCell>
        <mxCell id="Zz2G_J2tfOpAdxq7hqYS-21" value="Bandera de Fin de Pulido Arriba" style="text;align=center;html=1;verticalAlign=middle;whiteSpace=wrap;rounded=0;shadow=0;" vertex="1" parent="1">
          <mxGeometry x="350" y="1470" width="110" height="30" as="geometry" />
        </mxCell>
        <mxCell id="Zz2G_J2tfOpAdxq7hqYS-24" value="Timer (Tiempo de transporte Piezas de Pulido a Pintado)" style="rounded=0;whiteSpace=wrap;html=1;shadow=0;" vertex="1" parent="1">
          <mxGeometry x="499" y="1515" width="130" height="60" as="geometry" />
        </mxCell>
        <mxCell id="Zz2G_J2tfOpAdxq7hqYS-26" value="Bandera de Timer" style="text;align=center;html=1;verticalAlign=middle;whiteSpace=wrap;rounded=0;shadow=0;" vertex="1" parent="1">
          <mxGeometry x="357" y="1585" width="118" height="30" as="geometry" />
        </mxCell>
        <mxCell id="Zz2G_J2tfOpAdxq7hqYS-27" value="Timer (Tiempo de posicionamiento - alistamiento) Deslizador &amp;amp;&lt;br&gt;Cerrar puertas" style="rounded=0;whiteSpace=wrap;html=1;shadow=0;" vertex="1" parent="1">
          <mxGeometry x="499" y="1620" width="145" height="60" as="geometry" />
        </mxCell>
        <mxCell id="Zz2G_J2tfOpAdxq7hqYS-28" value="Bandera de timer&lt;br&gt;&amp;amp; Sensor Puertas Celda" style="text;align=center;html=1;verticalAlign=middle;whiteSpace=wrap;rounded=0;shadow=0;" vertex="1" parent="1">
          <mxGeometry x="357" y="1696" width="119" height="30" as="geometry" />
        </mxCell>
        <mxCell id="Zz2G_J2tfOpAdxq7hqYS-29" value="Timmer Rutina de pintado&lt;br style=&quot;border-color: var(--border-color);&quot;&gt;(Bandera al finalizar)" style="rounded=0;whiteSpace=wrap;html=1;shadow=0;fillColor=#dae8fc;strokeColor=#6c8ebf;" vertex="1" parent="1">
          <mxGeometry x="499" y="1740" width="130" height="60" as="geometry" />
        </mxCell>
        <mxCell id="Zz2G_J2tfOpAdxq7hqYS-30" value="Bandera de Fin de Pintado Arriba" style="text;align=center;html=1;verticalAlign=middle;whiteSpace=wrap;rounded=0;shadow=0;fillColor=#dae8fc;strokeColor=none;" vertex="1" parent="1">
          <mxGeometry x="349" y="1810" width="110" height="30" as="geometry" />
        </mxCell>
        <mxCell id="Zz2G_J2tfOpAdxq7hqYS-32" value="Timer (Tiempo de transporte Piezas de Pintado a Horneado) &amp;amp; Abrir Puertas Celda" style="rounded=0;whiteSpace=wrap;html=1;shadow=0;" vertex="1" parent="1">
          <mxGeometry x="501" y="1845" width="157" height="60" as="geometry" />
        </mxCell>
        <mxCell id="Zz2G_J2tfOpAdxq7hqYS-34" value="Bandera Timer&lt;br&gt;&amp;amp; Horno Empty" style="text;align=center;html=1;verticalAlign=middle;whiteSpace=wrap;rounded=0;shadow=0;" vertex="1" parent="1">
          <mxGeometry x="359" y="1915" width="118" height="30" as="geometry" />
        </mxCell>
        <mxCell id="Zz2G_J2tfOpAdxq7hqYS-35" value="Timer (Tiempo de posicionamiento - alistamiento) Horno" style="rounded=0;whiteSpace=wrap;html=1;shadow=0;" vertex="1" parent="1">
          <mxGeometry x="501" y="1950" width="145" height="60" as="geometry" />
        </mxCell>
        <mxCell id="Zz2G_J2tfOpAdxq7hqYS-36" value="Bandera de timer&lt;br&gt;&amp;amp; Sensor Puerta Horno" style="text;align=center;html=1;verticalAlign=middle;whiteSpace=wrap;rounded=0;shadow=0;" vertex="1" parent="1">
          <mxGeometry x="359" y="2026" width="110" height="30" as="geometry" />
        </mxCell>
        <mxCell id="Zz2G_J2tfOpAdxq7hqYS-37" value="Timmer Rutina de Horneado&lt;br style=&quot;border-color: var(--border-color);&quot;&gt;(Bandera al finalizar)" style="rounded=0;whiteSpace=wrap;html=1;shadow=0;" vertex="1" parent="1">
          <mxGeometry x="501" y="2070" width="136" height="60" as="geometry" />
        </mxCell>
        <mxCell id="Zz2G_J2tfOpAdxq7hqYS-38" value="Bandera de Fin de Horneado Arriba" style="text;align=center;html=1;verticalAlign=middle;whiteSpace=wrap;rounded=0;shadow=0;" vertex="1" parent="1">
          <mxGeometry x="351" y="2140" width="110" height="30" as="geometry" />
        </mxCell>
        <mxCell id="Zz2G_J2tfOpAdxq7hqYS-42" value="Timer (Tiempo de transporte Piezas de Horneado a Zona de adhesivos)" style="rounded=0;whiteSpace=wrap;html=1;shadow=0;" vertex="1" parent="1">
          <mxGeometry x="501" y="2170" width="164" height="60" as="geometry" />
        </mxCell>
        <mxCell id="Zz2G_J2tfOpAdxq7hqYS-43" value="Bandera Timmer&lt;br&gt;&amp;amp; Boton de inicio" style="text;align=center;html=1;verticalAlign=middle;whiteSpace=wrap;rounded=0;shadow=0;" vertex="1" parent="1">
          <mxGeometry x="359" y="2240" width="118" height="30" as="geometry" />
        </mxCell>
        <mxCell id="Zz2G_J2tfOpAdxq7hqYS-44" value="Timmer puesta de Adhesivos (Bandera al finalizar)" style="rounded=0;whiteSpace=wrap;html=1;shadow=0;" vertex="1" parent="1">
          <mxGeometry x="501" y="2275" width="130" height="60" as="geometry" />
        </mxCell>
        <mxCell id="Zz2G_J2tfOpAdxq7hqYS-45" value="Bandera de Fin de puesta de Adhesivos Arriba" style="text;align=center;html=1;verticalAlign=middle;whiteSpace=wrap;rounded=0;shadow=0;" vertex="1" parent="1">
          <mxGeometry x="361" y="2345" width="110" height="30" as="geometry" />
        </mxCell>
        <mxCell id="Zz2G_J2tfOpAdxq7hqYS-46" value="Puesta de Adhesivos (Timer)" style="rounded=0;whiteSpace=wrap;html=1;shadow=0;" vertex="1" parent="1">
          <mxGeometry x="756" y="2275" width="130" height="60" as="geometry" />
        </mxCell>
        <mxCell id="Zz2G_J2tfOpAdxq7hqYS-47" value="Bandera de timer" style="text;align=center;html=1;verticalAlign=middle;whiteSpace=wrap;rounded=0;shadow=0;" vertex="1" parent="1">
          <mxGeometry x="766" y="2345" width="110" height="30" as="geometry" />
        </mxCell>
        <mxCell id="Zz2G_J2tfOpAdxq7hqYS-48" value="Transporte Ahdesivos hacia embalaje" style="rounded=0;whiteSpace=wrap;html=1;shadow=0;" vertex="1" parent="1">
          <mxGeometry x="499" y="2395" width="145" height="60" as="geometry" />
        </mxCell>
        <mxCell id="Zz2G_J2tfOpAdxq7hqYS-50" value="Bandera fin de Transporte (Embalaje)" style="text;align=center;html=1;verticalAlign=middle;whiteSpace=wrap;rounded=0;shadow=0;" vertex="1" parent="1">
          <mxGeometry x="357" y="2465" width="126" height="30" as="geometry" />
        </mxCell>
        <mxCell id="Zz2G_J2tfOpAdxq7hqYS-51" value="Timer (Tiempo de posicionamiento - alistamiento) Vinipeladora" style="rounded=0;whiteSpace=wrap;html=1;shadow=0;" vertex="1" parent="1">
          <mxGeometry x="499" y="2500" width="145" height="60" as="geometry" />
        </mxCell>
        <mxCell id="Zz2G_J2tfOpAdxq7hqYS-52" value="Bandera de timer" style="text;align=center;html=1;verticalAlign=middle;whiteSpace=wrap;rounded=0;shadow=0;" vertex="1" parent="1">
          <mxGeometry x="357" y="2576" width="110" height="30" as="geometry" />
        </mxCell>
        <mxCell id="Zz2G_J2tfOpAdxq7hqYS-53" value="Rutina de Embalaje&lt;br style=&quot;border-color: var(--border-color);&quot;&gt;(Bandera al finalizar)" style="rounded=0;whiteSpace=wrap;html=1;shadow=0;" vertex="1" parent="1">
          <mxGeometry x="499" y="2620" width="130" height="60" as="geometry" />
        </mxCell>
        <mxCell id="Zz2G_J2tfOpAdxq7hqYS-54" value="Bandera de Fin de Vinipelado Arriba" style="text;align=center;html=1;verticalAlign=middle;whiteSpace=wrap;rounded=0;shadow=0;" vertex="1" parent="1">
          <mxGeometry x="349" y="2690" width="110" height="30" as="geometry" />
        </mxCell>
        <mxCell id="Zz2G_J2tfOpAdxq7hqYS-59" value="Timmer rutina de Revisión de Calidad (Bandera al finalizar)" style="rounded=0;whiteSpace=wrap;html=1;shadow=0;" vertex="1" parent="1">
          <mxGeometry x="501" y="2828" width="143" height="60" as="geometry" />
        </mxCell>
        <mxCell id="Zz2G_J2tfOpAdxq7hqYS-63" value="&amp;nbsp;Timmer Rutina de Despacho&lt;br style=&quot;border-color: var(--border-color);&quot;&gt;(Bandera al finalizar)" style="rounded=0;whiteSpace=wrap;html=1;shadow=0;" vertex="1" parent="1">
          <mxGeometry x="632" y="3101" width="130" height="60" as="geometry" />
        </mxCell>
        <mxCell id="Zz2G_J2tfOpAdxq7hqYS-64" value="Bandera de Fin de&amp;nbsp;&lt;br&gt;Despacho Arriba y Nro Laminas&amp;gt;=1" style="text;align=center;html=1;verticalAlign=middle;whiteSpace=wrap;rounded=0;shadow=0;" vertex="1" parent="1">
          <mxGeometry x="512" y="3171" width="110" height="30" as="geometry" />
        </mxCell>
        <mxCell id="qLsSR2d72pTHVW6ahbT--2" value="" style="endArrow=none;html=1;rounded=0;shadow=0;" edge="1" parent="1">
          <mxGeometry width="50" height="50" relative="1" as="geometry">
            <mxPoint x="300" y="337" as="sourcePoint" />
            <mxPoint x="330" y="337" as="targetPoint" />
          </mxGeometry>
        </mxCell>
        <mxCell id="qLsSR2d72pTHVW6ahbT--3" value="" style="endArrow=none;html=1;rounded=0;shadow=0;" edge="1" parent="1">
          <mxGeometry width="50" height="50" relative="1" as="geometry">
            <mxPoint x="420" y="3068" as="sourcePoint" />
            <mxPoint x="448" y="3068" as="targetPoint" />
          </mxGeometry>
        </mxCell>
        <mxCell id="qLsSR2d72pTHVW6ahbT--5" value="&lt;span style=&quot;color: rgb(0, 0, 0); font-family: Helvetica; font-size: 12px; font-style: normal; font-variant-ligatures: normal; font-variant-caps: normal; font-weight: 400; letter-spacing: normal; orphans: 2; text-align: center; text-indent: 0px; text-transform: none; widows: 2; word-spacing: 0px; -webkit-text-stroke-width: 0px; background-color: rgb(251, 251, 251); text-decoration-thickness: initial; text-decoration-style: initial; text-decoration-color: initial; float: none; display: inline !important;&quot;&gt;Número de piezas en almacen &amp;lt; Lote de piezas&lt;br&gt;&lt;/span&gt;&amp;amp; Nro Laminas &amp;gt;=1" style="text;whiteSpace=wrap;html=1;" vertex="1" parent="1">
          <mxGeometry x="280" y="3038" width="147" height="42" as="geometry" />
        </mxCell>
        <mxCell id="qLsSR2d72pTHVW6ahbT--6" value="Bandera de timer &amp;amp; Botón Inicio Lavado" style="text;align=center;html=1;verticalAlign=middle;whiteSpace=wrap;rounded=0;shadow=0;rotation=0;" vertex="1" parent="1">
          <mxGeometry x="349" y="483" width="110" height="30" as="geometry" />
        </mxCell>
        <mxCell id="qLsSR2d72pTHVW6ahbT--11" value="Transporte Embalaje hacia Calidad" style="rounded=0;whiteSpace=wrap;html=1;shadow=0;" vertex="1" parent="1">
          <mxGeometry x="500" y="2720" width="134" height="60" as="geometry" />
        </mxCell>
        <mxCell id="qLsSR2d72pTHVW6ahbT--12" value="Bandera fin de Transporte (Calidad)" style="text;align=center;html=1;verticalAlign=middle;whiteSpace=wrap;rounded=0;shadow=0;" vertex="1" parent="1">
          <mxGeometry x="345" y="2786" width="126" height="30" as="geometry" />
        </mxCell>
        <mxCell id="qLsSR2d72pTHVW6ahbT--14" value="25" style="rounded=0;whiteSpace=wrap;html=1;shadow=0;" vertex="1" parent="1">
          <mxGeometry x="525" y="2945" width="50" height="50" as="geometry" />
        </mxCell>
        <mxCell id="qLsSR2d72pTHVW6ahbT--16" value="" style="endArrow=none;html=1;exitX=0.558;exitY=-0.006;exitDx=0;exitDy=0;exitPerimeter=0;" edge="1" parent="1" source="qLsSR2d72pTHVW6ahbT--14">
          <mxGeometry width="50" height="50" relative="1" as="geometry">
            <mxPoint x="455" y="2976" as="sourcePoint" />
            <mxPoint x="315" y="2905" as="targetPoint" />
            <Array as="points">
              <mxPoint x="553" y="2905" />
            </Array>
          </mxGeometry>
        </mxCell>
        <mxCell id="qLsSR2d72pTHVW6ahbT--17" value="" style="endArrow=none;html=1;rounded=0;shadow=0;" edge="1" parent="1">
          <mxGeometry width="50" height="50" relative="1" as="geometry">
            <mxPoint x="539.5" y="2926" as="sourcePoint" />
            <mxPoint x="569.5" y="2926" as="targetPoint" />
          </mxGeometry>
        </mxCell>
        <mxCell id="qLsSR2d72pTHVW6ahbT--20" value="Notificación en SCADA de la pieza defectuosa" style="rounded=0;whiteSpace=wrap;html=1;shadow=0;" vertex="1" parent="1">
          <mxGeometry x="364" y="2949" width="133" height="42" as="geometry" />
        </mxCell>
        <mxCell id="qLsSR2d72pTHVW6ahbT--21" value="" style="endArrow=none;html=1;rounded=0;exitX=1;exitY=0.5;exitDx=0;exitDy=0;entryX=0;entryY=0.5;entryDx=0;entryDy=0;shadow=0;" edge="1" parent="1" target="qLsSR2d72pTHVW6ahbT--20">
          <mxGeometry width="50" height="50" relative="1" as="geometry">
            <mxPoint x="340" y="2970" as="sourcePoint" />
            <mxPoint x="425" y="2965" as="targetPoint" />
          </mxGeometry>
        </mxCell>
        <mxCell id="qLsSR2d72pTHVW6ahbT--23" value="Pieza Defectuosa" style="text;align=center;html=1;verticalAlign=middle;whiteSpace=wrap;rounded=0;shadow=0;" vertex="1" parent="1">
          <mxGeometry x="336" y="2910" width="126" height="30" as="geometry" />
        </mxCell>
        <mxCell id="qLsSR2d72pTHVW6ahbT--27" value="Pieza OK" style="text;align=center;html=1;verticalAlign=middle;whiteSpace=wrap;rounded=0;shadow=0;" vertex="1" parent="1">
          <mxGeometry x="546" y="2910" width="126" height="30" as="geometry" />
        </mxCell>
        <mxCell id="qLsSR2d72pTHVW6ahbT--30" value="" style="endArrow=none;html=1;rounded=0;entryX=0.5;entryY=1;entryDx=0;entryDy=0;shadow=0;" edge="1" parent="1">
          <mxGeometry width="50" height="50" relative="1" as="geometry">
            <mxPoint x="554.32" y="3017" as="sourcePoint" />
            <mxPoint x="554.32" y="2995" as="targetPoint" />
          </mxGeometry>
        </mxCell>
      </root>
    </mxGraphModel>
  </diagram>
  <diagram id="07Loxhmk9kr3ol7hOLJP" name="Page-3">
    <mxGraphModel dx="1171" dy="414" grid="1" gridSize="7" guides="1" tooltips="1" connect="1" arrows="1" fold="1" page="1" pageScale="1" pageWidth="2339" pageHeight="3300" math="0" shadow="0">
      <root>
        <mxCell id="0" />
        <mxCell id="1" parent="0" />
        <mxCell id="wCYqZR8umJRYmcpoV3ZF-1" value="0" style="shape=ext;double=1;rounded=0;whiteSpace=wrap;html=1;shadow=0;" vertex="1" parent="1">
          <mxGeometry x="290" y="235" width="50" height="50" as="geometry" />
        </mxCell>
        <mxCell id="wCYqZR8umJRYmcpoV3ZF-2" value="Reinicio de Banderas&lt;br&gt;Actuadores a Posición inicial" style="rounded=0;whiteSpace=wrap;html=1;shadow=0;" vertex="1" parent="1">
          <mxGeometry x="500" y="230" width="120" height="60" as="geometry" />
        </mxCell>
        <mxCell id="wCYqZR8umJRYmcpoV3ZF-3" value="" style="endArrow=none;html=1;rounded=0;exitX=1;exitY=0.5;exitDx=0;exitDy=0;entryX=0;entryY=0.5;entryDx=0;entryDy=0;shadow=0;" edge="1" parent="1" source="wCYqZR8umJRYmcpoV3ZF-1" target="wCYqZR8umJRYmcpoV3ZF-2">
          <mxGeometry width="50" height="50" relative="1" as="geometry">
            <mxPoint x="610" y="350" as="sourcePoint" />
            <mxPoint x="660" y="300" as="targetPoint" />
          </mxGeometry>
        </mxCell>
        <mxCell id="wCYqZR8umJRYmcpoV3ZF-4" value="1a" style="rounded=0;whiteSpace=wrap;html=1;shadow=0;" vertex="1" parent="1">
          <mxGeometry x="290" y="415" width="50" height="50" as="geometry" />
        </mxCell>
        <mxCell id="wCYqZR8umJRYmcpoV3ZF-5" value="" style="endArrow=none;html=1;rounded=0;exitX=0.5;exitY=0;exitDx=0;exitDy=0;entryX=0.5;entryY=1;entryDx=0;entryDy=0;shadow=0;" edge="1" parent="1" source="wCYqZR8umJRYmcpoV3ZF-4" target="wCYqZR8umJRYmcpoV3ZF-1">
          <mxGeometry width="50" height="50" relative="1" as="geometry">
            <mxPoint x="610" y="375" as="sourcePoint" />
            <mxPoint x="660" y="325" as="targetPoint" />
          </mxGeometry>
        </mxCell>
        <mxCell id="wCYqZR8umJRYmcpoV3ZF-6" value="" style="endArrow=none;html=1;rounded=0;shadow=0;" edge="1" parent="1">
          <mxGeometry width="50" height="50" relative="1" as="geometry">
            <mxPoint x="300" y="385" as="sourcePoint" />
            <mxPoint x="330" y="385" as="targetPoint" />
          </mxGeometry>
        </mxCell>
        <mxCell id="wCYqZR8umJRYmcpoV3ZF-7" value="Confirmación Botón SCADA (Laminas en Almacen)" style="text;align=center;html=1;verticalAlign=middle;whiteSpace=wrap;rounded=0;shadow=0;" vertex="1" parent="1">
          <mxGeometry x="340" y="365" width="122" height="30" as="geometry" />
        </mxCell>
        <mxCell id="wCYqZR8umJRYmcpoV3ZF-8" value="" style="endArrow=none;html=1;rounded=0;exitX=0.5;exitY=0;exitDx=0;exitDy=0;entryX=0.5;entryY=1;entryDx=0;entryDy=0;shadow=0;" edge="1" parent="1">
          <mxGeometry width="50" height="50" relative="1" as="geometry">
            <mxPoint x="315" y="525" as="sourcePoint" />
            <mxPoint x="315" y="465" as="targetPoint" />
          </mxGeometry>
        </mxCell>
        <mxCell id="wCYqZR8umJRYmcpoV3ZF-9" value="" style="endArrow=none;html=1;rounded=0;shadow=0;" edge="1" parent="1">
          <mxGeometry width="50" height="50" relative="1" as="geometry">
            <mxPoint x="300" y="495" as="sourcePoint" />
            <mxPoint x="330" y="495" as="targetPoint" />
          </mxGeometry>
        </mxCell>
        <mxCell id="wCYqZR8umJRYmcpoV3ZF-10" value="Confirmación Botón SCADA (Laminas en Zona de Lavado)" style="text;align=center;html=1;verticalAlign=middle;whiteSpace=wrap;rounded=0;shadow=0;" vertex="1" parent="1">
          <mxGeometry x="350" y="475" width="112" height="30" as="geometry" />
        </mxCell>
        <mxCell id="wCYqZR8umJRYmcpoV3ZF-11" value="Timer (Tiempo de transporte Laminas de Almacen a Lavado)" style="rounded=0;whiteSpace=wrap;html=1;shadow=0;" vertex="1" parent="1">
          <mxGeometry x="500" y="410" width="151" height="60" as="geometry" />
        </mxCell>
        <mxCell id="wCYqZR8umJRYmcpoV3ZF-12" value="" style="endArrow=none;html=1;rounded=0;exitX=1;exitY=0.5;exitDx=0;exitDy=0;entryX=0;entryY=0.5;entryDx=0;entryDy=0;shadow=0;" edge="1" parent="1" target="wCYqZR8umJRYmcpoV3ZF-11">
          <mxGeometry width="50" height="50" relative="1" as="geometry">
            <mxPoint x="340" y="440" as="sourcePoint" />
            <mxPoint x="660" y="435" as="targetPoint" />
          </mxGeometry>
        </mxCell>
        <mxCell id="wCYqZR8umJRYmcpoV3ZF-13" value="2" style="rounded=0;whiteSpace=wrap;html=1;shadow=0;" vertex="1" parent="1">
          <mxGeometry x="290" y="525" width="50" height="50" as="geometry" />
        </mxCell>
        <mxCell id="wCYqZR8umJRYmcpoV3ZF-14" value="" style="endArrow=none;html=1;rounded=0;exitX=0.5;exitY=0;exitDx=0;exitDy=0;entryX=0.5;entryY=1;entryDx=0;entryDy=0;shadow=0;" edge="1" parent="1">
          <mxGeometry width="50" height="50" relative="1" as="geometry">
            <mxPoint x="315" y="635" as="sourcePoint" />
            <mxPoint x="315" y="575" as="targetPoint" />
          </mxGeometry>
        </mxCell>
        <mxCell id="wCYqZR8umJRYmcpoV3ZF-15" value="" style="endArrow=none;html=1;rounded=0;shadow=0;" edge="1" parent="1">
          <mxGeometry width="50" height="50" relative="1" as="geometry">
            <mxPoint x="300" y="605" as="sourcePoint" />
            <mxPoint x="330" y="605" as="targetPoint" />
          </mxGeometry>
        </mxCell>
        <mxCell id="wCYqZR8umJRYmcpoV3ZF-16" value="Rutina de lavado&lt;br&gt;(Bandera al finalizar)" style="rounded=0;whiteSpace=wrap;html=1;shadow=0;" vertex="1" parent="1">
          <mxGeometry x="500" y="520" width="130" height="60" as="geometry" />
        </mxCell>
        <mxCell id="wCYqZR8umJRYmcpoV3ZF-17" value="" style="endArrow=none;html=1;rounded=0;exitX=1;exitY=0.5;exitDx=0;exitDy=0;entryX=0;entryY=0.5;entryDx=0;entryDy=0;shadow=0;" edge="1" parent="1" target="wCYqZR8umJRYmcpoV3ZF-16">
          <mxGeometry width="50" height="50" relative="1" as="geometry">
            <mxPoint x="340" y="550" as="sourcePoint" />
            <mxPoint x="660" y="545" as="targetPoint" />
          </mxGeometry>
        </mxCell>
        <mxCell id="wCYqZR8umJRYmcpoV3ZF-18" value="Bandera de Fin de Lavado Arriba" style="text;align=center;html=1;verticalAlign=middle;whiteSpace=wrap;rounded=0;shadow=0;" vertex="1" parent="1">
          <mxGeometry x="350" y="590" width="110" height="30" as="geometry" />
        </mxCell>
        <mxCell id="wCYqZR8umJRYmcpoV3ZF-19" value="3" style="rounded=0;whiteSpace=wrap;html=1;shadow=0;" vertex="1" parent="1">
          <mxGeometry x="290" y="635" width="50" height="50" as="geometry" />
        </mxCell>
        <mxCell id="wCYqZR8umJRYmcpoV3ZF-20" value="" style="endArrow=none;html=1;rounded=0;exitX=0.5;exitY=0;exitDx=0;exitDy=0;entryX=0.5;entryY=1;entryDx=0;entryDy=0;shadow=0;" edge="1" parent="1">
          <mxGeometry width="50" height="50" relative="1" as="geometry">
            <mxPoint x="315" y="745" as="sourcePoint" />
            <mxPoint x="315" y="685" as="targetPoint" />
          </mxGeometry>
        </mxCell>
        <mxCell id="wCYqZR8umJRYmcpoV3ZF-21" value="" style="endArrow=none;html=1;rounded=0;shadow=0;" edge="1" parent="1">
          <mxGeometry width="50" height="50" relative="1" as="geometry">
            <mxPoint x="300" y="715" as="sourcePoint" />
            <mxPoint x="330" y="715" as="targetPoint" />
          </mxGeometry>
        </mxCell>
        <mxCell id="wCYqZR8umJRYmcpoV3ZF-22" value="" style="endArrow=none;html=1;rounded=0;exitX=1;exitY=0.5;exitDx=0;exitDy=0;entryX=0;entryY=0.5;entryDx=0;entryDy=0;shadow=0;" edge="1" parent="1">
          <mxGeometry width="50" height="50" relative="1" as="geometry">
            <mxPoint x="340" y="660" as="sourcePoint" />
            <mxPoint x="500" y="660" as="targetPoint" />
          </mxGeometry>
        </mxCell>
        <mxCell id="wCYqZR8umJRYmcpoV3ZF-23" value="4" style="rounded=0;whiteSpace=wrap;html=1;shadow=0;" vertex="1" parent="1">
          <mxGeometry x="290" y="745" width="50" height="50" as="geometry" />
        </mxCell>
        <mxCell id="wCYqZR8umJRYmcpoV3ZF-24" value="" style="endArrow=none;html=1;rounded=0;exitX=0.5;exitY=0;exitDx=0;exitDy=0;entryX=0.5;entryY=1;entryDx=0;entryDy=0;shadow=0;" edge="1" parent="1">
          <mxGeometry width="50" height="50" relative="1" as="geometry">
            <mxPoint x="315" y="855" as="sourcePoint" />
            <mxPoint x="315" y="795" as="targetPoint" />
          </mxGeometry>
        </mxCell>
        <mxCell id="wCYqZR8umJRYmcpoV3ZF-25" value="" style="endArrow=none;html=1;rounded=0;shadow=0;" edge="1" parent="1">
          <mxGeometry width="50" height="50" relative="1" as="geometry">
            <mxPoint x="300" y="825" as="sourcePoint" />
            <mxPoint x="330" y="825" as="targetPoint" />
          </mxGeometry>
        </mxCell>
        <mxCell id="wCYqZR8umJRYmcpoV3ZF-26" value="Timer (Tiempo de posicionamiento - alistamiento)" style="rounded=0;whiteSpace=wrap;html=1;shadow=0;" vertex="1" parent="1">
          <mxGeometry x="500" y="740" width="130" height="60" as="geometry" />
        </mxCell>
        <mxCell id="wCYqZR8umJRYmcpoV3ZF-27" value="" style="endArrow=none;html=1;rounded=0;exitX=1;exitY=0.5;exitDx=0;exitDy=0;entryX=0;entryY=0.5;entryDx=0;entryDy=0;shadow=0;" edge="1" parent="1" target="wCYqZR8umJRYmcpoV3ZF-26">
          <mxGeometry width="50" height="50" relative="1" as="geometry">
            <mxPoint x="340" y="770" as="sourcePoint" />
            <mxPoint x="660" y="765" as="targetPoint" />
          </mxGeometry>
        </mxCell>
        <mxCell id="wCYqZR8umJRYmcpoV3ZF-28" value="Bandera de timer" style="text;align=center;html=1;verticalAlign=middle;whiteSpace=wrap;rounded=0;shadow=0;" vertex="1" parent="1">
          <mxGeometry x="350" y="810" width="110" height="30" as="geometry" />
        </mxCell>
        <mxCell id="wCYqZR8umJRYmcpoV3ZF-29" value="5" style="rounded=0;whiteSpace=wrap;html=1;shadow=0;" vertex="1" parent="1">
          <mxGeometry x="290" y="855" width="50" height="50" as="geometry" />
        </mxCell>
        <mxCell id="wCYqZR8umJRYmcpoV3ZF-30" value="" style="endArrow=none;html=1;rounded=0;exitX=0.5;exitY=0;exitDx=0;exitDy=0;entryX=0.5;entryY=1;entryDx=0;entryDy=0;shadow=0;" edge="1" parent="1">
          <mxGeometry width="50" height="50" relative="1" as="geometry">
            <mxPoint x="315" y="965" as="sourcePoint" />
            <mxPoint x="315" y="905" as="targetPoint" />
          </mxGeometry>
        </mxCell>
        <mxCell id="wCYqZR8umJRYmcpoV3ZF-31" value="" style="endArrow=none;html=1;rounded=0;shadow=0;" edge="1" parent="1">
          <mxGeometry width="50" height="50" relative="1" as="geometry">
            <mxPoint x="300" y="935" as="sourcePoint" />
            <mxPoint x="330" y="935" as="targetPoint" />
          </mxGeometry>
        </mxCell>
        <mxCell id="wCYqZR8umJRYmcpoV3ZF-32" value="Rutina de corte&lt;br style=&quot;border-color: var(--border-color);&quot;&gt;(Bandera al finalizar)" style="rounded=0;whiteSpace=wrap;html=1;shadow=0;" vertex="1" parent="1">
          <mxGeometry x="500" y="850" width="130" height="60" as="geometry" />
        </mxCell>
        <mxCell id="wCYqZR8umJRYmcpoV3ZF-33" value="" style="endArrow=none;html=1;rounded=0;exitX=1;exitY=0.5;exitDx=0;exitDy=0;entryX=0;entryY=0.5;entryDx=0;entryDy=0;shadow=0;" edge="1" parent="1" target="wCYqZR8umJRYmcpoV3ZF-32">
          <mxGeometry width="50" height="50" relative="1" as="geometry">
            <mxPoint x="340" y="880" as="sourcePoint" />
            <mxPoint x="660" y="875" as="targetPoint" />
          </mxGeometry>
        </mxCell>
        <mxCell id="wCYqZR8umJRYmcpoV3ZF-34" value="Bandera de Fin de Corte Arriba" style="text;align=center;html=1;verticalAlign=middle;whiteSpace=wrap;rounded=0;shadow=0;" vertex="1" parent="1">
          <mxGeometry x="350" y="920" width="110" height="30" as="geometry" />
        </mxCell>
        <mxCell id="wCYqZR8umJRYmcpoV3ZF-35" value="6" style="rounded=0;whiteSpace=wrap;html=1;shadow=0;" vertex="1" parent="1">
          <mxGeometry x="290" y="965" width="50" height="50" as="geometry" />
        </mxCell>
        <mxCell id="wCYqZR8umJRYmcpoV3ZF-36" value="" style="endArrow=none;html=1;rounded=0;exitX=0.5;exitY=0;exitDx=0;exitDy=0;entryX=0.5;entryY=1;entryDx=0;entryDy=0;shadow=0;" edge="1" parent="1">
          <mxGeometry width="50" height="50" relative="1" as="geometry">
            <mxPoint x="315" y="1075" as="sourcePoint" />
            <mxPoint x="315" y="1015" as="targetPoint" />
          </mxGeometry>
        </mxCell>
        <mxCell id="wCYqZR8umJRYmcpoV3ZF-37" value="" style="endArrow=none;html=1;rounded=0;shadow=0;" edge="1" parent="1">
          <mxGeometry width="50" height="50" relative="1" as="geometry">
            <mxPoint x="300" y="1045" as="sourcePoint" />
            <mxPoint x="330" y="1045" as="targetPoint" />
          </mxGeometry>
        </mxCell>
        <mxCell id="wCYqZR8umJRYmcpoV3ZF-38" value="Timer (Tiempo de transporte Laminas de Corte a Doblado)" style="rounded=0;whiteSpace=wrap;html=1;shadow=0;" vertex="1" parent="1">
          <mxGeometry x="500" y="960" width="130" height="60" as="geometry" />
        </mxCell>
        <mxCell id="wCYqZR8umJRYmcpoV3ZF-39" value="" style="endArrow=none;html=1;rounded=0;exitX=1;exitY=0.5;exitDx=0;exitDy=0;entryX=0;entryY=0.5;entryDx=0;entryDy=0;shadow=0;" edge="1" parent="1" target="wCYqZR8umJRYmcpoV3ZF-38">
          <mxGeometry width="50" height="50" relative="1" as="geometry">
            <mxPoint x="340" y="990" as="sourcePoint" />
            <mxPoint x="660" y="985" as="targetPoint" />
          </mxGeometry>
        </mxCell>
        <mxCell id="wCYqZR8umJRYmcpoV3ZF-40" value="7" style="rounded=0;whiteSpace=wrap;html=1;shadow=0;" vertex="1" parent="1">
          <mxGeometry x="290" y="1075" width="50" height="50" as="geometry" />
        </mxCell>
        <mxCell id="wCYqZR8umJRYmcpoV3ZF-41" value="" style="endArrow=none;html=1;rounded=0;exitX=0.5;exitY=0;exitDx=0;exitDy=0;entryX=0.5;entryY=1;entryDx=0;entryDy=0;shadow=0;" edge="1" parent="1">
          <mxGeometry width="50" height="50" relative="1" as="geometry">
            <mxPoint x="315" y="1185" as="sourcePoint" />
            <mxPoint x="315" y="1125" as="targetPoint" />
          </mxGeometry>
        </mxCell>
        <mxCell id="wCYqZR8umJRYmcpoV3ZF-42" value="" style="endArrow=none;html=1;rounded=0;shadow=0;" edge="1" parent="1">
          <mxGeometry width="50" height="50" relative="1" as="geometry">
            <mxPoint x="300" y="1155" as="sourcePoint" />
            <mxPoint x="330" y="1155" as="targetPoint" />
          </mxGeometry>
        </mxCell>
        <mxCell id="wCYqZR8umJRYmcpoV3ZF-43" value="" style="endArrow=none;html=1;rounded=0;exitX=1;exitY=0.5;exitDx=0;exitDy=0;entryX=0;entryY=0.5;entryDx=0;entryDy=0;shadow=0;" edge="1" parent="1">
          <mxGeometry width="50" height="50" relative="1" as="geometry">
            <mxPoint x="340" y="1100" as="sourcePoint" />
            <mxPoint x="500" y="1100" as="targetPoint" />
          </mxGeometry>
        </mxCell>
        <mxCell id="wCYqZR8umJRYmcpoV3ZF-44" value="8" style="rounded=0;whiteSpace=wrap;html=1;shadow=0;" vertex="1" parent="1">
          <mxGeometry x="290" y="1185" width="50" height="50" as="geometry" />
        </mxCell>
        <mxCell id="wCYqZR8umJRYmcpoV3ZF-45" value="" style="endArrow=none;html=1;rounded=0;exitX=0.5;exitY=0;exitDx=0;exitDy=0;entryX=0.5;entryY=1;entryDx=0;entryDy=0;shadow=0;" edge="1" parent="1">
          <mxGeometry width="50" height="50" relative="1" as="geometry">
            <mxPoint x="315" y="1295" as="sourcePoint" />
            <mxPoint x="315" y="1235" as="targetPoint" />
          </mxGeometry>
        </mxCell>
        <mxCell id="wCYqZR8umJRYmcpoV3ZF-46" value="" style="endArrow=none;html=1;rounded=0;shadow=0;" edge="1" parent="1">
          <mxGeometry width="50" height="50" relative="1" as="geometry">
            <mxPoint x="300" y="1265" as="sourcePoint" />
            <mxPoint x="330" y="1265" as="targetPoint" />
          </mxGeometry>
        </mxCell>
        <mxCell id="wCYqZR8umJRYmcpoV3ZF-47" value="" style="endArrow=none;html=1;rounded=0;exitX=1;exitY=0.5;exitDx=0;exitDy=0;entryX=0;entryY=0.5;entryDx=0;entryDy=0;shadow=0;" edge="1" parent="1">
          <mxGeometry width="50" height="50" relative="1" as="geometry">
            <mxPoint x="340" y="1210" as="sourcePoint" />
            <mxPoint x="500" y="1210" as="targetPoint" />
          </mxGeometry>
        </mxCell>
        <mxCell id="wCYqZR8umJRYmcpoV3ZF-48" value="9" style="rounded=0;whiteSpace=wrap;html=1;shadow=0;" vertex="1" parent="1">
          <mxGeometry x="290" y="1295" width="50" height="50" as="geometry" />
        </mxCell>
        <mxCell id="wCYqZR8umJRYmcpoV3ZF-49" value="" style="endArrow=none;html=1;rounded=0;exitX=0.5;exitY=0;exitDx=0;exitDy=0;entryX=0.5;entryY=1;entryDx=0;entryDy=0;shadow=0;" edge="1" parent="1">
          <mxGeometry width="50" height="50" relative="1" as="geometry">
            <mxPoint x="315" y="1405" as="sourcePoint" />
            <mxPoint x="315" y="1345" as="targetPoint" />
          </mxGeometry>
        </mxCell>
        <mxCell id="wCYqZR8umJRYmcpoV3ZF-50" value="" style="endArrow=none;html=1;rounded=0;shadow=0;" edge="1" parent="1">
          <mxGeometry width="50" height="50" relative="1" as="geometry">
            <mxPoint x="300" y="1375" as="sourcePoint" />
            <mxPoint x="330" y="1375" as="targetPoint" />
          </mxGeometry>
        </mxCell>
        <mxCell id="wCYqZR8umJRYmcpoV3ZF-51" value="" style="endArrow=none;html=1;rounded=0;exitX=1;exitY=0.5;exitDx=0;exitDy=0;entryX=0;entryY=0.5;entryDx=0;entryDy=0;shadow=0;" edge="1" parent="1">
          <mxGeometry width="50" height="50" relative="1" as="geometry">
            <mxPoint x="340" y="1320" as="sourcePoint" />
            <mxPoint x="500" y="1320" as="targetPoint" />
          </mxGeometry>
        </mxCell>
        <mxCell id="wCYqZR8umJRYmcpoV3ZF-52" value="10" style="rounded=0;whiteSpace=wrap;html=1;shadow=0;" vertex="1" parent="1">
          <mxGeometry x="290" y="1405" width="50" height="50" as="geometry" />
        </mxCell>
        <mxCell id="wCYqZR8umJRYmcpoV3ZF-53" value="" style="endArrow=none;html=1;rounded=0;exitX=0.5;exitY=0;exitDx=0;exitDy=0;entryX=0.5;entryY=1;entryDx=0;entryDy=0;shadow=0;" edge="1" parent="1">
          <mxGeometry width="50" height="50" relative="1" as="geometry">
            <mxPoint x="315" y="1515" as="sourcePoint" />
            <mxPoint x="315" y="1455" as="targetPoint" />
          </mxGeometry>
        </mxCell>
        <mxCell id="wCYqZR8umJRYmcpoV3ZF-54" value="" style="endArrow=none;html=1;rounded=0;shadow=0;" edge="1" parent="1">
          <mxGeometry width="50" height="50" relative="1" as="geometry">
            <mxPoint x="300" y="1485" as="sourcePoint" />
            <mxPoint x="330" y="1485" as="targetPoint" />
          </mxGeometry>
        </mxCell>
        <mxCell id="wCYqZR8umJRYmcpoV3ZF-55" value="" style="endArrow=none;html=1;rounded=0;exitX=1;exitY=0.5;exitDx=0;exitDy=0;entryX=0;entryY=0.5;entryDx=0;entryDy=0;shadow=0;" edge="1" parent="1">
          <mxGeometry width="50" height="50" relative="1" as="geometry">
            <mxPoint x="340" y="1430" as="sourcePoint" />
            <mxPoint x="500" y="1430" as="targetPoint" />
          </mxGeometry>
        </mxCell>
        <mxCell id="wCYqZR8umJRYmcpoV3ZF-56" value="11" style="rounded=0;whiteSpace=wrap;html=1;shadow=0;" vertex="1" parent="1">
          <mxGeometry x="290" y="1515" width="50" height="50" as="geometry" />
        </mxCell>
        <mxCell id="wCYqZR8umJRYmcpoV3ZF-57" value="" style="endArrow=none;html=1;rounded=0;exitX=0.5;exitY=0;exitDx=0;exitDy=0;entryX=0.5;entryY=1;entryDx=0;entryDy=0;shadow=0;" edge="1" parent="1">
          <mxGeometry width="50" height="50" relative="1" as="geometry">
            <mxPoint x="315" y="1625" as="sourcePoint" />
            <mxPoint x="315" y="1565" as="targetPoint" />
          </mxGeometry>
        </mxCell>
        <mxCell id="wCYqZR8umJRYmcpoV3ZF-58" value="" style="endArrow=none;html=1;rounded=0;shadow=0;" edge="1" parent="1">
          <mxGeometry width="50" height="50" relative="1" as="geometry">
            <mxPoint x="300" y="1595" as="sourcePoint" />
            <mxPoint x="330" y="1595" as="targetPoint" />
          </mxGeometry>
        </mxCell>
        <mxCell id="wCYqZR8umJRYmcpoV3ZF-59" value="" style="endArrow=none;html=1;rounded=0;exitX=1;exitY=0.5;exitDx=0;exitDy=0;entryX=0;entryY=0.5;entryDx=0;entryDy=0;shadow=0;" edge="1" parent="1">
          <mxGeometry width="50" height="50" relative="1" as="geometry">
            <mxPoint x="340" y="1540" as="sourcePoint" />
            <mxPoint x="500" y="1540" as="targetPoint" />
          </mxGeometry>
        </mxCell>
        <mxCell id="wCYqZR8umJRYmcpoV3ZF-60" value="12" style="rounded=0;whiteSpace=wrap;html=1;shadow=0;" vertex="1" parent="1">
          <mxGeometry x="290" y="1625" width="50" height="50" as="geometry" />
        </mxCell>
        <mxCell id="wCYqZR8umJRYmcpoV3ZF-61" value="" style="endArrow=none;html=1;rounded=0;exitX=0.5;exitY=0;exitDx=0;exitDy=0;entryX=0.5;entryY=1;entryDx=0;entryDy=0;shadow=0;" edge="1" parent="1">
          <mxGeometry width="50" height="50" relative="1" as="geometry">
            <mxPoint x="315" y="1735" as="sourcePoint" />
            <mxPoint x="315" y="1675" as="targetPoint" />
          </mxGeometry>
        </mxCell>
        <mxCell id="wCYqZR8umJRYmcpoV3ZF-62" value="" style="endArrow=none;html=1;rounded=0;shadow=0;" edge="1" parent="1">
          <mxGeometry width="50" height="50" relative="1" as="geometry">
            <mxPoint x="300" y="1705" as="sourcePoint" />
            <mxPoint x="330" y="1705" as="targetPoint" />
          </mxGeometry>
        </mxCell>
        <mxCell id="wCYqZR8umJRYmcpoV3ZF-63" value="" style="endArrow=none;html=1;rounded=0;exitX=1;exitY=0.5;exitDx=0;exitDy=0;entryX=0;entryY=0.5;entryDx=0;entryDy=0;shadow=0;" edge="1" parent="1">
          <mxGeometry width="50" height="50" relative="1" as="geometry">
            <mxPoint x="340" y="1650" as="sourcePoint" />
            <mxPoint x="500" y="1650" as="targetPoint" />
          </mxGeometry>
        </mxCell>
        <mxCell id="wCYqZR8umJRYmcpoV3ZF-64" value="13" style="rounded=0;whiteSpace=wrap;html=1;shadow=0;" vertex="1" parent="1">
          <mxGeometry x="290" y="1735" width="50" height="50" as="geometry" />
        </mxCell>
        <mxCell id="wCYqZR8umJRYmcpoV3ZF-65" value="" style="endArrow=none;html=1;rounded=0;exitX=0.5;exitY=0;exitDx=0;exitDy=0;entryX=0.5;entryY=1;entryDx=0;entryDy=0;shadow=0;" edge="1" parent="1">
          <mxGeometry width="50" height="50" relative="1" as="geometry">
            <mxPoint x="315" y="1845" as="sourcePoint" />
            <mxPoint x="315" y="1785" as="targetPoint" />
          </mxGeometry>
        </mxCell>
        <mxCell id="wCYqZR8umJRYmcpoV3ZF-66" value="" style="endArrow=none;html=1;rounded=0;shadow=0;" edge="1" parent="1">
          <mxGeometry width="50" height="50" relative="1" as="geometry">
            <mxPoint x="300" y="1815" as="sourcePoint" />
            <mxPoint x="330" y="1815" as="targetPoint" />
          </mxGeometry>
        </mxCell>
        <mxCell id="wCYqZR8umJRYmcpoV3ZF-67" value="" style="endArrow=none;html=1;rounded=0;exitX=1;exitY=0.5;exitDx=0;exitDy=0;entryX=0;entryY=0.5;entryDx=0;entryDy=0;shadow=0;" edge="1" parent="1">
          <mxGeometry width="50" height="50" relative="1" as="geometry">
            <mxPoint x="340" y="1760" as="sourcePoint" />
            <mxPoint x="500" y="1760" as="targetPoint" />
          </mxGeometry>
        </mxCell>
        <mxCell id="wCYqZR8umJRYmcpoV3ZF-68" value="14" style="rounded=0;whiteSpace=wrap;html=1;shadow=0;" vertex="1" parent="1">
          <mxGeometry x="290" y="1845" width="50" height="50" as="geometry" />
        </mxCell>
        <mxCell id="wCYqZR8umJRYmcpoV3ZF-69" value="" style="endArrow=none;html=1;rounded=0;exitX=0.5;exitY=0;exitDx=0;exitDy=0;entryX=0.5;entryY=1;entryDx=0;entryDy=0;shadow=0;" edge="1" parent="1">
          <mxGeometry width="50" height="50" relative="1" as="geometry">
            <mxPoint x="315" y="1955" as="sourcePoint" />
            <mxPoint x="315" y="1895" as="targetPoint" />
          </mxGeometry>
        </mxCell>
        <mxCell id="wCYqZR8umJRYmcpoV3ZF-70" value="" style="endArrow=none;html=1;rounded=0;shadow=0;" edge="1" parent="1">
          <mxGeometry width="50" height="50" relative="1" as="geometry">
            <mxPoint x="300" y="1925" as="sourcePoint" />
            <mxPoint x="330" y="1925" as="targetPoint" />
          </mxGeometry>
        </mxCell>
        <mxCell id="wCYqZR8umJRYmcpoV3ZF-71" value="" style="endArrow=none;html=1;rounded=0;exitX=1;exitY=0.5;exitDx=0;exitDy=0;entryX=0;entryY=0.5;entryDx=0;entryDy=0;shadow=0;" edge="1" parent="1">
          <mxGeometry width="50" height="50" relative="1" as="geometry">
            <mxPoint x="340" y="1870" as="sourcePoint" />
            <mxPoint x="500" y="1870" as="targetPoint" />
          </mxGeometry>
        </mxCell>
        <mxCell id="wCYqZR8umJRYmcpoV3ZF-72" value="15" style="rounded=0;whiteSpace=wrap;html=1;shadow=0;" vertex="1" parent="1">
          <mxGeometry x="290" y="1955" width="50" height="50" as="geometry" />
        </mxCell>
        <mxCell id="wCYqZR8umJRYmcpoV3ZF-73" value="" style="endArrow=none;html=1;rounded=0;exitX=0.5;exitY=0;exitDx=0;exitDy=0;entryX=0.5;entryY=1;entryDx=0;entryDy=0;shadow=0;" edge="1" parent="1">
          <mxGeometry width="50" height="50" relative="1" as="geometry">
            <mxPoint x="315" y="2065" as="sourcePoint" />
            <mxPoint x="315" y="2005" as="targetPoint" />
          </mxGeometry>
        </mxCell>
        <mxCell id="wCYqZR8umJRYmcpoV3ZF-74" value="" style="endArrow=none;html=1;rounded=0;shadow=0;" edge="1" parent="1">
          <mxGeometry width="50" height="50" relative="1" as="geometry">
            <mxPoint x="300" y="2035" as="sourcePoint" />
            <mxPoint x="330" y="2035" as="targetPoint" />
          </mxGeometry>
        </mxCell>
        <mxCell id="wCYqZR8umJRYmcpoV3ZF-75" value="" style="endArrow=none;html=1;rounded=0;exitX=1;exitY=0.5;exitDx=0;exitDy=0;entryX=0;entryY=0.5;entryDx=0;entryDy=0;shadow=0;" edge="1" parent="1">
          <mxGeometry width="50" height="50" relative="1" as="geometry">
            <mxPoint x="340" y="1980" as="sourcePoint" />
            <mxPoint x="500" y="1980" as="targetPoint" />
          </mxGeometry>
        </mxCell>
        <mxCell id="wCYqZR8umJRYmcpoV3ZF-76" value="16" style="rounded=0;whiteSpace=wrap;html=1;shadow=0;" vertex="1" parent="1">
          <mxGeometry x="290" y="2065" width="50" height="50" as="geometry" />
        </mxCell>
        <mxCell id="wCYqZR8umJRYmcpoV3ZF-77" value="" style="endArrow=none;html=1;rounded=0;exitX=0.5;exitY=0;exitDx=0;exitDy=0;entryX=0.5;entryY=1;entryDx=0;entryDy=0;shadow=0;" edge="1" parent="1">
          <mxGeometry width="50" height="50" relative="1" as="geometry">
            <mxPoint x="315" y="2175" as="sourcePoint" />
            <mxPoint x="315" y="2115" as="targetPoint" />
          </mxGeometry>
        </mxCell>
        <mxCell id="wCYqZR8umJRYmcpoV3ZF-78" value="" style="endArrow=none;html=1;rounded=0;shadow=0;" edge="1" parent="1">
          <mxGeometry width="50" height="50" relative="1" as="geometry">
            <mxPoint x="300" y="2145" as="sourcePoint" />
            <mxPoint x="330" y="2145" as="targetPoint" />
          </mxGeometry>
        </mxCell>
        <mxCell id="wCYqZR8umJRYmcpoV3ZF-79" value="" style="endArrow=none;html=1;rounded=0;exitX=1;exitY=0.5;exitDx=0;exitDy=0;entryX=0;entryY=0.5;entryDx=0;entryDy=0;shadow=0;" edge="1" parent="1">
          <mxGeometry width="50" height="50" relative="1" as="geometry">
            <mxPoint x="340" y="2090" as="sourcePoint" />
            <mxPoint x="500" y="2090" as="targetPoint" />
          </mxGeometry>
        </mxCell>
        <mxCell id="wCYqZR8umJRYmcpoV3ZF-80" value="17" style="rounded=0;whiteSpace=wrap;html=1;shadow=0;" vertex="1" parent="1">
          <mxGeometry x="290" y="2175" width="50" height="50" as="geometry" />
        </mxCell>
        <mxCell id="wCYqZR8umJRYmcpoV3ZF-81" value="" style="endArrow=none;html=1;rounded=0;exitX=0.5;exitY=0;exitDx=0;exitDy=0;entryX=0.5;entryY=1;entryDx=0;entryDy=0;shadow=0;" edge="1" parent="1">
          <mxGeometry width="50" height="50" relative="1" as="geometry">
            <mxPoint x="315" y="2285" as="sourcePoint" />
            <mxPoint x="315" y="2225" as="targetPoint" />
          </mxGeometry>
        </mxCell>
        <mxCell id="wCYqZR8umJRYmcpoV3ZF-82" value="" style="endArrow=none;html=1;rounded=0;shadow=0;" edge="1" parent="1">
          <mxGeometry width="50" height="50" relative="1" as="geometry">
            <mxPoint x="300" y="2255" as="sourcePoint" />
            <mxPoint x="330" y="2255" as="targetPoint" />
          </mxGeometry>
        </mxCell>
        <mxCell id="wCYqZR8umJRYmcpoV3ZF-83" value="" style="endArrow=none;html=1;rounded=0;exitX=1;exitY=0.5;exitDx=0;exitDy=0;entryX=0;entryY=0.5;entryDx=0;entryDy=0;shadow=0;" edge="1" parent="1">
          <mxGeometry width="50" height="50" relative="1" as="geometry">
            <mxPoint x="340" y="2200" as="sourcePoint" />
            <mxPoint x="500" y="2200" as="targetPoint" />
          </mxGeometry>
        </mxCell>
        <mxCell id="wCYqZR8umJRYmcpoV3ZF-84" value="18" style="rounded=0;whiteSpace=wrap;html=1;shadow=0;" vertex="1" parent="1">
          <mxGeometry x="290" y="2285" width="50" height="50" as="geometry" />
        </mxCell>
        <mxCell id="wCYqZR8umJRYmcpoV3ZF-85" value="" style="endArrow=none;html=1;rounded=0;exitX=0.5;exitY=0;exitDx=0;exitDy=0;entryX=0.5;entryY=1;entryDx=0;entryDy=0;shadow=0;" edge="1" parent="1">
          <mxGeometry width="50" height="50" relative="1" as="geometry">
            <mxPoint x="315" y="2395" as="sourcePoint" />
            <mxPoint x="315" y="2335" as="targetPoint" />
          </mxGeometry>
        </mxCell>
        <mxCell id="wCYqZR8umJRYmcpoV3ZF-86" value="" style="endArrow=none;html=1;rounded=0;shadow=0;" edge="1" parent="1">
          <mxGeometry width="50" height="50" relative="1" as="geometry">
            <mxPoint x="300" y="2365" as="sourcePoint" />
            <mxPoint x="330" y="2365" as="targetPoint" />
          </mxGeometry>
        </mxCell>
        <mxCell id="wCYqZR8umJRYmcpoV3ZF-87" value="" style="endArrow=none;html=1;rounded=0;exitX=1;exitY=0.5;exitDx=0;exitDy=0;entryX=0;entryY=0.5;entryDx=0;entryDy=0;shadow=0;" edge="1" parent="1">
          <mxGeometry width="50" height="50" relative="1" as="geometry">
            <mxPoint x="340" y="2310" as="sourcePoint" />
            <mxPoint x="500" y="2310" as="targetPoint" />
          </mxGeometry>
        </mxCell>
        <mxCell id="wCYqZR8umJRYmcpoV3ZF-88" value="19" style="rounded=0;whiteSpace=wrap;html=1;shadow=0;" vertex="1" parent="1">
          <mxGeometry x="290" y="2395" width="50" height="50" as="geometry" />
        </mxCell>
        <mxCell id="wCYqZR8umJRYmcpoV3ZF-89" value="" style="endArrow=none;html=1;rounded=0;exitX=0.5;exitY=0;exitDx=0;exitDy=0;entryX=0.5;entryY=1;entryDx=0;entryDy=0;shadow=0;" edge="1" parent="1">
          <mxGeometry width="50" height="50" relative="1" as="geometry">
            <mxPoint x="315" y="2505" as="sourcePoint" />
            <mxPoint x="315" y="2445" as="targetPoint" />
          </mxGeometry>
        </mxCell>
        <mxCell id="wCYqZR8umJRYmcpoV3ZF-90" value="" style="endArrow=none;html=1;rounded=0;shadow=0;" edge="1" parent="1">
          <mxGeometry width="50" height="50" relative="1" as="geometry">
            <mxPoint x="300" y="2475" as="sourcePoint" />
            <mxPoint x="330" y="2475" as="targetPoint" />
          </mxGeometry>
        </mxCell>
        <mxCell id="wCYqZR8umJRYmcpoV3ZF-91" value="" style="endArrow=none;html=1;rounded=0;exitX=1;exitY=0.5;exitDx=0;exitDy=0;entryX=0;entryY=0.5;entryDx=0;entryDy=0;shadow=0;" edge="1" parent="1">
          <mxGeometry width="50" height="50" relative="1" as="geometry">
            <mxPoint x="340" y="2420" as="sourcePoint" />
            <mxPoint x="500" y="2420" as="targetPoint" />
          </mxGeometry>
        </mxCell>
        <mxCell id="wCYqZR8umJRYmcpoV3ZF-92" value="20" style="rounded=0;whiteSpace=wrap;html=1;shadow=0;" vertex="1" parent="1">
          <mxGeometry x="290" y="2505" width="50" height="50" as="geometry" />
        </mxCell>
        <mxCell id="wCYqZR8umJRYmcpoV3ZF-93" value="" style="endArrow=none;html=1;rounded=0;exitX=0.5;exitY=0;exitDx=0;exitDy=0;entryX=0.5;entryY=1;entryDx=0;entryDy=0;shadow=0;" edge="1" parent="1">
          <mxGeometry width="50" height="50" relative="1" as="geometry">
            <mxPoint x="315" y="2615" as="sourcePoint" />
            <mxPoint x="315" y="2555" as="targetPoint" />
          </mxGeometry>
        </mxCell>
        <mxCell id="wCYqZR8umJRYmcpoV3ZF-94" value="" style="endArrow=none;html=1;rounded=0;shadow=0;" edge="1" parent="1">
          <mxGeometry width="50" height="50" relative="1" as="geometry">
            <mxPoint x="300" y="2585" as="sourcePoint" />
            <mxPoint x="330" y="2585" as="targetPoint" />
          </mxGeometry>
        </mxCell>
        <mxCell id="wCYqZR8umJRYmcpoV3ZF-95" value="" style="endArrow=none;html=1;rounded=0;exitX=1;exitY=0.5;exitDx=0;exitDy=0;entryX=0;entryY=0.5;entryDx=0;entryDy=0;shadow=0;" edge="1" parent="1">
          <mxGeometry width="50" height="50" relative="1" as="geometry">
            <mxPoint x="340" y="2530" as="sourcePoint" />
            <mxPoint x="500" y="2530" as="targetPoint" />
          </mxGeometry>
        </mxCell>
        <mxCell id="wCYqZR8umJRYmcpoV3ZF-96" value="21" style="rounded=0;whiteSpace=wrap;html=1;shadow=0;" vertex="1" parent="1">
          <mxGeometry x="290" y="2615" width="50" height="50" as="geometry" />
        </mxCell>
        <mxCell id="wCYqZR8umJRYmcpoV3ZF-97" value="" style="endArrow=none;html=1;rounded=0;exitX=0.5;exitY=0;exitDx=0;exitDy=0;entryX=0.5;entryY=1;entryDx=0;entryDy=0;shadow=0;" edge="1" parent="1">
          <mxGeometry width="50" height="50" relative="1" as="geometry">
            <mxPoint x="315" y="2725" as="sourcePoint" />
            <mxPoint x="315" y="2665" as="targetPoint" />
          </mxGeometry>
        </mxCell>
        <mxCell id="wCYqZR8umJRYmcpoV3ZF-98" value="" style="endArrow=none;html=1;rounded=0;shadow=0;" edge="1" parent="1">
          <mxGeometry width="50" height="50" relative="1" as="geometry">
            <mxPoint x="300" y="2695" as="sourcePoint" />
            <mxPoint x="330" y="2695" as="targetPoint" />
          </mxGeometry>
        </mxCell>
        <mxCell id="wCYqZR8umJRYmcpoV3ZF-99" value="" style="endArrow=none;html=1;rounded=0;exitX=1;exitY=0.5;exitDx=0;exitDy=0;entryX=0;entryY=0.5;entryDx=0;entryDy=0;shadow=0;" edge="1" parent="1">
          <mxGeometry width="50" height="50" relative="1" as="geometry">
            <mxPoint x="340" y="2640" as="sourcePoint" />
            <mxPoint x="500" y="2640" as="targetPoint" />
          </mxGeometry>
        </mxCell>
        <mxCell id="wCYqZR8umJRYmcpoV3ZF-100" value="22" style="rounded=0;whiteSpace=wrap;html=1;shadow=0;" vertex="1" parent="1">
          <mxGeometry x="290" y="2725" width="50" height="50" as="geometry" />
        </mxCell>
        <mxCell id="wCYqZR8umJRYmcpoV3ZF-101" value="" style="endArrow=none;html=1;rounded=0;exitX=0.5;exitY=0;exitDx=0;exitDy=0;entryX=0.5;entryY=1;entryDx=0;entryDy=0;shadow=0;" edge="1" parent="1">
          <mxGeometry width="50" height="50" relative="1" as="geometry">
            <mxPoint x="315" y="2835" as="sourcePoint" />
            <mxPoint x="315" y="2775" as="targetPoint" />
          </mxGeometry>
        </mxCell>
        <mxCell id="wCYqZR8umJRYmcpoV3ZF-102" value="" style="endArrow=none;html=1;rounded=0;shadow=0;" edge="1" parent="1">
          <mxGeometry width="50" height="50" relative="1" as="geometry">
            <mxPoint x="300" y="2805" as="sourcePoint" />
            <mxPoint x="330" y="2805" as="targetPoint" />
          </mxGeometry>
        </mxCell>
        <mxCell id="wCYqZR8umJRYmcpoV3ZF-103" value="Timer (Tiempo de transporte Piezas de Embalaje a Almacen)" style="rounded=0;whiteSpace=wrap;html=1;shadow=0;" vertex="1" parent="1">
          <mxGeometry x="500" y="2720" width="144" height="60" as="geometry" />
        </mxCell>
        <mxCell id="wCYqZR8umJRYmcpoV3ZF-104" value="" style="endArrow=none;html=1;rounded=0;exitX=1;exitY=0.5;exitDx=0;exitDy=0;entryX=0;entryY=0.5;entryDx=0;entryDy=0;shadow=0;" edge="1" parent="1" target="wCYqZR8umJRYmcpoV3ZF-103">
          <mxGeometry width="50" height="50" relative="1" as="geometry">
            <mxPoint x="340" y="2750" as="sourcePoint" />
            <mxPoint x="660" y="2745" as="targetPoint" />
          </mxGeometry>
        </mxCell>
        <mxCell id="wCYqZR8umJRYmcpoV3ZF-105" value="23" style="rounded=0;whiteSpace=wrap;html=1;shadow=0;" vertex="1" parent="1">
          <mxGeometry x="290" y="2835" width="50" height="50" as="geometry" />
        </mxCell>
        <mxCell id="wCYqZR8umJRYmcpoV3ZF-106" value="" style="endArrow=none;html=1;rounded=0;exitX=0.5;exitY=0;exitDx=0;exitDy=0;entryX=0.5;entryY=1;entryDx=0;entryDy=0;shadow=0;" edge="1" parent="1">
          <mxGeometry width="50" height="50" relative="1" as="geometry">
            <mxPoint x="315" y="2945" as="sourcePoint" />
            <mxPoint x="315" y="2885" as="targetPoint" />
          </mxGeometry>
        </mxCell>
        <mxCell id="wCYqZR8umJRYmcpoV3ZF-107" value="" style="endArrow=none;html=1;rounded=0;shadow=0;" edge="1" parent="1">
          <mxGeometry width="50" height="50" relative="1" as="geometry">
            <mxPoint x="300" y="2915" as="sourcePoint" />
            <mxPoint x="330" y="2915" as="targetPoint" />
          </mxGeometry>
        </mxCell>
        <mxCell id="wCYqZR8umJRYmcpoV3ZF-108" value="" style="endArrow=none;html=1;rounded=0;exitX=1;exitY=0.5;exitDx=0;exitDy=0;entryX=0;entryY=0.5;entryDx=0;entryDy=0;shadow=0;" edge="1" parent="1">
          <mxGeometry width="50" height="50" relative="1" as="geometry">
            <mxPoint x="340" y="2860" as="sourcePoint" />
            <mxPoint x="500" y="2860" as="targetPoint" />
          </mxGeometry>
        </mxCell>
        <mxCell id="wCYqZR8umJRYmcpoV3ZF-109" value="Número de piezas en almacen &amp;gt;= Lote de piezas" style="text;align=center;html=1;verticalAlign=middle;whiteSpace=wrap;rounded=0;shadow=0;" vertex="1" parent="1">
          <mxGeometry x="360" y="3040" width="110" height="50" as="geometry" />
        </mxCell>
        <mxCell id="wCYqZR8umJRYmcpoV3ZF-110" value="24" style="rounded=0;whiteSpace=wrap;html=1;shadow=0;" vertex="1" parent="1">
          <mxGeometry x="290" y="2945" width="50" height="50" as="geometry" />
        </mxCell>
        <mxCell id="wCYqZR8umJRYmcpoV3ZF-111" value="" style="endArrow=none;html=1;rounded=0;edgeStyle=orthogonalEdgeStyle;shadow=0;" edge="1" parent="1">
          <mxGeometry width="50" height="50" relative="1" as="geometry">
            <mxPoint x="330" y="3105" as="sourcePoint" />
            <mxPoint x="330" y="3020" as="targetPoint" />
          </mxGeometry>
        </mxCell>
        <mxCell id="wCYqZR8umJRYmcpoV3ZF-112" value="" style="endArrow=none;html=1;rounded=0;shadow=0;" edge="1" parent="1">
          <mxGeometry width="50" height="50" relative="1" as="geometry">
            <mxPoint x="320" y="3065" as="sourcePoint" />
            <mxPoint x="340" y="3065" as="targetPoint" />
          </mxGeometry>
        </mxCell>
        <mxCell id="wCYqZR8umJRYmcpoV3ZF-113" value="Notificación en SCADA de pieza defectuosa" style="rounded=0;whiteSpace=wrap;html=1;shadow=0;" vertex="1" parent="1">
          <mxGeometry x="500" y="2940" width="137" height="60" as="geometry" />
        </mxCell>
        <mxCell id="wCYqZR8umJRYmcpoV3ZF-114" value="" style="endArrow=none;html=1;rounded=0;exitX=1;exitY=0.5;exitDx=0;exitDy=0;entryX=0;entryY=0.5;entryDx=0;entryDy=0;shadow=0;" edge="1" parent="1" target="wCYqZR8umJRYmcpoV3ZF-113">
          <mxGeometry width="50" height="50" relative="1" as="geometry">
            <mxPoint x="340" y="2970" as="sourcePoint" />
            <mxPoint x="660" y="2965" as="targetPoint" />
          </mxGeometry>
        </mxCell>
        <mxCell id="wCYqZR8umJRYmcpoV3ZF-115" value="" style="endArrow=none;html=1;rounded=0;shadow=0;" edge="1" parent="1">
          <mxGeometry width="50" height="50" relative="1" as="geometry">
            <mxPoint x="190" y="340" as="sourcePoint" />
            <mxPoint x="315" y="3220" as="targetPoint" />
            <Array as="points">
              <mxPoint x="190" y="3220" />
            </Array>
          </mxGeometry>
        </mxCell>
        <mxCell id="wCYqZR8umJRYmcpoV3ZF-116" value="" style="endArrow=none;html=1;rounded=0;shadow=0;" edge="1" parent="1">
          <mxGeometry width="50" height="50" relative="1" as="geometry">
            <mxPoint x="190" y="340" as="sourcePoint" />
            <mxPoint x="315" y="340" as="targetPoint" />
          </mxGeometry>
        </mxCell>
        <mxCell id="wCYqZR8umJRYmcpoV3ZF-117" value="24" style="rounded=0;whiteSpace=wrap;html=1;shadow=0;" vertex="1" parent="1">
          <mxGeometry x="290" y="3105" width="50" height="50" as="geometry" />
        </mxCell>
        <mxCell id="wCYqZR8umJRYmcpoV3ZF-118" value="" style="endArrow=none;html=1;rounded=0;entryX=0.5;entryY=1;entryDx=0;entryDy=0;edgeStyle=orthogonalEdgeStyle;shadow=0;" edge="1" parent="1">
          <mxGeometry width="50" height="50" relative="1" as="geometry">
            <mxPoint x="315" y="3220" as="sourcePoint" />
            <mxPoint x="315" y="3155" as="targetPoint" />
          </mxGeometry>
        </mxCell>
        <mxCell id="wCYqZR8umJRYmcpoV3ZF-119" value="" style="endArrow=none;html=1;rounded=0;shadow=0;" edge="1" parent="1">
          <mxGeometry width="50" height="50" relative="1" as="geometry">
            <mxPoint x="300" y="3185" as="sourcePoint" />
            <mxPoint x="330" y="3185" as="targetPoint" />
          </mxGeometry>
        </mxCell>
        <mxCell id="wCYqZR8umJRYmcpoV3ZF-120" value="" style="endArrow=none;html=1;rounded=0;exitX=1;exitY=0.5;exitDx=0;exitDy=0;entryX=0;entryY=0.5;entryDx=0;entryDy=0;shadow=0;" edge="1" parent="1">
          <mxGeometry width="50" height="50" relative="1" as="geometry">
            <mxPoint x="340" y="3130" as="sourcePoint" />
            <mxPoint x="460" y="3130" as="targetPoint" />
          </mxGeometry>
        </mxCell>
        <mxCell id="wCYqZR8umJRYmcpoV3ZF-121" value="" style="endArrow=none;html=1;rounded=0;shadow=0;" edge="1" parent="1">
          <mxGeometry width="50" height="50" relative="1" as="geometry">
            <mxPoint x="280" y="3010" as="sourcePoint" />
            <mxPoint x="350" y="3010" as="targetPoint" />
          </mxGeometry>
        </mxCell>
        <mxCell id="wCYqZR8umJRYmcpoV3ZF-122" value="" style="endArrow=none;html=1;rounded=0;shadow=0;" edge="1" parent="1">
          <mxGeometry width="50" height="50" relative="1" as="geometry">
            <mxPoint x="280" y="3020" as="sourcePoint" />
            <mxPoint x="350" y="3020" as="targetPoint" />
          </mxGeometry>
        </mxCell>
        <mxCell id="wCYqZR8umJRYmcpoV3ZF-123" value="" style="endArrow=none;html=1;rounded=0;edgeStyle=orthogonalEdgeStyle;shadow=0;" edge="1" parent="1">
          <mxGeometry width="50" height="50" relative="1" as="geometry">
            <mxPoint x="220" y="350" as="sourcePoint" />
            <mxPoint x="301" y="3020" as="targetPoint" />
            <Array as="points">
              <mxPoint x="230" y="3061" />
              <mxPoint x="301" y="3061" />
              <mxPoint x="301" y="3020" />
            </Array>
          </mxGeometry>
        </mxCell>
        <mxCell id="wCYqZR8umJRYmcpoV3ZF-124" value="" style="endArrow=none;html=1;rounded=0;entryX=0.5;entryY=1;entryDx=0;entryDy=0;shadow=0;" edge="1" parent="1" target="wCYqZR8umJRYmcpoV3ZF-110">
          <mxGeometry width="50" height="50" relative="1" as="geometry">
            <mxPoint x="315" y="3010" as="sourcePoint" />
            <mxPoint x="380" y="2980" as="targetPoint" />
          </mxGeometry>
        </mxCell>
        <mxCell id="wCYqZR8umJRYmcpoV3ZF-125" value="" style="endArrow=none;html=1;rounded=0;shadow=0;" edge="1" parent="1">
          <mxGeometry width="50" height="50" relative="1" as="geometry">
            <mxPoint x="220" y="350" as="sourcePoint" />
            <mxPoint x="315" y="350" as="targetPoint" />
          </mxGeometry>
        </mxCell>
        <mxCell id="wCYqZR8umJRYmcpoV3ZF-126" value="&lt;font style=&quot;font-size: 18px;&quot;&gt;GRAFCET de Nivel 3 Descripción Operativa&lt;/font&gt;" style="rounded=0;whiteSpace=wrap;html=1;" vertex="1" parent="1">
          <mxGeometry x="640" y="30" width="190" height="110" as="geometry" />
        </mxCell>
        <mxCell id="wCYqZR8umJRYmcpoV3ZF-127" value="Sensor (Laminas en Zona de Lavado)" style="text;align=center;html=1;verticalAlign=middle;whiteSpace=wrap;rounded=0;shadow=0;" vertex="1" parent="1">
          <mxGeometry x="758" y="475" width="112" height="30" as="geometry" />
        </mxCell>
        <mxCell id="wCYqZR8umJRYmcpoV3ZF-128" value="Rutina de lavado&lt;br&gt;(Timer)" style="rounded=0;whiteSpace=wrap;html=1;shadow=0;" vertex="1" parent="1">
          <mxGeometry x="749" y="520" width="130" height="60" as="geometry" />
        </mxCell>
        <mxCell id="wCYqZR8umJRYmcpoV3ZF-129" value="Bandera de timer" style="text;align=center;html=1;verticalAlign=middle;whiteSpace=wrap;rounded=0;shadow=0;" vertex="1" parent="1">
          <mxGeometry x="758" y="595" width="110" height="30" as="geometry" />
        </mxCell>
        <mxCell id="wCYqZR8umJRYmcpoV3ZF-130" value="Timer (Tiempo de transporte Laminas de Lavado a Corte)" style="rounded=0;whiteSpace=wrap;html=1;shadow=0;" vertex="1" parent="1">
          <mxGeometry x="500" y="635" width="151" height="60" as="geometry" />
        </mxCell>
        <mxCell id="wCYqZR8umJRYmcpoV3ZF-131" style="edgeStyle=orthogonalEdgeStyle;orthogonalLoop=1;jettySize=auto;html=1;exitX=0.5;exitY=1;exitDx=0;exitDy=0;" edge="1" parent="1" source="wCYqZR8umJRYmcpoV3ZF-132">
          <mxGeometry relative="1" as="geometry">
            <mxPoint x="805" y="441" as="targetPoint" />
            <Array as="points">
              <mxPoint x="805" y="399" />
              <mxPoint x="805" y="434" />
            </Array>
          </mxGeometry>
        </mxCell>
        <mxCell id="wCYqZR8umJRYmcpoV3ZF-132" value="Alternativas" style="shape=hexagon;perimeter=hexagonPerimeter2;whiteSpace=wrap;html=1;fixedSize=1;shadow=1;fillColor=#fff2cc;strokeColor=#d6b656;" vertex="1" parent="1">
          <mxGeometry x="742" y="346" width="120" height="53" as="geometry" />
        </mxCell>
        <mxCell id="wCYqZR8umJRYmcpoV3ZF-133" value="Confirmación Botón SCADA (Laminas en Zona de Corte)" style="text;align=center;html=1;verticalAlign=middle;whiteSpace=wrap;rounded=0;shadow=0;" vertex="1" parent="1">
          <mxGeometry x="350" y="700" width="112" height="30" as="geometry" />
        </mxCell>
        <mxCell id="wCYqZR8umJRYmcpoV3ZF-134" value="Sensor (Laminas en Zona de Corte)" style="text;align=center;html=1;verticalAlign=middle;whiteSpace=wrap;rounded=0;shadow=0;" vertex="1" parent="1">
          <mxGeometry x="767" y="695" width="112" height="30" as="geometry" />
        </mxCell>
        <mxCell id="wCYqZR8umJRYmcpoV3ZF-135" value="Rutina de corte&lt;br&gt;(Timer)" style="rounded=0;whiteSpace=wrap;html=1;shadow=0;" vertex="1" parent="1">
          <mxGeometry x="758" y="850" width="130" height="60" as="geometry" />
        </mxCell>
        <mxCell id="wCYqZR8umJRYmcpoV3ZF-136" value="Bandera de timer" style="text;align=center;html=1;verticalAlign=middle;whiteSpace=wrap;rounded=0;shadow=0;" vertex="1" parent="1">
          <mxGeometry x="767" y="925" width="110" height="30" as="geometry" />
        </mxCell>
        <mxCell id="wCYqZR8umJRYmcpoV3ZF-137" value="Sensor (Laminas en Zona de Doblado)" style="text;align=center;html=1;verticalAlign=middle;whiteSpace=wrap;rounded=0;shadow=0;" vertex="1" parent="1">
          <mxGeometry x="766" y="1030" width="112" height="30" as="geometry" />
        </mxCell>
        <mxCell id="wCYqZR8umJRYmcpoV3ZF-138" value="Confirmación Botón SCADA (Laminas en Zona de Doblado)" style="text;align=center;html=1;verticalAlign=middle;whiteSpace=wrap;rounded=0;shadow=0;" vertex="1" parent="1">
          <mxGeometry x="358" y="1030" width="118" height="30" as="geometry" />
        </mxCell>
        <mxCell id="wCYqZR8umJRYmcpoV3ZF-139" value="Timer (Tiempo de posicionamiento - alistamiento)" style="rounded=0;whiteSpace=wrap;html=1;shadow=0;" vertex="1" parent="1">
          <mxGeometry x="500" y="1065" width="130" height="60" as="geometry" />
        </mxCell>
        <mxCell id="wCYqZR8umJRYmcpoV3ZF-140" value="Bandera de timer" style="text;align=center;html=1;verticalAlign=middle;whiteSpace=wrap;rounded=0;shadow=0;" vertex="1" parent="1">
          <mxGeometry x="358" y="1141" width="110" height="30" as="geometry" />
        </mxCell>
        <mxCell id="wCYqZR8umJRYmcpoV3ZF-141" value="Rutina de doblado&lt;br style=&quot;border-color: var(--border-color);&quot;&gt;(Bandera al finalizar)" style="rounded=0;whiteSpace=wrap;html=1;shadow=0;" vertex="1" parent="1">
          <mxGeometry x="500" y="1185" width="130" height="60" as="geometry" />
        </mxCell>
        <mxCell id="wCYqZR8umJRYmcpoV3ZF-142" value="Bandera de Fin de Doblado Arriba" style="text;align=center;html=1;verticalAlign=middle;whiteSpace=wrap;rounded=0;shadow=0;" vertex="1" parent="1">
          <mxGeometry x="350" y="1255" width="110" height="30" as="geometry" />
        </mxCell>
        <mxCell id="wCYqZR8umJRYmcpoV3ZF-143" value="Timer (Tiempo de transporte Piezas de Doblado a Pulido)" style="rounded=0;whiteSpace=wrap;html=1;shadow=0;" vertex="1" parent="1">
          <mxGeometry x="500" y="1295" width="130" height="60" as="geometry" />
        </mxCell>
        <mxCell id="wCYqZR8umJRYmcpoV3ZF-144" value="Rutina de doblado&lt;br&gt;(Timer)" style="rounded=0;whiteSpace=wrap;html=1;shadow=0;" vertex="1" parent="1">
          <mxGeometry x="758" y="1185" width="130" height="60" as="geometry" />
        </mxCell>
        <mxCell id="wCYqZR8umJRYmcpoV3ZF-145" value="Bandera de timer" style="text;align=center;html=1;verticalAlign=middle;whiteSpace=wrap;rounded=0;shadow=0;" vertex="1" parent="1">
          <mxGeometry x="767" y="1260" width="110" height="30" as="geometry" />
        </mxCell>
        <mxCell id="wCYqZR8umJRYmcpoV3ZF-146" value="Sensor (Piezas en Zona de Pulido)" style="text;align=center;html=1;verticalAlign=middle;whiteSpace=wrap;rounded=0;shadow=0;" vertex="1" parent="1">
          <mxGeometry x="765" y="1358" width="112" height="30" as="geometry" />
        </mxCell>
        <mxCell id="wCYqZR8umJRYmcpoV3ZF-147" value="Confirmación Botón SCADA (Piezas en Zona de Pulido)" style="text;align=center;html=1;verticalAlign=middle;whiteSpace=wrap;rounded=0;shadow=0;" vertex="1" parent="1">
          <mxGeometry x="358" y="1365" width="118" height="30" as="geometry" />
        </mxCell>
        <mxCell id="wCYqZR8umJRYmcpoV3ZF-148" value="Rutina de pulido&lt;br style=&quot;border-color: var(--border-color);&quot;&gt;(Bandera al finalizar)" style="rounded=0;whiteSpace=wrap;html=1;shadow=0;" vertex="1" parent="1">
          <mxGeometry x="500" y="1400" width="130" height="60" as="geometry" />
        </mxCell>
        <mxCell id="wCYqZR8umJRYmcpoV3ZF-149" value="Bandera de Fin de Pulido Arriba" style="text;align=center;html=1;verticalAlign=middle;whiteSpace=wrap;rounded=0;shadow=0;" vertex="1" parent="1">
          <mxGeometry x="350" y="1470" width="110" height="30" as="geometry" />
        </mxCell>
        <mxCell id="wCYqZR8umJRYmcpoV3ZF-150" value="Rutina de pulido&lt;br&gt;(Timer)" style="rounded=0;whiteSpace=wrap;html=1;shadow=0;" vertex="1" parent="1">
          <mxGeometry x="758" y="1400" width="130" height="60" as="geometry" />
        </mxCell>
        <mxCell id="wCYqZR8umJRYmcpoV3ZF-151" value="Bandera de timer" style="text;align=center;html=1;verticalAlign=middle;whiteSpace=wrap;rounded=0;shadow=0;" vertex="1" parent="1">
          <mxGeometry x="767" y="1475" width="110" height="30" as="geometry" />
        </mxCell>
        <mxCell id="wCYqZR8umJRYmcpoV3ZF-152" value="Timer (Tiempo de transporte Piezas de Pulido a Pintado)" style="rounded=0;whiteSpace=wrap;html=1;shadow=0;" vertex="1" parent="1">
          <mxGeometry x="499" y="1515" width="130" height="60" as="geometry" />
        </mxCell>
        <mxCell id="wCYqZR8umJRYmcpoV3ZF-153" value="Sensor (Laminas en Zona de Pintado)" style="text;align=center;html=1;verticalAlign=middle;whiteSpace=wrap;rounded=0;shadow=0;" vertex="1" parent="1">
          <mxGeometry x="765" y="1575" width="112" height="30" as="geometry" />
        </mxCell>
        <mxCell id="wCYqZR8umJRYmcpoV3ZF-154" value="Confirmación Botón SCADA (Piezas en Zona de Pintado)" style="text;align=center;html=1;verticalAlign=middle;whiteSpace=wrap;rounded=0;shadow=0;" vertex="1" parent="1">
          <mxGeometry x="357" y="1585" width="118" height="30" as="geometry" />
        </mxCell>
        <mxCell id="wCYqZR8umJRYmcpoV3ZF-155" value="Timer (Tiempo de posicionamiento - alistamiento) Deslizador" style="rounded=0;whiteSpace=wrap;html=1;shadow=0;" vertex="1" parent="1">
          <mxGeometry x="499" y="1620" width="145" height="60" as="geometry" />
        </mxCell>
        <mxCell id="wCYqZR8umJRYmcpoV3ZF-156" value="Bandera de timer" style="text;align=center;html=1;verticalAlign=middle;whiteSpace=wrap;rounded=0;shadow=0;" vertex="1" parent="1">
          <mxGeometry x="357" y="1696" width="110" height="30" as="geometry" />
        </mxCell>
        <mxCell id="wCYqZR8umJRYmcpoV3ZF-157" value="Rutina de pintado&lt;br style=&quot;border-color: var(--border-color);&quot;&gt;(Bandera al finalizar)" style="rounded=0;whiteSpace=wrap;html=1;shadow=0;" vertex="1" parent="1">
          <mxGeometry x="499" y="1740" width="130" height="60" as="geometry" />
        </mxCell>
        <mxCell id="wCYqZR8umJRYmcpoV3ZF-158" value="Bandera de Fin de Pintado Arriba" style="text;align=center;html=1;verticalAlign=middle;whiteSpace=wrap;rounded=0;shadow=0;" vertex="1" parent="1">
          <mxGeometry x="349" y="1810" width="110" height="30" as="geometry" />
        </mxCell>
        <mxCell id="wCYqZR8umJRYmcpoV3ZF-159" value="Rutina de Pintado&lt;br&gt;(Timer)" style="rounded=0;whiteSpace=wrap;html=1;shadow=0;" vertex="1" parent="1">
          <mxGeometry x="765" y="1740" width="130" height="60" as="geometry" />
        </mxCell>
        <mxCell id="wCYqZR8umJRYmcpoV3ZF-160" value="Timer (Tiempo de transporte Piezas de Pintado a Horneado)" style="rounded=0;whiteSpace=wrap;html=1;shadow=0;" vertex="1" parent="1">
          <mxGeometry x="501" y="1845" width="130" height="60" as="geometry" />
        </mxCell>
        <mxCell id="wCYqZR8umJRYmcpoV3ZF-161" value="Sensor (Laminas en Zona de Horneado)" style="text;align=center;html=1;verticalAlign=middle;whiteSpace=wrap;rounded=0;shadow=0;" vertex="1" parent="1">
          <mxGeometry x="767" y="1915" width="112" height="30" as="geometry" />
        </mxCell>
        <mxCell id="wCYqZR8umJRYmcpoV3ZF-162" value="Confirmación Botón SCADA (Piezas en Zona de Horneado)" style="text;align=center;html=1;verticalAlign=middle;whiteSpace=wrap;rounded=0;shadow=0;" vertex="1" parent="1">
          <mxGeometry x="359" y="1915" width="118" height="30" as="geometry" />
        </mxCell>
        <mxCell id="wCYqZR8umJRYmcpoV3ZF-163" value="Timer (Tiempo de posicionamiento - alistamiento) Horno" style="rounded=0;whiteSpace=wrap;html=1;shadow=0;" vertex="1" parent="1">
          <mxGeometry x="501" y="1950" width="145" height="60" as="geometry" />
        </mxCell>
        <mxCell id="wCYqZR8umJRYmcpoV3ZF-164" value="Bandera de timer" style="text;align=center;html=1;verticalAlign=middle;whiteSpace=wrap;rounded=0;shadow=0;" vertex="1" parent="1">
          <mxGeometry x="359" y="2026" width="110" height="30" as="geometry" />
        </mxCell>
        <mxCell id="wCYqZR8umJRYmcpoV3ZF-165" value="Rutina de Horneado&lt;br style=&quot;border-color: var(--border-color);&quot;&gt;(Bandera al finalizar)" style="rounded=0;whiteSpace=wrap;html=1;shadow=0;" vertex="1" parent="1">
          <mxGeometry x="501" y="2070" width="130" height="60" as="geometry" />
        </mxCell>
        <mxCell id="wCYqZR8umJRYmcpoV3ZF-166" value="Bandera de Fin de Horneado Arriba" style="text;align=center;html=1;verticalAlign=middle;whiteSpace=wrap;rounded=0;shadow=0;" vertex="1" parent="1">
          <mxGeometry x="351" y="2140" width="110" height="30" as="geometry" />
        </mxCell>
        <mxCell id="wCYqZR8umJRYmcpoV3ZF-167" value="Rutina de Horneado&lt;br&gt;(Timer)" style="rounded=0;whiteSpace=wrap;html=1;shadow=0;" vertex="1" parent="1">
          <mxGeometry x="756" y="2070" width="130" height="60" as="geometry" />
        </mxCell>
        <mxCell id="wCYqZR8umJRYmcpoV3ZF-168" value="Bandera de timer" style="text;align=center;html=1;verticalAlign=middle;whiteSpace=wrap;rounded=0;shadow=0;" vertex="1" parent="1">
          <mxGeometry x="775" y="1810" width="110" height="30" as="geometry" />
        </mxCell>
        <mxCell id="wCYqZR8umJRYmcpoV3ZF-169" value="Bandera de timer" style="text;align=center;html=1;verticalAlign=middle;whiteSpace=wrap;rounded=0;shadow=0;" vertex="1" parent="1">
          <mxGeometry x="765" y="2140" width="110" height="30" as="geometry" />
        </mxCell>
        <mxCell id="wCYqZR8umJRYmcpoV3ZF-170" value="Timer (Tiempo de transporte Piezas de Horneado a Zona de adhesivos)" style="rounded=0;whiteSpace=wrap;html=1;shadow=0;" vertex="1" parent="1">
          <mxGeometry x="501" y="2170" width="164" height="60" as="geometry" />
        </mxCell>
        <mxCell id="wCYqZR8umJRYmcpoV3ZF-171" value="Confirmación Botón SCADA (Piezas en Zona de Adhesivos)" style="text;align=center;html=1;verticalAlign=middle;whiteSpace=wrap;rounded=0;shadow=0;" vertex="1" parent="1">
          <mxGeometry x="359" y="2240" width="118" height="30" as="geometry" />
        </mxCell>
        <mxCell id="wCYqZR8umJRYmcpoV3ZF-172" value="Puesta de Adhesivos (Bandera al finalizar)" style="rounded=0;whiteSpace=wrap;html=1;shadow=0;" vertex="1" parent="1">
          <mxGeometry x="501" y="2275" width="130" height="60" as="geometry" />
        </mxCell>
        <mxCell id="wCYqZR8umJRYmcpoV3ZF-173" value="Bandera de Fin de puesta de Adhesivos Arriba" style="text;align=center;html=1;verticalAlign=middle;whiteSpace=wrap;rounded=0;shadow=0;" vertex="1" parent="1">
          <mxGeometry x="361" y="2345" width="110" height="30" as="geometry" />
        </mxCell>
        <mxCell id="wCYqZR8umJRYmcpoV3ZF-174" value="Puesta de Adhesivos (Timer)" style="rounded=0;whiteSpace=wrap;html=1;shadow=0;" vertex="1" parent="1">
          <mxGeometry x="756" y="2275" width="130" height="60" as="geometry" />
        </mxCell>
        <mxCell id="wCYqZR8umJRYmcpoV3ZF-175" value="Bandera de timer" style="text;align=center;html=1;verticalAlign=middle;whiteSpace=wrap;rounded=0;shadow=0;" vertex="1" parent="1">
          <mxGeometry x="766" y="2345" width="110" height="30" as="geometry" />
        </mxCell>
        <mxCell id="wCYqZR8umJRYmcpoV3ZF-176" value="Timer (Tiempo de transporte Piezas de Zona de adhesivos a Embalaje)" style="rounded=0;whiteSpace=wrap;html=1;shadow=0;" vertex="1" parent="1">
          <mxGeometry x="499" y="2395" width="145" height="60" as="geometry" />
        </mxCell>
        <mxCell id="wCYqZR8umJRYmcpoV3ZF-177" value="Sensor (Laminas en Zona de Embalaje)" style="text;align=center;html=1;verticalAlign=middle;whiteSpace=wrap;rounded=0;shadow=0;" vertex="1" parent="1">
          <mxGeometry x="765" y="2465" width="112" height="30" as="geometry" />
        </mxCell>
        <mxCell id="wCYqZR8umJRYmcpoV3ZF-178" value="Confirmación Botón SCADA (Piezas en Zona de Embalaje)" style="text;align=center;html=1;verticalAlign=middle;whiteSpace=wrap;rounded=0;shadow=0;" vertex="1" parent="1">
          <mxGeometry x="357" y="2465" width="118" height="30" as="geometry" />
        </mxCell>
        <mxCell id="wCYqZR8umJRYmcpoV3ZF-179" value="Timer (Tiempo de posicionamiento - alistamiento) Vinipeladora" style="rounded=0;whiteSpace=wrap;html=1;shadow=0;" vertex="1" parent="1">
          <mxGeometry x="499" y="2500" width="145" height="60" as="geometry" />
        </mxCell>
        <mxCell id="wCYqZR8umJRYmcpoV3ZF-180" value="Bandera de timer" style="text;align=center;html=1;verticalAlign=middle;whiteSpace=wrap;rounded=0;shadow=0;" vertex="1" parent="1">
          <mxGeometry x="357" y="2576" width="110" height="30" as="geometry" />
        </mxCell>
        <mxCell id="wCYqZR8umJRYmcpoV3ZF-181" value="Rutina de Embalaje&lt;br style=&quot;border-color: var(--border-color);&quot;&gt;(Bandera al finalizar)" style="rounded=0;whiteSpace=wrap;html=1;shadow=0;" vertex="1" parent="1">
          <mxGeometry x="499" y="2620" width="130" height="60" as="geometry" />
        </mxCell>
        <mxCell id="wCYqZR8umJRYmcpoV3ZF-182" value="Bandera de Fin de Vinipelado Arriba" style="text;align=center;html=1;verticalAlign=middle;whiteSpace=wrap;rounded=0;shadow=0;" vertex="1" parent="1">
          <mxGeometry x="349" y="2690" width="110" height="30" as="geometry" />
        </mxCell>
        <mxCell id="wCYqZR8umJRYmcpoV3ZF-183" value="Rutina de Vinipelado&lt;br&gt;(Timer)" style="rounded=0;whiteSpace=wrap;html=1;shadow=0;" vertex="1" parent="1">
          <mxGeometry x="765" y="2620" width="130" height="60" as="geometry" />
        </mxCell>
        <mxCell id="wCYqZR8umJRYmcpoV3ZF-184" value="Bandera de timer" style="text;align=center;html=1;verticalAlign=middle;whiteSpace=wrap;rounded=0;shadow=0;" vertex="1" parent="1">
          <mxGeometry x="775" y="2690" width="110" height="30" as="geometry" />
        </mxCell>
        <mxCell id="wCYqZR8umJRYmcpoV3ZF-185" value="Sensor (Laminas en Zona de Almacen)" style="text;align=center;html=1;verticalAlign=middle;whiteSpace=wrap;rounded=0;shadow=0;" vertex="1" parent="1">
          <mxGeometry x="774" y="2786" width="112" height="30" as="geometry" />
        </mxCell>
        <mxCell id="wCYqZR8umJRYmcpoV3ZF-186" value="Confirmación Botón SCADA (Piezas en Zona de Almacen)" style="text;align=center;html=1;verticalAlign=middle;whiteSpace=wrap;rounded=0;shadow=0;" vertex="1" parent="1">
          <mxGeometry x="351" y="2793" width="118" height="30" as="geometry" />
        </mxCell>
        <mxCell id="wCYqZR8umJRYmcpoV3ZF-187" value="Rutina de Revisión de Calidad (Bandera al finalizar) y Contador de piezas ++" style="rounded=0;whiteSpace=wrap;html=1;shadow=0;" vertex="1" parent="1">
          <mxGeometry x="501" y="2828" width="143" height="60" as="geometry" />
        </mxCell>
        <mxCell id="wCYqZR8umJRYmcpoV3ZF-188" value="Bandera de Fin de Revisión Arriba" style="text;align=center;html=1;verticalAlign=middle;whiteSpace=wrap;rounded=0;shadow=0;" vertex="1" parent="1">
          <mxGeometry x="351" y="2898" width="110" height="30" as="geometry" />
        </mxCell>
        <mxCell id="wCYqZR8umJRYmcpoV3ZF-189" value="Rutina de Revisión de Calidad (Timer)" style="rounded=0;whiteSpace=wrap;html=1;shadow=0;" vertex="1" parent="1">
          <mxGeometry x="767" y="2828" width="136" height="60" as="geometry" />
        </mxCell>
        <mxCell id="wCYqZR8umJRYmcpoV3ZF-190" value="Bandera de timer" style="text;align=center;html=1;verticalAlign=middle;whiteSpace=wrap;rounded=0;shadow=0;" vertex="1" parent="1">
          <mxGeometry x="777" y="2898" width="110" height="30" as="geometry" />
        </mxCell>
        <mxCell id="wCYqZR8umJRYmcpoV3ZF-191" value="Rutina de Despacho&lt;br style=&quot;border-color: var(--border-color);&quot;&gt;(Bandera al finalizar)" style="rounded=0;whiteSpace=wrap;html=1;shadow=0;" vertex="1" parent="1">
          <mxGeometry x="460" y="3105" width="130" height="60" as="geometry" />
        </mxCell>
        <mxCell id="wCYqZR8umJRYmcpoV3ZF-192" value="Bandera de Fin de&amp;nbsp;&lt;br&gt;Despacho Arriba" style="text;align=center;html=1;verticalAlign=middle;whiteSpace=wrap;rounded=0;shadow=0;" vertex="1" parent="1">
          <mxGeometry x="340" y="3175" width="110" height="30" as="geometry" />
        </mxCell>
        <mxCell id="wCYqZR8umJRYmcpoV3ZF-193" value="Rutina de Despacho&lt;br&gt;(Timer)" style="rounded=0;whiteSpace=wrap;html=1;shadow=0;" vertex="1" parent="1">
          <mxGeometry x="726" y="3105" width="130" height="60" as="geometry" />
        </mxCell>
        <mxCell id="wCYqZR8umJRYmcpoV3ZF-194" value="Bandera de timer" style="text;align=center;html=1;verticalAlign=middle;whiteSpace=wrap;rounded=0;shadow=0;" vertex="1" parent="1">
          <mxGeometry x="736" y="3175" width="110" height="30" as="geometry" />
        </mxCell>
      </root>
    </mxGraphModel>
  </diagram>
</mxfile>
